<?xml version="1.0" encoding="UTF-8"?>
<!DOCTYPE svg PUBLIC "-//W3C//DTD SVG 1.1//EN" "http://www.w3.org/Graphics/SVG/1.1/DTD/svg11.dtd">
<!-- Creator: CorelDRAW X7 -->
<svg xmlns="http://www.w3.org/2000/svg" xml:space="preserve" width="2718px" height="1060px" version="1.1" style="shape-rendering:geometricPrecision; text-rendering:geometricPrecision; image-rendering:optimizeQuality; fill-rule:evenodd; clip-rule:evenodd"
viewBox="0 0 2932 1144"
 xmlns:xlink="http://www.w3.org/1999/xlink">
 <defs>
  <style type="text/css">
   <![CDATA[
    .fil0 {fill:#FEFEFE}
    .fil1 {fill:#FFED00}
    .fil2 {fill:#FEFEFE;fill-rule:nonzero}
   ]]>
  </style>
 </defs>
 <g id="Layer_x0020_1">
  <metadata id="CorelCorpID_0Corel-Layer"/>
  <g id="_2697084669952">
   <path class="fil0" d="M2473 606l1 -143 -118 -2 1 57 48 0 -1 43c-122,22 -111,-136 -44,-153 34,-9 58,4 86,11l22 -57c-103,-40 -232,-15 -231,124 1,63 26,108 70,127 40,16 133,14 166,-7z"/>
   <path class="fil0" d="M1900 606l0 -143 -117 -2 0 57 49 0 -1 43c-123,21 -110,-136 -44,-153 33,-9 58,3 86,11l21 -55c-24,-23 -231,-58 -230,122 0,63 25,108 70,127 41,17 132,14 166,-7z"/>
   <polygon class="fil0" points="2609,620 2683,620 2682,349 2609,349 "/>
   <polygon class="fil0" points="2036,617 2036,620 2109,620 2109,349 2036,349 "/>
   <g>
    <path class="fil1" d="M1 326c-2,78 -1,156 -1,234 1,187 112,352 289,416 -8,-2 -47,-36 -52,-42 -85,-88 -129,-233 -133,-357 -2,-58 -4,-140 0,-196l296 -221c11,-9 31,-26 42,-31l68 57 -13 10c-7,5 -14,10 -20,15l-189 141c-26,19 -52,37 -77,57l-1 242c0,130 43,254 133,345 305,311 824,99 824,-342l0 -219c0,-34 0,-26 -24,-44 -35,-25 -270,-198 -278,-209 6,-8 58,-47 69,-54 17,6 68,48 87,62l237 177c12,8 16,7 16,24 0,149 10,274 -51,413 -19,45 -54,104 -88,135 -12,11 -28,22 -42,35 70,-20 156,-92 196,-147 17,-23 31,-45 45,-73 59,-123 43,-276 43,-423 -3,-10 -188,-142 -219,-167 -15,-11 -210,-159 -224,-164l-117 88c-13,9 -28,22 -41,29 -18,-11 -73,-57 -88,-63 -23,14 -74,57 -88,63l-158 -117c-12,5 -43,31 -55,39l-386 287zm312 139c0,207 -22,379 158,507 234,168 593,22 593,-325l0 -158c0,-31 6,-24 -32,-51 -16,-12 -31,-23 -48,-35 -34,-25 -67,-49 -99,-74l-197 -144 -188 139c-24,19 -179,128 -187,141z"/>
    <polygon class="fil1" points="709,811 819,812 820,799 820,701 709,701 "/>
    <polygon class="fil1" points="709,660 820,661 820,550 710,550 "/>
    <polygon class="fil1" points="557,660 669,661 668,550 558,550 "/>
    <polygon class="fil1" points="558,811 668,812 669,701 557,702 "/>
   </g>
   <g>
    <path class="fil2" d="M1505 789c5,2 10,4 13,6 3,3 6,6 8,10 1,4 2,7 2,11 0,11 -4,19 -11,25 -8,6 -19,9 -33,9l-45 0 0 -115 42 0c9,0 17,1 23,3 6,3 11,7 14,11 4,5 5,10 5,16 0,5 -1,10 -4,14 -3,5 -8,8 -14,10zm-42 -34l0 26 14 0c14,0 20,-4 20,-14 0,-4 -1,-7 -4,-9 -3,-2 -7,-3 -13,-3l-17 0zm18 75c8,0 13,-2 16,-4 3,-3 5,-7 5,-11 0,-4 -2,-8 -5,-11 -3,-2 -8,-3 -15,-3l-19 0 0 29 18 0z"/>
    <path id="1" class="fil2" d="M1643 853c-12,0 -21,-3 -29,-7 -7,-4 -13,-10 -16,-18 -4,-7 -5,-15 -5,-25l0 -68 24 0 0 65c0,10 2,18 6,23 4,6 11,9 21,9 10,0 17,-3 21,-9 3,-5 5,-12 5,-21l0 -67 25 0 0 67c0,12 -2,22 -7,29 -4,8 -10,13 -18,16 -8,4 -17,6 -27,6z"/>
    <polygon id="2" class="fil2" points="1864,735 1864,736 1822,802 1822,850 1797,850 1797,803 1755,736 1755,735 1784,735 1810,779 1837,735 "/>
    <path id="3" class="fil2" d="M1958 853c-18,0 -33,-5 -46,-14l12 -18c11,7 22,11 32,11 7,0 12,-2 16,-4 4,-2 6,-5 6,-9 0,-3 -1,-5 -2,-7 -1,-2 -3,-3 -6,-5 -4,-1 -8,-3 -15,-6l-4 -2c-7,-3 -13,-5 -18,-8 -5,-3 -8,-6 -11,-11 -3,-4 -4,-9 -4,-16 0,-7 2,-13 6,-18 4,-5 9,-8 16,-11 7,-2 13,-3 21,-3 7,0 13,1 20,3 8,3 14,6 21,10l-12 18c-6,-4 -11,-6 -15,-8 -4,-1 -9,-2 -14,-2 -6,0 -10,1 -13,3 -3,2 -4,4 -4,7 0,2 0,4 2,6 1,1 3,3 6,5 3,1 7,3 13,5l4 2c8,2 14,5 18,8 5,2 9,6 12,10 3,5 5,11 5,18 0,8 -2,14 -6,20 -4,5 -10,9 -17,12 -7,2 -14,4 -23,4z"/>
    <polygon class="fil2" points="2235,734 2259,734 2259,850 2235,850 2235,802 2181,802 2181,850 2157,850 2157,734 2181,734 2181,780 2235,780 "/>
    <path id="1" class="fil2" d="M2383 852c-12,0 -23,-2 -31,-7 -9,-6 -15,-13 -20,-22 -4,-9 -6,-19 -6,-31 0,-14 2,-25 8,-34 5,-9 12,-15 21,-20 9,-4 19,-6 29,-6 13,0 23,2 32,7 9,5 15,13 19,22 5,9 7,19 7,31 0,14 -3,25 -8,34 -5,9 -12,15 -21,20 -9,4 -19,6 -30,6zm0 -20c7,0 13,-2 18,-5 5,-3 9,-8 11,-14 3,-6 4,-13 4,-21 0,-12 -3,-22 -8,-29 -6,-7 -13,-11 -24,-11 -10,0 -18,4 -24,11 -6,7 -8,16 -8,28 0,13 2,23 8,30 5,7 13,11 23,11z"/>
    <path id="2" class="fil2" d="M2633 734l0 116 -25 0 0 -72c-1,4 -4,10 -8,17l-20 40 -19 0 -21 -40c-3,-7 -6,-13 -8,-17l0 72 -24 0 0 -116 26 0 26 51c2,4 4,8 6,12 2,4 3,8 4,11 2,-6 5,-13 10,-23l27 -51 26 0z"/>
    <polygon id="3" class="fil2" points="2729,829 2783,829 2783,850 2705,850 2705,734 2782,734 2782,755 2729,755 2729,781 2775,781 2772,801 2729,801 "/>
    <path id="4" class="fil2" d="M2886 852c-18,0 -33,-4 -45,-14l11 -17c11,7 22,10 33,10 6,0 12,-1 15,-3 4,-2 6,-5 6,-10 0,-2 0,-4 -2,-6 -1,-2 -3,-4 -6,-5 -3,-2 -8,-4 -14,-6l-4 -2c-8,-3 -14,-6 -19,-8 -4,-3 -8,-7 -11,-11 -3,-4 -4,-10 -4,-16 0,-7 2,-13 6,-18 4,-5 10,-9 16,-11 7,-2 14,-3 21,-3 7,0 14,1 21,3 7,2 14,5 20,10l-12 17c-5,-3 -10,-6 -15,-7 -4,-2 -9,-3 -14,-3 -5,0 -10,1 -13,3 -2,2 -4,5 -4,8 0,2 1,4 2,5 1,2 3,4 6,5 3,2 8,4 13,6l4 1c8,3 14,6 19,8 4,3 8,6 11,11 4,5 5,11 5,18 0,8 -2,14 -6,19 -4,6 -9,10 -16,12 -7,3 -15,4 -24,4z"/>
   </g>
  </g>
 </g>
</svg>
