<svg width="63" height="49" viewBox="0 0 63 49" fill="none" xmlns="http://www.w3.org/2000/svg">
<path d="M8.96072 44.4189H17.672C18.0162 44.4189 18.3603 44.3709 18.7044 44.2722V42.0634C18.4097 42.3088 18.0655 42.4569 17.672 42.4569H8.96072C8.1244 42.4569 7.38679 41.7686 7.38679 40.8856C7.38679 40.0026 8.07505 39.3157 8.96072 39.3157H9.35554C9.65031 39.3157 9.94509 39.1676 10.0931 38.9715C10.2906 38.7261 10.3386 38.4313 10.2906 38.1859C10.2412 37.9405 10.2412 37.7444 10.2412 37.499C10.2906 35.9784 11.6191 34.7019 13.0943 34.6526C13.9319 34.6526 14.7189 34.898 15.3098 35.4875C15.8994 36.0758 16.2448 36.8614 16.2448 37.695C16.2448 37.8925 16.2448 38.0885 16.1955 38.2353C16.1461 38.53 16.2448 38.8248 16.3916 39.0209C16.5396 39.217 16.8344 39.3637 17.1305 39.3637H17.5733C17.9668 39.3637 18.3109 39.5117 18.6071 39.7572V37.5483C18.459 37.499 18.3109 37.4496 18.2122 37.4496C18.1629 36.1745 17.6227 34.9473 16.6877 34.0643C15.7033 33.1306 14.4241 32.6411 13.0463 32.6891C10.4866 32.7878 8.42051 34.898 8.27246 37.4496C8.27246 37.4496 8.27246 37.4496 8.27246 37.499C6.59848 37.7937 5.36868 39.217 5.36868 40.9843C5.41803 42.849 6.9933 44.4189 8.96072 44.4189Z" fill="white"/>
<path d="M46.852 11.7825H55.5634C57.4828 11.7825 59.1061 10.2113 59.1061 8.24786C59.1061 6.53121 57.8269 5.05865 56.2023 4.76387C56.1529 3.48738 55.6127 2.26025 54.6777 1.37725C53.6933 0.444892 52.4128 -0.0459611 51.035 0.00339099C48.4767 0.100762 46.4092 2.21223 46.2625 4.76387C46.2625 4.76387 46.2625 4.76387 46.2625 4.81322C44.5885 5.10667 43.3587 6.53121 43.3587 8.29722C43.3094 10.2113 44.8846 11.7825 46.852 11.7825ZM46.852 6.67793H47.2469C47.5416 6.67793 47.8364 6.53121 47.9845 6.3338C48.1819 6.08838 48.2312 5.79493 48.1819 5.5495C48.1325 5.30408 48.1325 5.10667 48.1325 4.86258C48.1819 3.34066 49.5104 2.06418 50.987 2.01482C51.8233 1.96681 52.6102 2.26025 53.2011 2.84981C53.7907 3.43803 54.1362 4.22366 54.1362 5.05865C54.1362 5.25472 54.1362 5.4508 54.0868 5.59752C54.0375 5.8923 54.1362 6.18708 54.2829 6.38315C54.4309 6.57923 54.7257 6.72729 55.0218 6.72729H55.4647C56.301 6.72729 57.0386 7.41421 57.0386 8.29722C57.0386 9.18022 56.3503 9.86848 55.4647 9.86848H46.852C46.0157 9.86848 45.2781 9.18022 45.2781 8.29722C45.2781 7.41421 45.9664 6.67793 46.852 6.67793Z" fill="white"/>
<mask id="mask0_2_242" style="mask-type:luminance" maskUnits="userSpaceOnUse" x="0" y="16" width="63" height="33">
<path d="M0 16.3441H63V48.1002H0V16.3441Z" fill="white"/>
</mask>
<g mask="url(#mask0_2_242)">
<path d="M62.0106 46.137H59.0575V45.1553H60.0419C61.125 45.1553 62.0106 44.2723 62.0106 43.1919V40.2481C62.0106 39.1677 61.125 38.2847 60.0419 38.2847H59.0575V36.3213C59.0575 35.781 58.6147 35.3395 58.0731 35.3395H50.1995C49.6579 35.3395 49.2151 35.781 49.2151 36.3213V46.137H41.7362C41.7843 45.9903 41.8336 45.8422 41.8336 45.6955V35.1435L52.7098 22.8735C52.8085 22.7761 52.9058 22.7267 52.9552 22.628C53.9889 21.5983 54.2357 20.027 53.5954 18.7025C52.9058 17.2793 51.4786 16.4443 49.954 16.6404L41.8336 17.4754C41.8336 18.1623 41.7843 18.7999 41.6869 19.4868L50.1995 18.6038C51.0358 18.5065 51.6267 19.0453 51.8734 19.5855C51.9708 19.831 52.2669 20.6166 51.6267 21.3035C51.5773 21.3529 51.528 21.4009 51.4786 21.4503C51.4306 21.4996 51.3813 21.4996 51.3813 21.549L40.1116 34.1124C39.9636 34.3098 39.8662 34.5059 39.8662 34.7513V45.6955C39.8662 45.8422 39.9142 45.9903 39.9636 46.137H22.4942C22.5929 45.9903 22.5929 45.8422 22.5929 45.6955V34.5552C22.5929 34.3098 22.4942 34.1124 22.3462 33.9163L11.7168 21.4996C11.6688 21.4503 11.6194 21.4009 11.5701 21.3529C11.5207 21.3035 11.4714 21.2542 11.422 21.2048C10.7338 20.5179 11.0285 19.7323 11.1766 19.5362C11.422 19.0453 12.0129 18.5065 12.8492 18.5545L21.3631 19.4388C21.2151 18.7999 21.1657 18.1623 21.1657 17.4754L12.9973 16.6404C11.4714 16.4937 10.0442 17.2793 9.35591 18.7025C8.71566 20.027 8.96109 21.5983 9.99482 22.628C10.0935 22.7267 10.1429 22.7761 10.2416 22.8735L20.6242 34.9474V45.6955C20.6242 45.8422 20.6736 46.0396 20.7229 46.137H0.990051C0.448512 46.137 0.00567627 46.5785 0.00567627 47.1187C0.00567627 47.6589 0.448512 48.1004 0.990051 48.1004H62.0106C62.5522 48.1004 62.995 47.6589 62.995 47.1187C62.995 46.5785 62.5522 46.137 62.0106 46.137ZM60.0419 40.2481V43.1919H59.0575V40.2481H60.0419ZM51.1838 46.137V37.303H57.0888V46.137H51.1838Z" fill="white"/>
</g>
<path d="M18.8042 21.3529C18.0172 21.3035 17.2783 21.745 16.9835 22.4813C16.6887 23.1682 16.8354 23.9539 17.377 24.4941C17.4757 24.5914 17.525 24.6408 17.6237 24.6901L24.6117 29.2545C24.7585 29.3519 24.9559 29.4013 25.1519 29.4013H27.3675L30.418 34.8487C30.418 35.1928 30.6154 35.4876 30.9101 35.6837C31.0582 35.781 31.2049 35.8304 31.4023 35.8304H31.4517H31.501C31.6478 35.8304 31.8452 35.781 31.9932 35.6837C32.288 35.5356 32.4854 35.1928 32.4854 34.8487L35.5359 29.4506H37.8981C38.0942 29.4506 38.2916 29.4013 38.4397 29.3026L45.0329 24.8369C45.5744 24.4941 45.8212 23.8552 45.6731 23.2176C45.525 22.58 44.9848 22.1372 44.2952 22.0891L40.8499 21.9904C40.5552 22.6774 40.1617 23.3149 39.6695 23.9045L42.672 24.0032L37.5047 27.4379H25.4481L19.247 23.3643L23.3313 23.9045C22.8391 23.2176 22.3962 22.5307 22.0521 21.745L18.9029 21.3529C18.8535 21.3529 18.8535 21.3529 18.8042 21.3529ZM31.4517 32.7385L29.631 29.4506H33.3217L31.4517 32.7385Z" fill="white"/>
<path d="M31.5 26.0147C36.1258 26.0147 39.8659 22.2853 39.8659 17.6715C39.8659 13.0578 36.1258 9.32837 31.5 9.32837C26.8742 9.32837 23.1342 13.0578 23.1342 17.6715C23.1342 22.2853 26.8742 26.0147 31.5 26.0147ZM31.5 11.2918C35.0427 11.2918 37.8971 14.1382 37.8971 17.6715C37.8971 21.2049 35.0427 24.0513 31.5 24.0513C27.956 24.0513 25.1029 21.2049 25.1029 17.6715C25.1029 14.1382 27.956 11.2918 31.5 11.2918Z" fill="white"/>
<path d="M31.4991 21.8916C32.5315 21.8916 33.5159 21.4008 34.2055 20.5671C34.5496 20.1256 34.5003 19.536 34.0574 19.1932C33.664 18.8491 33.0237 18.8985 32.6796 19.34C31.9913 20.1256 30.9082 20.1256 30.268 19.34C29.9239 18.8985 29.2836 18.8491 28.8901 19.1932C28.4473 19.536 28.3979 20.175 28.7434 20.5671C29.481 21.4008 30.4654 21.8916 31.4991 21.8916Z" fill="white"/>
<path d="M51.332 34.0151C51.528 34.2112 51.7748 34.3099 52.0202 34.3099C52.267 34.3099 52.5124 34.2112 52.7098 34.0151C54.2357 32.5425 53.4474 31.0206 53.054 30.2363C52.6605 29.4013 52.6605 29.4013 52.9059 29.1559C53.3007 28.7638 53.3007 28.1742 52.9553 27.7821C52.5618 27.3886 51.9709 27.3886 51.5774 27.7327C50.2489 29.0092 50.9385 30.3831 51.332 31.1193C51.7748 32.0023 51.8242 32.1504 51.3813 32.5919C50.9878 33.0334 50.9878 33.6216 51.332 34.0151Z" fill="white"/>
<path d="M55.2683 34.0644C55.4657 34.2605 55.7112 34.3579 55.9579 34.3579C56.2034 34.3579 56.4501 34.2605 56.6462 34.0644C58.1721 32.5919 57.3851 31.0699 56.9423 30.2843C56.4995 29.4507 56.5488 29.4507 56.7942 29.2052C57.1877 28.8131 57.1877 28.2235 56.8436 27.8314C56.4501 27.4379 55.8592 27.4379 55.4657 27.782C54.1372 29.0585 54.8748 30.4324 55.2683 31.1686C55.7112 32.0517 55.7605 32.1984 55.3177 32.6412C54.8748 33.0334 54.8748 33.6709 55.2683 34.0644Z" fill="white"/>
</svg>
