<svg width="61" height="63" viewBox="0 0 61 63" fill="none" xmlns="http://www.w3.org/2000/svg">
<path d="M45.6988 52.7672C45.4227 52.7654 45.1484 52.7493 44.874 52.7188C44.7001 52.7009 44.537 52.6471 44.3863 52.5575L36.3607 47.8077C36.2245 47.7252 36.1097 47.6195 36.0147 47.4904C35.9197 47.3631 35.8533 47.2214 35.8157 47.0654C35.7762 46.9112 35.769 46.7552 35.7924 46.5974C35.8139 46.4414 35.8659 46.2926 35.9483 46.1563C36.029 46.0183 36.133 45.9017 36.2603 45.8067C36.3876 45.7099 36.5275 45.6417 36.6817 45.6023C36.8359 45.5611 36.9919 45.5503 37.1497 45.5718C37.3093 45.5933 37.4563 45.6435 37.5943 45.7224L45.3869 50.3323C46.0825 50.3789 46.5828 50.2767 46.7513 50.0526C46.9916 49.7245 46.8589 48.8925 46.6527 48.2918C45.7706 47.632 42.8623 45.4714 39.7406 43.3341C33.5027 39.0577 31.6361 38.4176 31.152 38.3298C29.9865 38.9914 28.9197 39.0434 28.1738 38.9448C27.5713 40.0116 26.214 41.7294 23.5496 42.2691C23.1927 42.3426 22.8323 42.3928 22.4701 42.4215C22.1904 42.4394 21.9125 42.4233 21.6382 42.3695C21.3638 42.3157 21.1003 42.226 20.8492 42.1023C20.5982 41.9786 20.3669 41.8226 20.1571 41.6379C19.9456 41.4532 19.7645 41.2434 19.6103 41.0104C19.4543 40.7773 19.3341 40.5262 19.2463 40.2609C19.1584 39.9955 19.1064 39.723 19.0903 39.4432C19.0759 39.1635 19.0975 38.8874 19.1548 38.6131C19.2122 38.3387 19.3054 38.077 19.4328 37.8277L21.2096 34.3654C21.631 33.5406 22.2406 32.8951 23.0403 32.4289C26.2839 30.5355 30.9225 29.994 33.4022 29.8398C34.5856 29.7645 35.7368 29.9223 36.8538 30.3131C41.9909 32.1187 44.1999 30.9461 44.2214 30.9353L44.1963 30.9497L45.4783 33.0063C45.1735 33.1963 42.3172 34.8029 36.047 32.5993C35.2383 32.316 34.4063 32.2012 33.5511 32.2568C31.2883 32.3984 27.0729 32.879 24.2614 34.5196C23.8705 34.7491 23.5729 35.0647 23.3667 35.4681L21.5916 38.9322C21.5306 39.0506 21.5037 39.1761 21.5109 39.3088C21.518 39.4415 21.5575 39.5634 21.631 39.6728C21.7045 39.7839 21.8013 39.87 21.9197 39.9292C22.0398 39.9865 22.1653 40.0116 22.298 40.0027C22.5562 39.9829 22.8126 39.9471 23.0654 39.8933C24.7832 39.5454 25.6689 38.4911 26.11 37.6681C26.2176 37.4637 26.3556 37.2809 26.5224 37.1213C26.6891 36.9599 26.8756 36.829 27.0836 36.7268C27.2916 36.6246 27.5086 36.5583 27.7381 36.5242C27.9676 36.4901 28.1953 36.4937 28.423 36.5314C28.9699 36.6228 29.5239 36.4955 30.0726 36.153C30.9548 35.6026 32.2063 35.9038 34.6914 37.2701C36.2012 38.1039 38.1663 39.3357 40.5277 40.9386C44.519 43.6479 48.3454 46.5329 48.383 46.5616C48.548 46.6853 48.6717 46.8413 48.7577 47.0296C48.8815 47.3075 49.9411 49.7818 48.7111 51.4745C48.0872 52.3333 47.0759 52.7672 45.6988 52.7672Z" fill="white"/>
<path d="M42.1293 56.5557C41.7886 56.5557 41.4497 56.5342 41.1127 56.4912C40.9549 56.4732 40.8078 56.4248 40.668 56.3477L33.9226 52.6146C33.7828 52.5357 33.6626 52.4335 33.5622 52.308C33.4618 52.1825 33.3901 52.0426 33.3453 51.8884C33.3004 51.7342 33.2879 51.5765 33.3058 51.4169C33.3237 51.2573 33.3722 51.1067 33.4493 50.9668C33.5281 50.8252 33.6303 50.705 33.7559 50.6064C33.8814 50.506 34.0212 50.4325 34.1754 50.3895C34.3314 50.3446 34.4874 50.3321 34.6488 50.35C34.8084 50.368 34.9572 50.4164 35.0988 50.4935L41.629 54.1082C42.5883 54.1925 43.2858 54.0419 43.5996 53.6779C44.0478 53.1669 43.9134 52.1431 43.8273 51.8257L44.9999 51.5137L46.169 51.1945C46.2371 51.4456 46.7966 53.6833 45.4374 55.2558C44.6951 56.1218 43.5835 56.5557 42.1293 56.5557Z" fill="white"/>
<path d="M38.3008 60.1471C38.1071 60.1471 37.9242 60.1023 37.7503 60.0145L31.5966 56.8767C31.4532 56.8031 31.3295 56.7063 31.2255 56.5844C31.1215 56.4625 31.0444 56.3244 30.9942 56.172C30.9458 56.0178 30.926 55.8618 30.9404 55.7022C30.9529 55.5409 30.996 55.3902 31.0677 55.2468C31.1412 55.1034 31.2398 54.9796 31.3617 54.8756C31.4837 54.7716 31.6217 54.6945 31.7741 54.6443C31.9283 54.5959 32.0843 54.578 32.2457 54.5905C32.4053 54.6031 32.5577 54.6461 32.7011 54.7196L38.5697 57.7122C39.3605 57.6602 39.9073 57.4594 40.1225 57.1384C40.4076 56.7153 40.2175 55.9658 40.1297 55.7381V55.747L42.3745 54.8308C42.4606 55.0388 43.176 56.9071 42.1486 58.4653C41.4368 59.5465 40.1476 60.1113 38.3205 60.1471H38.3008Z" fill="white"/>
<path d="M11.31 49.554C11.1163 49.5557 10.9316 49.5109 10.7577 49.4231C10.5838 49.3352 10.4403 49.2133 10.3256 49.0555L7.50516 45.1879C7.36172 44.9907 7.28461 44.7719 7.27386 44.5281C7.2631 44.2842 7.32048 44.0583 7.44599 43.8503L15.737 30.0691C15.8445 29.8826 15.9916 29.7338 16.1798 29.6262C16.3663 29.5186 16.5689 29.4631 16.7841 29.4631C16.9957 29.4613 17.1947 29.5133 17.3794 29.6191C17.5623 29.7248 17.7075 29.8701 17.8133 30.053C17.9352 30.2323 19.4037 32.2154 23.8361 32.1293C23.9974 32.1275 24.1516 32.1544 24.3023 32.2136C24.4511 32.2727 24.5838 32.357 24.7003 32.4682C24.8151 32.5793 24.9065 32.7102 24.9693 32.8573C25.0338 33.0043 25.0679 33.1567 25.0715 33.3181C25.0751 33.4777 25.0464 33.6336 24.9872 33.7825C24.9298 33.9331 24.8438 34.0658 24.7326 34.1805C24.6214 34.2971 24.4923 34.3867 24.3453 34.4513C24.1983 34.5158 24.0441 34.5499 23.8845 34.5535C20.3809 34.6216 18.2275 33.5691 17.0243 32.6421L9.94188 44.4098L12.2925 47.63C12.427 47.8129 12.5023 48.0191 12.5203 48.2468C12.5382 48.4728 12.497 48.6879 12.393 48.8923C12.289 49.0949 12.1401 49.2563 11.9465 49.3746C11.7528 49.4948 11.5413 49.554 11.3136 49.554H11.31Z" fill="white"/>
<mask id="mask0_135_3" style="mask-type:luminance" maskUnits="userSpaceOnUse" x="26" y="57" width="14" height="6">
<path d="M26.4984 57.5437H39.8099V62.9999H26.4984V57.5437Z" fill="white"/>
</mask>
<g mask="url(#mask0_135_3)">
<path d="M34.7742 62.9997C34.6559 62.9997 34.5339 62.9943 34.412 62.9853C34.0624 62.9566 33.7504 62.9351 33.4671 62.9154C31.5593 62.7809 30.6897 62.72 27.4838 61.5025C27.3331 61.4451 27.1987 61.3609 27.0821 61.2497C26.9656 61.1403 26.8741 61.0112 26.8078 60.8642C26.7414 60.7172 26.7074 60.5647 26.702 60.4034C26.6984 60.242 26.7253 60.0878 26.7827 59.9372C26.8401 59.7866 26.9225 59.6539 27.0337 59.5355C27.1449 59.419 27.274 59.3276 27.4192 59.263C27.5662 59.1967 27.7204 59.1608 27.8818 59.1572C28.0432 59.1518 28.1974 59.1787 28.348 59.2361C31.2204 60.3281 31.8301 60.3729 33.641 60.4984C33.9333 60.5199 34.2506 60.5414 34.611 60.5701C36.2983 60.7046 37.1625 58.5315 37.1697 58.5099C37.2271 58.3593 37.3096 58.2248 37.4189 58.1083C37.5301 57.99 37.6574 57.8985 37.8044 57.8322C37.9515 57.7658 38.1039 57.73 38.2652 57.7246C38.4266 57.7192 38.5826 57.7443 38.7332 57.7999C38.8838 57.8573 39.0183 57.9398 39.1349 58.0491C39.2532 58.1585 39.3446 58.2876 39.411 58.4346C39.4791 58.5799 39.515 58.7341 39.5204 58.8936C39.5257 59.055 39.5006 59.211 39.4433 59.3616C39.1707 60.0358 38.8014 60.6544 38.3352 61.2138C37.3436 62.3865 36.1226 62.9997 34.7742 62.9997Z" fill="white"/>
</g>
<path d="M47.7437 48.9514C47.6092 48.9532 47.4783 48.9316 47.351 48.8886C47.2255 48.8456 47.1089 48.7828 47.0013 48.7003C46.8956 48.6196 46.8059 48.5228 46.7306 48.4117C46.6571 48.2987 46.6015 48.1786 46.5674 48.0495C46.5334 47.9204 46.5208 47.7877 46.5316 47.655C46.5405 47.5205 46.571 47.3914 46.6248 47.2677C46.6768 47.1458 46.7467 47.0328 46.8364 46.9342C46.926 46.8338 47.0282 46.7513 47.1448 46.685C47.8907 46.2654 49.7895 45.0354 50.7542 43.8215L43.8115 32.6294L43.7972 32.6043C43.7129 32.4662 43.6591 32.3192 43.634 32.1596C43.6107 32.0001 43.6179 31.8423 43.6556 31.6863C43.695 31.5303 43.7613 31.3868 43.8564 31.2577C43.9532 31.1269 44.0697 31.0211 44.2078 30.9386C44.3459 30.8543 44.4929 30.8005 44.6525 30.7772C44.8121 30.7521 44.9698 30.7593 45.1258 30.7987C45.2836 30.8364 45.4253 30.9027 45.5562 30.9996C45.6853 31.0946 45.7928 31.2111 45.8753 31.3492V31.3546L53.2214 43.1993C53.3343 43.384 53.3953 43.583 53.4025 43.7982C53.4096 44.0134 53.363 44.216 53.2608 44.406C52.072 46.6455 48.7137 48.5802 48.3354 48.7936C48.1507 48.8976 47.9552 48.9514 47.7437 48.9514Z" fill="white"/>
<path d="M21.4523 59.7707C20.6544 59.7725 19.9264 59.5483 19.2684 59.0965C18.8542 58.8168 18.5099 58.4635 18.2392 58.0422C17.9684 57.619 17.7927 57.1618 17.7102 56.6669C17.6296 56.1792 17.6457 55.6969 17.7622 55.2182C17.8788 54.7376 18.0868 54.3019 18.3826 53.9057L20.8696 50.5635C22.0816 48.9318 24.4466 48.5481 26.1393 49.7118C26.5535 49.9933 26.8977 50.3447 27.1685 50.7661C27.4392 51.1892 27.6149 51.6482 27.6974 52.1431C27.7781 52.629 27.762 53.1114 27.6436 53.5919C27.5271 54.0706 27.3209 54.5081 27.0232 54.9026L24.5381 58.2448C24.1741 58.7289 23.7187 59.1054 23.1754 59.3726C22.6321 59.6416 22.0583 59.7742 21.4523 59.7707ZM23.9446 51.4546C23.7241 51.4528 23.5125 51.5012 23.3152 51.598C23.1162 51.6949 22.9495 51.8329 22.8168 52.0086L20.3299 55.3526C20.1219 55.6252 20.0466 55.9318 20.1021 56.2707C20.1631 56.6257 20.3442 56.9036 20.6436 57.1026C21.273 57.5365 22.1462 57.4003 22.5909 56.8014L25.076 53.4592C25.284 53.1849 25.3593 52.8801 25.3037 52.5412C25.2428 52.1861 25.0617 51.9082 24.7622 51.7074C24.5166 51.5389 24.2422 51.4546 23.9446 51.4546Z" fill="white"/>
<mask id="mask1_135_3" style="mask-type:luminance" maskUnits="userSpaceOnUse" x="21" y="53" width="11" height="10">
<path d="M21.4481 53.4127H31.0874V63H21.4481V53.4127Z" fill="white"/>
</mask>
<g mask="url(#mask1_135_3)">
<path d="M25.6581 62.6647C24.8602 62.6665 24.134 62.4424 23.4759 61.9906C23.06 61.7109 22.7175 61.3576 22.4467 60.9363C22.176 60.5131 22.0003 60.0559 21.9178 59.561C21.8353 59.0751 21.8515 58.591 21.968 58.1122C22.0846 57.6317 22.2908 57.196 22.5884 56.8015L23.9134 55.0175C25.1291 53.384 27.4941 53.0057 29.1814 54.1658C29.5973 54.4473 29.9398 54.7987 30.2106 55.2219C30.4813 55.6432 30.6588 56.1023 30.7395 56.5971C30.822 57.083 30.8041 57.5654 30.6875 58.0459C30.571 58.5246 30.3648 58.9621 30.0671 59.3566L28.7421 61.1389C28.3781 61.6212 27.9245 61.9977 27.3812 62.2667C26.8379 62.5356 26.2641 62.6683 25.6581 62.6647ZM26.9903 55.9086C26.7697 55.9068 26.56 55.9552 26.3609 56.0521C26.1619 56.1489 25.9952 56.2869 25.8625 56.4627L24.5374 58.2449C24.3294 58.5193 24.2541 58.8259 24.3097 59.1648C24.3707 59.5198 24.55 59.7959 24.8512 59.9967C25.4788 60.4288 26.3538 60.2944 26.7984 59.6937L28.1217 57.9114C28.3279 57.6371 28.4032 57.3323 28.3476 56.9934C28.2866 56.6384 28.1055 56.3605 27.8079 56.1596C27.5605 55.9929 27.2879 55.9086 26.9903 55.9086Z" fill="white"/>
</g>
<path d="M17.2423 56.8765C16.4462 56.8783 15.7182 56.6542 15.0602 56.2042C14.6442 55.9227 14.3017 55.5712 14.031 55.1481C13.7602 54.7267 13.5827 54.2677 13.502 53.7728C13.4196 53.2869 13.4375 52.8028 13.554 52.324C13.6724 51.8453 13.8786 51.4078 14.1762 51.0133L18.1442 45.6737C19.3581 44.0402 21.7231 43.6583 23.4157 44.822L23.6183 44.9619C24.0056 45.2236 24.3266 45.5536 24.5794 45.948C24.834 46.3425 24.999 46.771 25.0761 47.2336C25.1514 47.6891 25.1352 48.1409 25.0258 48.5892C24.9165 49.0374 24.7228 49.4462 24.4449 49.8156L20.3299 55.3525C19.9641 55.8348 19.5105 56.2113 18.9672 56.4803C18.4239 56.7492 17.8484 56.8801 17.2423 56.8765ZM21.2192 46.5684C20.9969 46.5648 20.7871 46.6132 20.5881 46.7101C20.3891 46.8069 20.2223 46.9432 20.0878 47.1189L16.1181 52.4585C15.9101 52.7311 15.8348 53.0377 15.8904 53.3766C15.9513 53.7316 16.1324 54.0095 16.4319 54.2085C17.0612 54.6424 17.9344 54.5062 18.3791 53.9055L22.4941 48.3722C22.6608 48.1517 22.7236 47.9042 22.6788 47.6317C22.6268 47.3448 22.4815 47.1189 22.2377 46.9575L22.0351 46.8177C21.7894 46.6509 21.5169 46.5666 21.2192 46.5684Z" fill="white"/>
<path d="M13.0334 53.9827C12.2355 53.9845 11.5075 53.7604 10.8512 53.3103C10.4353 53.0288 10.0928 52.6774 9.82204 52.2542C9.55129 51.8329 9.37378 51.3739 9.29309 50.879C9.21062 50.3931 9.22855 49.9089 9.34509 49.4302C9.46164 48.9515 9.66963 48.514 9.96548 48.1195L13.2073 43.7607C14.4194 42.1272 16.7844 41.7453 18.477 42.9072C18.8912 43.1887 19.2354 43.5419 19.5062 43.9633C19.7769 44.3864 19.9527 44.8436 20.0351 45.3385C20.1158 45.8244 20.0979 46.3085 19.9813 46.7873C19.8648 47.2678 19.6586 47.7035 19.361 48.098L16.1209 52.4586C15.7552 52.941 15.3015 53.3175 14.7582 53.5865C14.215 53.8536 13.6394 53.9863 13.0334 53.9827ZM16.2823 44.6518C16.06 44.6482 15.8502 44.6966 15.6512 44.7952C15.4539 44.8921 15.2872 45.0283 15.1527 45.2058L11.9127 49.5647C11.7047 49.8372 11.6294 50.1438 11.685 50.4827C11.746 50.8377 11.9253 51.1157 12.2265 51.3147C12.8541 51.7468 13.729 51.6123 14.1737 51.0117L17.4137 46.6528C17.6217 46.3803 17.697 46.0737 17.6414 45.7348C17.5805 45.3798 17.4012 45.1018 17.0999 44.901C16.8543 44.7325 16.5818 44.65 16.2823 44.6518Z" fill="white"/>
<path d="M56.4248 49.0519C56.0573 49.0519 55.6951 49.0053 55.3383 48.9121C54.9815 48.8206 54.6426 48.6843 54.3216 48.505C54.0007 48.3257 53.7066 48.1088 53.4412 47.8542C53.1759 47.5996 52.9464 47.3163 52.7545 47.0025L42.1523 29.9239C41.9999 29.6764 41.8726 29.4182 41.7722 29.1457C41.6718 28.875 41.5983 28.5952 41.5535 28.3084C41.5104 28.0233 41.4943 27.7346 41.5068 27.4459C41.5212 27.1554 41.5624 26.8704 41.6341 26.5888C41.7059 26.3073 41.8027 26.0366 41.9282 25.7748C42.0537 25.5148 42.2043 25.2674 42.38 25.0379C42.5558 24.8066 42.7512 24.595 42.97 24.4031C43.1869 24.2113 43.4218 24.0427 43.6728 23.8993L43.6943 23.8868C43.9364 23.7469 44.1874 23.6321 44.451 23.5407C44.7128 23.451 44.9817 23.3865 45.2579 23.3471C45.534 23.3094 45.8101 23.2968 46.088 23.3112C46.3659 23.3273 46.6403 23.3686 46.9092 23.4367C47.18 23.503 47.44 23.5963 47.691 23.7146C47.9438 23.833 48.1805 23.9746 48.4064 24.1396C48.6305 24.3045 48.8367 24.4892 49.025 24.6936C49.2133 24.898 49.38 25.1186 49.5271 25.3552L60.131 42.4338C60.2834 42.6813 60.4107 42.9395 60.5112 43.212C60.6134 43.4828 60.6851 43.7625 60.7299 44.0494C60.7747 44.3363 60.7909 44.6231 60.7765 44.9136C60.764 45.2041 60.7209 45.4892 60.651 45.7707C60.5793 46.0522 60.4807 46.3229 60.3552 46.5847C60.2297 46.8465 60.079 47.0921 59.9051 47.3234C59.7294 47.5547 59.5322 47.7663 59.3152 47.9582C59.0965 48.1482 58.8616 48.3168 58.6105 48.462L58.5872 48.4746C57.9184 48.8601 57.1976 49.0519 56.4248 49.0519ZM45.8567 25.7318C45.5178 25.7318 45.2005 25.8161 44.9064 25.9864L44.8849 25.9989C44.7737 26.0635 44.6697 26.137 44.5747 26.2213C44.4797 26.3056 44.3936 26.3988 44.3165 26.4992C44.2394 26.6014 44.1731 26.709 44.1175 26.8237C44.0619 26.9385 44.0189 27.0586 43.9884 27.1805C43.9579 27.3043 43.9382 27.4298 43.9328 27.5571C43.9274 27.6844 43.9328 27.8117 43.9525 27.9372C43.9723 28.0627 44.0045 28.1846 44.0494 28.3048C44.0924 28.4231 44.148 28.5379 44.2161 28.6455L54.8183 45.7241C54.9474 45.9338 55.1106 46.1113 55.3096 46.2566C55.5086 46.4036 55.7274 46.5058 55.9658 46.5668C56.2043 46.6259 56.4464 46.6385 56.6902 46.6062C56.9341 46.5722 57.1636 46.4933 57.3769 46.3695L57.3985 46.357C57.5096 46.2942 57.6118 46.2207 57.7087 46.1365C57.8037 46.0522 57.8897 45.9589 57.9668 45.8567C58.0439 45.7563 58.1103 45.647 58.1641 45.5322C58.2197 45.4174 58.2627 45.2991 58.295 45.1754C58.3255 45.0517 58.3434 44.9262 58.3506 44.8006C58.3559 44.6733 58.3488 44.546 58.329 44.4205C58.3093 44.295 58.277 44.1713 58.234 44.053C58.1892 43.9328 58.1336 43.8199 58.0673 43.7123L47.4651 26.6319C47.2929 26.3522 47.0634 26.1334 46.7783 25.9738C46.4915 25.8125 46.1849 25.7318 45.8567 25.7318Z" fill="white"/>
<mask id="mask2_135_3" style="mask-type:luminance" maskUnits="userSpaceOnUse" x="0" y="23" width="20" height="27">
<path d="M0 23.5765H19.1531V49.7404H0V23.5765Z" fill="white"/>
</mask>
<g mask="url(#mask2_135_3)">
<path d="M4.49369 49.4144C3.74421 49.4144 3.04134 49.2315 2.38509 48.8639C2.13228 48.724 1.8956 48.5591 1.67505 48.3708C1.45451 48.1826 1.25548 47.9746 1.07618 47.7451C0.898671 47.5173 0.744471 47.2735 0.615372 47.0135C0.486274 46.7553 0.384072 46.4846 0.308764 46.2048C0.233457 45.9251 0.186839 45.6418 0.168908 45.3514C0.150978 45.0627 0.163529 44.774 0.202976 44.4871C0.244216 44.2002 0.312351 43.9205 0.409174 43.648C0.505998 43.3736 0.627924 43.1137 0.778538 42.8644L11.0992 25.6764C11.2444 25.4326 11.413 25.2067 11.6031 24.9951C11.7949 24.7853 12.0029 24.5953 12.2324 24.4267C12.4601 24.2582 12.7022 24.1129 12.9586 23.991C13.2168 23.8709 13.4821 23.7758 13.7583 23.7059C14.0326 23.6378 14.3123 23.5965 14.5974 23.5822C14.8807 23.5678 15.1622 23.5822 15.4437 23.6234C15.7252 23.6647 15.9996 23.7346 16.2667 23.8296C16.5339 23.9247 16.7885 24.0466 17.0323 24.1918C17.2762 24.3388 17.5039 24.5056 17.7137 24.6975C17.9235 24.8875 18.1135 25.0973 18.2821 25.325C18.4524 25.5527 18.5977 25.7948 18.7178 26.0512C18.8397 26.3076 18.9348 26.5748 19.0047 26.8491C19.0728 27.1252 19.1141 27.4049 19.1284 27.6882C19.1409 27.9715 19.1284 28.253 19.0854 28.5345C19.0441 28.8142 18.9742 29.0886 18.8792 29.3557C18.7841 29.6229 18.6622 29.8775 18.517 30.1214L8.1963 47.3111C8.00445 47.6321 7.77673 47.9226 7.50957 48.1826C7.24241 48.4443 6.94835 48.6667 6.62381 48.8514C6.29927 49.036 5.95681 49.1759 5.59641 49.2709C5.23422 49.3677 4.86844 49.4144 4.49369 49.4144ZM3.56491 46.7463C3.78007 46.8665 4.00958 46.9418 4.25522 46.9723C4.49907 47.0027 4.74113 46.9866 4.97961 46.9238C5.21808 46.8593 5.43503 46.7535 5.63227 46.6047C5.82771 46.4559 5.99087 46.2766 6.11639 46.065L16.4371 28.877C16.5016 28.7694 16.5554 28.6583 16.5966 28.5399C16.6397 28.4234 16.6684 28.3014 16.6881 28.1795C16.706 28.0558 16.7114 27.9321 16.706 27.8066C16.7006 27.6828 16.6809 27.5591 16.6522 27.439C16.6217 27.3189 16.5787 27.2005 16.5267 27.0876C16.4729 26.9764 16.4084 26.8688 16.3349 26.7684C16.2596 26.6698 16.1771 26.5765 16.0838 26.4941C15.9924 26.4098 15.892 26.3363 15.7844 26.2717C15.6786 26.2072 15.5656 26.1534 15.4491 26.1122C15.3308 26.0709 15.2106 26.0404 15.0869 26.0225C14.9632 26.0028 14.8395 25.9974 14.714 26.0028C14.5902 26.01 14.4665 26.0279 14.3464 26.0584C14.2245 26.0888 14.1079 26.1301 13.995 26.1839C13.882 26.2377 13.7762 26.3004 13.6758 26.3757C13.5754 26.4492 13.4839 26.5335 13.3997 26.625C13.3154 26.7182 13.2419 26.8168 13.1773 26.9244L2.85666 44.1124C2.79032 44.2217 2.73653 44.3365 2.69529 44.4566C2.65225 44.5768 2.62177 44.7005 2.60384 44.826C2.58591 44.9515 2.58233 45.0788 2.5895 45.2061C2.59667 45.3316 2.61819 45.4571 2.65046 45.5809C2.68274 45.7028 2.72756 45.8211 2.78494 45.9359C2.84231 46.0488 2.90866 46.1564 2.98755 46.2568C3.06644 46.3572 3.1543 46.4487 3.25113 46.5312C3.34795 46.6136 3.45194 46.6872 3.56311 46.7481L3.56491 46.7463Z" fill="white"/>
</g>
<mask id="mask3_135_3" style="mask-type:luminance" maskUnits="userSpaceOnUse" x="7" y="0" width="47" height="33">
<path d="M7.67641 0H53.578V32.7569H7.67641V0Z" fill="white"/>
</mask>
<g mask="url(#mask3_135_3)">
<path d="M51.9131 32.712C51.7518 32.712 51.5975 32.6815 51.4487 32.6188C51.2999 32.5578 51.169 32.47 51.0543 32.357C50.9413 32.2423 50.8534 32.1114 50.7925 31.9643C50.7315 31.8155 50.6992 31.6613 50.6992 31.4999V4.61884C50.6992 4.4754 50.6849 4.33196 50.6562 4.19031C50.6293 4.05045 50.5863 3.91239 50.5307 3.77971C50.4769 3.64702 50.4088 3.51972 50.3281 3.39958C50.2474 3.27945 50.156 3.17008 50.0555 3.06787C49.9533 2.96567 49.8422 2.87423 49.722 2.79533C49.6019 2.71465 49.4764 2.64651 49.3419 2.59093C49.2092 2.53534 49.0712 2.4941 48.9313 2.46542C48.7897 2.43852 48.6462 2.42418 48.5028 2.42238H12.4414C12.2961 2.42418 12.1527 2.43852 12.0128 2.46542C11.8712 2.4941 11.7331 2.53534 11.6004 2.59093C11.4678 2.64651 11.3405 2.71465 11.2203 2.79533C11.1002 2.87423 10.989 2.96567 10.8886 3.06787C10.7864 3.17008 10.695 3.27945 10.6143 3.39958C10.5336 3.51972 10.4673 3.64702 10.4117 3.77971C10.3561 3.91239 10.3148 4.05045 10.2862 4.19031C10.2575 4.33196 10.2431 4.4754 10.2431 4.61884V31.4784C10.2431 31.638 10.2126 31.794 10.1499 31.941C10.0889 32.0898 10.0011 32.2207 9.8881 32.3355C9.77335 32.4485 9.64246 32.5363 9.49364 32.5973C9.34481 32.6582 9.19061 32.6887 9.02924 32.6887C8.86966 32.6887 8.71367 32.6582 8.56664 32.5973C8.41782 32.5363 8.28693 32.4485 8.17217 32.3355C8.05921 32.2207 7.97135 32.0898 7.91039 31.941C7.84764 31.794 7.81715 31.638 7.81715 31.4784V4.61884C7.81715 4.31582 7.84764 4.01639 7.90681 3.71874C7.96777 3.4211 8.05563 3.13242 8.17038 2.85271C8.28693 2.573 8.43037 2.30584 8.59891 2.05481C8.76746 1.80199 8.95931 1.5689 9.17448 1.35553C9.38785 1.14037 9.62094 0.948512 9.87376 0.779968C10.1266 0.611423 10.3919 0.469774 10.6717 0.353227C10.9532 0.23668 11.2418 0.148822 11.5395 0.0896515C11.8371 0.0304816 12.1366 0 12.4414 0H48.4992C48.8022 0 49.1034 0.0304816 49.4011 0.0896515C49.6987 0.148822 49.9874 0.23668 50.2671 0.353227C50.5486 0.469774 50.814 0.611423 51.0668 0.779968C51.3178 0.948512 51.5527 1.14037 51.7661 1.35553C51.9813 1.5689 52.1731 1.80199 52.3417 2.05481C52.5102 2.30584 52.6519 2.573 52.7684 2.85271C52.8849 3.13242 52.9728 3.4211 53.0338 3.71874C53.0929 4.01639 53.1234 4.31582 53.1234 4.61884V31.4999C53.1234 31.6595 53.0929 31.8155 53.0302 31.9625C52.9692 32.1114 52.8814 32.2423 52.7684 32.3552C52.6554 32.47 52.5245 32.5578 52.3757 32.6188C52.2269 32.6798 52.0727 32.712 51.9131 32.712Z" fill="white"/>
</g>
<path d="M9.02833 44.79C8.86695 44.79 8.71275 44.7595 8.56393 44.6985C8.41511 44.6375 8.28422 44.5497 8.17126 44.4349C8.0565 44.322 7.97044 44.1911 7.90768 44.0423C7.84672 43.8934 7.81624 43.7392 7.81624 43.5797V43.5671C7.81624 43.4075 7.84672 43.2533 7.90768 43.1045C7.97044 42.9557 8.0565 42.8248 8.17126 42.7118C8.28422 42.5971 8.41511 42.5092 8.56393 42.4483C8.71275 42.3873 8.86695 42.3568 9.02833 42.3568C9.1897 42.3568 9.3439 42.3873 9.49272 42.4483C9.64154 42.5092 9.77243 42.5971 9.88539 42.7118C10.0001 42.8248 10.088 42.9557 10.149 43.1045C10.2099 43.2533 10.2404 43.4075 10.2404 43.5671V43.5797C10.2404 43.7392 10.2099 43.8934 10.149 44.0423C10.088 44.1911 10.0001 44.322 9.88539 44.4349C9.77243 44.5497 9.64154 44.6375 9.49272 44.6985C9.3439 44.7595 9.1897 44.79 9.02833 44.79Z" fill="white"/>
<path d="M51.9142 44.5999C51.7529 44.5999 51.5987 44.5694 51.4498 44.5067C51.301 44.4457 51.1701 44.3578 51.0554 44.2449C50.9424 44.1319 50.8545 44.001 50.7936 43.8522C50.7326 43.7034 50.7003 43.5492 50.7003 43.3878V43.3448C50.7003 43.1834 50.7326 43.0292 50.7936 42.8804C50.8545 42.7316 50.9424 42.6007 51.0554 42.4877C51.1701 42.3747 51.301 42.2869 51.4498 42.2241C51.5987 42.1632 51.7529 42.1327 51.9142 42.1327C52.0738 42.1327 52.2298 42.1632 52.3786 42.2241C52.5257 42.2869 52.6583 42.3747 52.7713 42.4877C52.8843 42.6007 52.9721 42.7316 53.0349 42.8804C53.0958 43.0292 53.1263 43.1834 53.1263 43.3448V43.3878C53.1263 43.5492 53.0958 43.7034 53.0349 43.8522C52.9721 44.001 52.8843 44.1319 52.7713 44.2449C52.6583 44.3578 52.5257 44.4457 52.3786 44.5067C52.2298 44.5694 52.0738 44.5999 51.9142 44.5999Z" fill="white"/>
<mask id="mask4_135_3" style="mask-type:luminance" maskUnits="userSpaceOnUse" x="7" y="42" width="47" height="21">
<path d="M7.67641 42.8551H53.578V62.9998H7.67641V42.8551Z" fill="white"/>
</mask>
<g mask="url(#mask4_135_3)">
<path d="M48.4992 63H12.4414C12.1366 63 11.8371 62.9695 11.5395 62.9104C11.2418 62.8512 10.9532 62.7633 10.6717 62.6468C10.3919 62.5302 10.1266 62.3886 9.87376 62.22C9.62094 62.0515 9.38785 61.8596 9.17448 61.6445C8.95931 61.4311 8.76746 61.198 8.59891 60.9452C8.43037 60.6942 8.28693 60.427 8.17038 60.1473C8.05563 59.8676 7.96777 59.5789 7.90681 59.2813C7.84764 58.9836 7.81715 58.6842 7.81715 58.3812V45.2132C7.81715 45.0536 7.84764 44.8994 7.91039 44.7506C7.97135 44.6017 8.05921 44.4708 8.17217 44.3579C8.28693 44.2431 8.41782 44.1553 8.56664 44.0943C8.71367 44.0334 8.86966 44.0029 9.02924 44.0029C9.19061 44.0029 9.34481 44.0334 9.49364 44.0943C9.64246 44.1553 9.77335 44.2431 9.8881 44.3579C10.0011 44.4708 10.0889 44.6017 10.1499 44.7506C10.2126 44.8994 10.2431 45.0536 10.2431 45.2132V58.3812C10.2431 58.5246 10.2575 58.6681 10.2862 58.8097C10.3148 58.9496 10.3561 59.0876 10.4117 59.2203C10.4673 59.353 10.5336 59.4803 10.6143 59.6004C10.695 59.7206 10.7864 59.8299 10.8886 59.9321C10.989 60.0343 11.1002 60.1258 11.2203 60.2047C11.3405 60.2854 11.4678 60.3535 11.6004 60.4091C11.7331 60.4647 11.8712 60.5059 12.0128 60.5346C12.1527 60.5615 12.2961 60.5758 12.4414 60.5776H48.4992C48.6444 60.5758 48.7861 60.5615 48.9277 60.5346C49.0694 60.5059 49.2074 60.4647 49.3401 60.4091C49.4728 60.3535 49.6001 60.2854 49.7202 60.2047C49.8404 60.1258 49.9498 60.0343 50.052 59.9321C50.1542 59.8299 50.2456 59.7206 50.3263 59.6004C50.4052 59.4803 50.4733 59.353 50.5289 59.2203C50.5845 59.0876 50.6257 58.9496 50.6544 58.8097C50.6831 58.6681 50.6974 58.5246 50.6974 58.3812V44.2969C50.6974 44.1356 50.7279 43.9814 50.7907 43.8325C50.8517 43.6855 50.9395 43.5546 51.0525 43.4399C51.1672 43.3269 51.2981 43.239 51.4469 43.1781C51.594 43.1153 51.75 43.0848 51.9095 43.0848C52.0709 43.0848 52.2251 43.1153 52.3739 43.1781C52.5228 43.239 52.6536 43.3269 52.7684 43.4399C52.8814 43.5546 52.9692 43.6855 53.0302 43.8325C53.0929 43.9814 53.1234 44.1356 53.1234 44.2969V58.3812C53.1234 58.6842 53.0929 58.9836 53.0338 59.2813C52.9728 59.5789 52.8849 59.8676 52.7684 60.1473C52.6519 60.427 52.5102 60.6942 52.3417 60.9452C52.1731 61.198 51.9813 61.4311 51.7661 61.6445C51.5527 61.8596 51.3178 62.0515 51.0668 62.22C50.814 62.3886 50.5486 62.5302 50.2671 62.6468C49.9874 62.7633 49.6987 62.8512 49.4011 62.9104C49.1034 62.9695 48.8022 63 48.4992 63Z" fill="white"/>
</g>
<path d="M30.2845 22.1348C30.003 22.133 29.7268 22.0972 29.4543 22.0272C29.1818 21.9573 28.9218 21.8533 28.6761 21.7188C28.4287 21.5826 28.2028 21.4194 27.9984 21.2275C27.7922 21.0357 27.6147 20.8205 27.4622 20.5838C27.3744 20.4494 27.317 20.3041 27.2865 20.1446C27.2578 19.9868 27.2596 19.829 27.2937 19.673C27.3278 19.5152 27.3887 19.37 27.4802 19.2373C27.5716 19.1064 27.6846 18.9952 27.8191 18.9074C27.9553 18.8213 28.1006 18.7621 28.2601 18.7334C28.4179 18.7048 28.5757 18.7065 28.7335 18.7388C28.8895 18.7729 29.0347 18.8356 29.1674 18.9271C29.3001 19.0185 29.4095 19.1315 29.4973 19.266C29.5816 19.4022 29.6946 19.5098 29.8344 19.5887C29.9743 19.6676 30.1231 19.7088 30.2845 19.7124C30.5481 19.7106 30.7686 19.6138 30.9479 19.4202C31.1505 19.2086 31.2491 18.9558 31.2473 18.6635C31.2473 18.1471 30.9049 17.7078 30.4423 17.6253C30.367 17.6218 30.2916 17.6128 30.211 17.602C28.5327 17.3761 27.2686 15.8951 27.2686 14.1576C27.2686 12.2409 28.7891 10.6827 30.6574 10.6827C30.9389 10.6845 31.2151 10.7204 31.4876 10.7903C31.7601 10.8602 32.0201 10.9642 32.2658 11.0987C32.5132 11.235 32.7391 11.3982 32.9435 11.59C33.1497 11.7837 33.3272 11.997 33.4797 12.2337C33.5657 12.3682 33.6249 12.5152 33.6536 12.673C33.6841 12.8308 33.6805 12.9886 33.6482 13.1464C33.6141 13.3024 33.5514 13.4476 33.4599 13.5803C33.3685 13.713 33.2555 13.8223 33.121 13.9102C32.9866 13.9981 32.8395 14.0554 32.6818 14.0841C32.524 14.1146 32.3662 14.111 32.2084 14.0787C32.0506 14.0447 31.9072 13.9819 31.7745 13.8905C31.6418 13.8008 31.5306 13.6879 31.4446 13.5516C31.3585 13.4153 31.2473 13.3077 31.1075 13.2288C30.9676 13.1499 30.817 13.1087 30.6574 13.1069C30.1267 13.1069 29.6946 13.5785 29.6946 14.1576C29.6946 14.6866 30.0568 15.1366 30.5373 15.2012C30.5642 15.2048 30.5911 15.2083 30.618 15.2083C30.6556 15.2083 30.6951 15.2137 30.7291 15.2191C32.4074 15.445 33.6733 16.9261 33.6733 18.6635C33.6751 19.1171 33.5926 19.5564 33.4223 19.9778C33.2537 20.3992 33.0117 20.7739 32.6979 21.102C32.3841 21.4319 32.0165 21.6866 31.597 21.8659C31.1774 22.0452 30.7399 22.1348 30.2845 22.1348Z" fill="white"/>
<path d="M30.4711 8.91321C30.6324 8.91321 30.7866 8.94548 30.9355 9.00645C31.0843 9.06741 31.2152 9.15527 31.3299 9.26823C31.4429 9.38298 31.5307 9.51387 31.5917 9.66269C31.6545 9.80972 31.6849 9.96392 31.6849 10.1253V11.9004C31.6849 12.0618 31.6545 12.216 31.5917 12.3648C31.5307 12.5136 31.4429 12.6445 31.3299 12.7575C31.2152 12.8722 31.0843 12.9583 30.9355 13.021C30.7866 13.082 30.6324 13.1125 30.4711 13.1125C30.3115 13.1125 30.1555 13.082 30.0085 13.021C29.8596 12.9583 29.7287 12.8722 29.614 12.7575C29.501 12.6445 29.4132 12.5136 29.3504 12.3648C29.2895 12.216 29.259 12.0618 29.259 11.9004V10.1253C29.259 9.96392 29.2895 9.80972 29.3504 9.66269C29.4132 9.51387 29.501 9.38298 29.614 9.26823C29.7287 9.15527 29.8596 9.06741 30.0085 9.00645C30.1555 8.94548 30.3115 8.91321 30.4711 8.91321Z" fill="white"/>
<path d="M30.4684 19.7018C30.6297 19.7018 30.7839 19.7323 30.9328 19.7932C31.0816 19.856 31.2125 19.9438 31.3272 20.0568C31.4402 20.1698 31.528 20.3007 31.589 20.4495C31.6518 20.5983 31.6822 20.7525 31.6822 20.9139V22.689C31.6822 22.8503 31.6518 23.0045 31.589 23.1534C31.528 23.3004 31.4402 23.4313 31.3272 23.546C31.2125 23.659 31.0816 23.7469 30.9328 23.8078C30.7839 23.8706 30.6297 23.9011 30.4684 23.9011C30.3088 23.9011 30.1546 23.8706 30.0058 23.8078C29.8569 23.7469 29.726 23.659 29.6113 23.546C29.4983 23.4313 29.4105 23.3004 29.3495 23.1534C29.2868 23.0045 29.2563 22.8503 29.2563 22.689V20.9139C29.2563 20.7525 29.2868 20.5983 29.3495 20.4495C29.4105 20.3007 29.4983 20.1698 29.6113 20.0568C29.726 19.9438 29.8569 19.856 30.0058 19.7932C30.1546 19.7323 30.3088 19.7018 30.4684 19.7018Z" fill="white"/>
<path d="M30.4702 27.5482C24.3219 27.5482 19.3194 22.5511 19.3194 16.4082C19.3194 10.2652 24.3219 5.26807 30.4702 5.26807C36.6185 5.26807 41.6211 10.2652 41.6211 16.4082C41.6211 22.5511 36.6185 27.5482 30.4702 27.5482ZM30.4702 7.69045C30.1851 7.69045 29.9 7.70479 29.6149 7.73169C29.3298 7.76038 29.0483 7.80162 28.7668 7.8572C28.4871 7.91278 28.211 7.98271 27.9367 8.06519C27.6641 8.14946 27.3952 8.24449 27.1316 8.35387C26.8662 8.46324 26.608 8.58517 26.357 8.71965C26.1042 8.85412 25.8603 9.00115 25.6219 9.15894C25.3852 9.31852 25.1557 9.48886 24.9351 9.66995C24.7128 9.85105 24.5012 10.0411 24.3004 10.2437C24.0978 10.4463 23.9059 10.6561 23.7248 10.8785C23.5437 11.099 23.3734 11.3267 23.2138 11.5652C23.056 11.8019 22.909 12.0475 22.7745 12.2985C22.6401 12.5496 22.5181 12.8078 22.4088 13.0713C22.2994 13.3349 22.2026 13.6039 22.1201 13.8782C22.0376 14.1507 21.9677 14.4269 21.9121 14.7066C21.8565 14.9881 21.8135 15.2696 21.7866 15.5529C21.7579 15.838 21.7435 16.1231 21.7435 16.4082C21.7435 16.6932 21.7579 16.9783 21.7866 17.2634C21.8135 17.5467 21.8565 17.8282 21.9121 18.1097C21.9677 18.3895 22.0376 18.6656 22.1201 18.9381C22.2026 19.2125 22.2994 19.4796 22.4088 19.745C22.5181 20.0086 22.6401 20.265 22.7745 20.5178C22.909 20.7688 23.056 21.0144 23.2138 21.2511C23.3734 21.4896 23.5437 21.7173 23.7248 21.9379C23.9059 22.1602 24.0978 22.37 24.3004 22.5726C24.5012 22.7752 24.7128 22.9653 24.9351 23.1464C25.1557 23.3275 25.3852 23.4978 25.6219 23.6574C25.8603 23.8152 26.1042 23.9622 26.357 24.0967C26.608 24.2311 26.8662 24.3531 27.1316 24.4624C27.3952 24.5718 27.6641 24.6668 27.9367 24.7511C28.211 24.8336 28.4871 24.9035 28.7668 24.9591C29.0483 25.0147 29.3298 25.0559 29.6149 25.0846C29.9 25.1115 30.1851 25.1259 30.4702 25.1259C30.7553 25.1259 31.0404 25.1115 31.3255 25.0846C31.6106 25.0559 31.8921 25.0147 32.1718 24.9591C32.4533 24.9035 32.7294 24.8336 33.0038 24.7511C33.2763 24.6668 33.5453 24.5718 33.8088 24.4624C34.0742 24.3531 34.3306 24.2311 34.5834 24.0967C34.8362 23.9622 35.0801 23.8152 35.3186 23.6574C35.5552 23.4978 35.7848 23.3275 36.0053 23.1464C36.2258 22.9653 36.4374 22.7752 36.64 22.5726C36.8426 22.37 37.0345 22.1602 37.2156 21.9379C37.3967 21.7173 37.567 21.4896 37.7248 21.2511C37.8844 21.0144 38.0314 20.7688 38.1659 20.5178C38.3004 20.265 38.4223 20.0086 38.5317 19.745C38.641 19.4796 38.7379 19.2125 38.8204 18.9381C38.9028 18.6656 38.9728 18.3895 39.0283 18.1097C39.0839 17.8282 39.1252 17.5467 39.1539 17.2634C39.1825 16.9783 39.1969 16.6932 39.1969 16.4082C39.1951 16.1231 39.1807 15.838 39.1539 15.5547C39.1252 15.2696 39.0821 14.9881 39.0265 14.7084C38.971 14.4287 38.901 14.1525 38.8186 13.8782C38.7343 13.6057 38.6393 13.3367 38.5299 13.0731C38.4205 12.8095 38.2968 12.5514 38.1623 12.3003C38.0278 12.0493 37.8808 11.8037 37.723 11.567C37.5634 11.3303 37.3931 11.1008 37.212 10.8802C37.0309 10.6597 36.8391 10.4481 36.6382 10.2473C36.4356 10.0447 36.224 9.85284 36.0035 9.67175C35.783 9.49065 35.5535 9.32211 35.315 9.16253C35.0783 9.00474 34.8327 8.85771 34.5816 8.72323C34.3288 8.58876 34.0724 8.46683 33.807 8.35746C33.5435 8.24808 33.2745 8.15126 33.002 8.06878C32.7294 7.98451 32.4515 7.91458 32.1718 7.85899C31.8921 7.80341 31.6088 7.76217 31.3255 7.73348C31.0404 7.70479 30.7553 7.69045 30.4702 7.69045Z" fill="white"/>
</svg>
