<svg width="63" height="45" viewBox="0 0 63 45" fill="none" xmlns="http://www.w3.org/2000/svg">
<mask id="mask0_2_191" style="mask-type:luminance" maskUnits="userSpaceOnUse" x="0" y="0" width="63" height="45">
<path d="M0 0H63V44.3333H0V0Z" fill="white"/>
</mask>
<g mask="url(#mask0_2_191)">
<path d="M62.8711 27.1158C62.4382 26.2575 61.943 25.4509 61.3991 24.6867C61.4979 24.6229 61.5951 24.5576 61.6954 24.4938C61.9506 24.3267 61.987 23.9895 61.8412 23.7388C61.1378 22.5448 60.3115 21.4678 59.4061 20.4652C59.7995 20.1705 60.1945 19.8742 60.5879 19.5765C60.8325 19.3927 60.8462 19.0539 60.6821 18.8139C59.7038 17.3829 58.5447 16.1494 57.2839 15.0238C57.9569 14.4192 58.6253 13.8085 59.2921 13.1978C59.5185 12.9912 59.4987 12.6509 59.3149 12.4292C54.7136 6.91483 47.3672 5.04482 42.1901 0.23536C41.979 0.039396 41.6448 -0.000100411 41.4245 0.215612C36.1031 5.39573 29.9979 9.44261 22.9964 11.9248C19.3703 13.21 15.8763 14.9357 12.4341 16.6401C10.318 17.6883 8.21706 18.7714 6.12982 19.8803C4.89327 20.5366 3.66128 21.2004 2.43234 21.8734C1.70773 22.2699 0.349653 22.7514 0.0898879 23.6674C0.0276046 23.7631 0.00633734 23.8877 0.0519101 24.0351C0.0655822 24.1292 0.100521 24.2082 0.15217 24.2736C0.267622 24.4832 0.419532 24.6214 0.586632 24.7323C0.592709 24.825 0.620052 24.9025 0.662587 24.9678C0.857032 25.4129 1.22465 25.5785 1.56341 25.8337C1.75786 26.3137 2.17713 26.4884 2.51133 26.8272C2.60855 26.9456 2.70273 27.0657 2.79692 27.1826C3.01263 27.4545 3.22378 27.728 3.4319 28.006C3.46076 28.0485 3.48963 28.091 3.52001 28.1351C4.4816 29.5296 5.33989 31.0001 6.17995 32.4721C7.79627 35.3052 9.34119 38.1885 10.7859 41.1143C10.8967 41.3756 11.0046 41.6368 11.1125 41.8996C11.3525 42.489 11.5393 43.1499 11.9723 43.6314C12.8609 44.6219 14.0747 44.3348 15.2201 44.1084C18.357 43.4901 21.4302 42.603 24.5048 41.7341C30.7863 39.9552 37.086 38.2265 43.3492 36.3868C46.7186 35.3979 50.0287 34.2601 53.2279 32.8033C56.4636 31.3267 59.5792 29.6041 62.6767 27.8586C62.9425 27.7082 63.0018 27.374 62.8711 27.1158ZM59.9347 22.8259C60.1854 23.1661 60.4239 23.5155 60.6517 23.8756C60.3798 24.0518 60.1094 24.228 59.8375 24.4012C58.6967 25.1364 57.5482 25.858 56.3922 26.5583C55.9972 26.7983 55.6038 27.0338 55.2073 27.2677C53.8021 28.0956 52.3802 28.8886 50.931 29.6344C47.7865 31.1049 44.5296 32.3065 41.1693 33.2484C37.3002 34.333 33.3839 35.243 29.5011 36.279C30.2956 35.9357 31.0916 35.5939 31.8876 35.2506C32.1945 35.1503 32.4998 35.05 32.8067 34.9498C37.6799 33.3638 42.6109 31.9237 47.2533 29.7165C49.9558 28.4328 52.561 26.9456 55.0554 25.2959C55.2407 25.22 55.3698 25.0468 55.3303 24.787C55.2574 24.3115 55.2772 23.8391 55.385 23.394C55.5096 23.3059 55.6342 23.2193 55.7587 23.1312C56.0656 22.914 56.3709 22.6967 56.6732 22.478C56.971 22.2638 57.2672 22.0466 57.5649 21.8293C57.852 21.6197 58.1391 21.407 58.4247 21.1959C58.4627 21.1685 58.5007 21.1412 58.5371 21.1123C59.0293 21.6592 59.4972 22.2273 59.9347 22.8259ZM11.9191 38.1125C12.0224 38.3024 12.1242 38.4923 12.2275 38.6807C12.4052 39.0042 12.5617 39.4205 12.8032 39.7349C12.908 39.9279 13.0326 40.101 13.1967 40.2256C13.6448 40.5719 14.2555 40.4185 14.775 40.4914C15.1411 40.5431 15.4844 40.6509 15.8065 40.8013C15.3933 40.9472 14.977 41.09 14.5608 41.2267C13.9592 41.4272 13.3789 41.453 12.9399 40.9244C12.7668 40.7163 12.6483 40.4626 12.5146 40.2271C11.3737 38.2143 10.1737 36.2334 8.93559 34.2753C8.85964 34.1067 8.78064 33.9396 8.70013 33.7725C9.79996 35.2019 10.874 36.6481 11.9191 38.1125ZM18.676 41.6748C17.2299 42.1427 15.7715 42.5726 14.2995 42.9478C13.6858 43.1073 13.1055 43.0952 12.703 42.5377C12.5602 42.3402 12.466 42.1108 12.3627 41.8905C12.3824 41.9088 12.4007 41.927 12.4204 41.9422C13.4336 42.8065 14.5973 42.3614 15.7032 41.9847C17.4015 41.4075 19.0664 40.7512 20.7192 40.0615C24.8238 38.6974 28.9786 37.4897 33.1743 36.4203C33.8382 36.2516 34.502 36.0861 35.1658 35.919C32.5864 36.8228 29.9979 37.7115 27.4245 38.6229C24.5139 39.6559 21.614 40.7223 18.676 41.6748ZM54.2123 24.5485C50.8991 26.7208 47.4128 28.5498 43.767 30.0507C46.553 28.7701 49.2737 27.3664 51.8774 25.7319C52.6613 25.2397 53.433 24.7323 54.1986 24.2128C54.1986 24.3237 54.2032 24.4361 54.2123 24.5485ZM59.5063 19.0327C59.2223 19.2453 58.9382 19.458 58.6526 19.6692C58.364 19.8849 58.0723 20.0991 57.7837 20.3117C57.7351 20.3482 57.6895 20.3816 57.6424 20.4166C57.3644 20.6201 57.0864 20.8222 56.8084 21.0227C56.7993 21.0303 56.7887 21.0364 56.7796 21.044C56.4378 21.29 56.096 21.5361 55.7511 21.7792C55.4427 21.9979 55.1313 22.2152 54.8214 22.4309C54.7045 22.5114 54.5875 22.5919 54.472 22.6724C51.3017 24.8523 48.0235 26.856 44.5113 28.5134C40.1576 30.5657 35.7142 32.4417 31.283 34.3315C29.4024 34.9452 27.5293 35.5772 25.67 36.2592C22.7047 37.3515 19.7713 38.5272 16.8698 39.779C16.8501 39.7668 16.8319 39.7562 16.8121 39.7471C19.7029 38.4407 22.4723 36.8942 25.2477 35.363C26.1485 34.8647 27.0508 34.3695 27.9532 33.8727C29.454 33.2226 30.9625 32.5921 32.4801 31.9815C32.6198 31.9268 32.7596 31.869 32.8993 31.8128C33.425 31.6032 33.9506 31.3936 34.4777 31.1839C37.9747 29.7955 41.4777 28.4161 44.8243 26.695C45.4 26.3988 45.9712 26.0919 46.5363 25.7744C47.1424 25.4341 47.744 25.0817 48.3364 24.7217C50.0712 23.669 51.7498 22.5281 53.3753 21.3159C53.5925 21.1548 53.8067 20.9938 54.0209 20.8298C54.1105 20.7842 54.1865 20.7158 54.2305 20.6247C54.273 20.5366 54.2867 20.4287 54.2594 20.3026C54.2381 20.2145 54.2229 20.1264 54.2092 20.0383C54.1454 19.613 54.1576 19.1876 54.2411 18.782C54.2487 18.7456 54.2579 18.7091 54.2654 18.6742C54.352 18.3157 54.4994 17.9723 54.7014 17.6579C54.7212 17.626 54.7424 17.5941 54.7652 17.5622C54.9156 17.3465 55.0918 17.146 55.2969 16.9652C55.3653 16.9044 55.4139 16.8361 55.4443 16.7662C55.4655 16.7191 55.4792 16.6705 55.4838 16.6203C55.818 16.3302 56.1476 16.0385 56.4788 15.7438C57.5862 16.7343 58.6131 17.8128 59.5063 19.0327ZM51.206 20.1553C51.3807 20.0201 51.5569 19.8849 51.7301 19.7482C52.0141 19.5233 52.2982 19.2985 52.5793 19.0691C52.599 19.0555 52.6157 19.0403 52.6339 19.0251C52.8147 18.8792 52.9955 18.7319 53.1747 18.583C53.1231 18.823 53.0912 19.0706 53.0821 19.3183C53.079 19.4018 53.0775 19.4869 53.079 19.5719C53.0821 19.7618 53.0988 19.9517 53.1276 20.1431C52.9378 20.2859 52.7463 20.4287 52.5549 20.57C51.1179 21.6334 49.6413 22.6299 48.1237 23.5596C47.8093 23.754 47.4918 23.9454 47.1728 24.1323C46.398 24.5895 45.6142 25.0301 44.8197 25.4524C44.4734 25.6377 44.1224 25.82 43.7715 25.9977C42.5335 26.6297 41.2696 27.2206 39.9844 27.7751C38.7145 28.3235 37.4369 28.8491 36.1548 29.3686C36.1548 29.3671 36.1548 29.3671 36.1563 29.3656C38.2405 28.2126 40.3217 27.055 42.3952 25.8838C45.4532 24.1566 48.42 22.2987 51.206 20.1553ZM4.07904 22.2121C5.16823 21.6212 6.26198 21.0364 7.36029 20.4576C9.1589 19.5081 10.9697 18.58 12.7911 17.6731C15.2474 16.4548 17.7251 15.2759 20.2422 14.1898C23.4247 12.8226 26.7379 11.8109 29.9599 10.0943C34.3121 7.77768 38.2572 4.75771 41.8089 1.34886C46.8173 5.76639 53.6821 7.71995 58.1619 12.7588C57.5938 13.2783 57.0226 13.7948 56.4484 14.3052C56.1795 14.5453 55.9106 14.7838 55.6417 15.0192C55.385 15.2456 55.1283 15.4689 54.87 15.6907C54.7516 15.794 54.6331 15.8973 54.5131 15.999C54.352 16.1373 54.1895 16.277 54.0269 16.4153C53.9206 16.5049 53.8128 16.596 53.7064 16.6857C53.6092 16.6067 53.515 16.5292 53.4178 16.4517C53.5059 16.5353 53.5955 16.6203 53.6836 16.7039C53.4178 16.9302 53.1474 17.1551 52.877 17.3769C52.7722 17.465 52.6643 17.5531 52.558 17.6397C52.3088 17.8447 52.0582 18.0483 51.806 18.2488C51.7681 18.2792 51.7316 18.3111 51.6936 18.3384C51.4475 18.5344 51.2029 18.7304 50.9538 18.9233C49.374 20.1568 47.7485 21.3341 46.0593 22.4309C45.4835 22.8046 44.9017 23.1692 44.3093 23.5216C44.2516 23.5565 44.1938 23.5915 44.1361 23.6249C41.3911 25.2549 38.599 26.812 35.7963 28.3478C35.6307 28.4389 35.4636 28.5301 35.2965 28.6197C35.102 28.7275 34.9091 28.8339 34.7147 28.9372C34.7132 28.9372 34.7132 28.9372 34.7132 28.9372V28.9387C34.6949 28.9509 34.6737 28.9615 34.6554 28.9706C34.5658 29.0192 34.4762 29.0678 34.3865 29.1164C34.1784 29.2304 33.9703 29.3443 33.7607 29.4598C33.7409 29.4704 33.7212 29.481 33.7014 29.4917C33.3596 29.677 33.0178 29.8638 32.676 30.0476C32.5439 30.1206 32.4117 30.192 32.2811 30.2634C32.272 30.2649 32.2644 30.2664 32.2568 30.2664C32.234 30.2679 32.2097 30.2694 32.1869 30.2694C32.1945 30.2816 32.199 30.2937 32.2036 30.3059C30.7255 31.1095 29.249 31.9146 27.7785 32.7258C27.6752 32.782 27.5734 32.8382 27.4701 32.8944C24.8694 34.333 22.2824 35.7989 19.6422 37.1631C18.5378 37.7343 17.4213 38.2796 16.288 38.7946C16.0374 38.9101 15.7852 39.0225 15.5315 39.1334C15.4768 39.1577 15.4237 39.1805 15.369 39.2002C14.9269 39.3703 14.4924 39.4129 14.102 39.1592C14.0306 39.1136 13.9577 39.0559 13.8894 38.9875C13.7542 38.8508 13.6402 38.6898 13.5324 38.5288C13.4883 38.4634 13.4443 38.3981 13.4002 38.3343C13.3486 38.2614 13.2969 38.1885 13.2437 38.1141C13.1116 37.9226 12.9764 37.7343 12.8397 37.5444C12.0194 36.3914 11.1778 35.249 10.3225 34.1203C10.2511 34.0094 10.1812 33.8986 10.1129 33.7861C10.1326 33.8348 10.1554 33.8834 10.1782 33.9305C9.66628 33.256 9.14978 32.5876 8.62721 31.9207C8.24136 31.4239 7.85096 30.9302 7.45903 30.4381C7.11875 30.0097 6.77695 29.5828 6.43212 29.1575C5.56775 28.0956 4.68516 27.0489 3.75851 26.0433C3.52609 25.7927 3.29366 25.5405 3.05213 25.2989C2.88655 25.1303 2.71793 24.9663 2.54323 24.8068C2.45968 24.7308 2.37765 24.6579 2.2941 24.585C2.26827 24.5622 2.24245 24.5394 2.21662 24.5166C2.17257 24.4817 2.13003 24.4452 2.0875 24.4088C1.9599 24.3039 1.82773 24.2022 1.6895 24.1125C1.59683 24.0548 1.28846 23.9561 1.16541 23.8725C1.3477 23.5854 2.19384 23.2421 2.37157 23.1449C2.45664 23.0978 2.54171 23.0507 2.62678 23.0051C3.10985 22.7408 3.59293 22.4749 4.07904 22.2121ZM45.5565 34.5806C39.6153 36.4674 33.5632 38.0411 27.5658 39.7395C27.5202 39.7516 27.4747 39.7653 27.4291 39.7775C32.6107 37.95 37.8 36.1423 42.9588 34.2571C46.1231 33.0995 49.222 31.8113 52.204 30.2421C53.4922 29.6117 54.7576 28.9387 56.0003 28.2278C56.1431 28.1792 56.2585 28.0759 56.2965 27.9148V27.9133C57.7092 27.0611 59.1038 26.1755 60.4892 25.2762C60.9176 25.8838 61.3156 26.5127 61.6756 27.175C56.4879 30.0841 51.2455 32.7744 45.5565 34.5806Z" fill="white"/>
</g>
<path d="M6.24198 26.6556C6.29971 26.7346 6.35895 26.8121 6.41819 26.8895C6.69011 27.2526 6.96203 27.6142 7.23699 27.9772C7.39649 28.1899 7.556 28.4026 7.7155 28.6152C8.14541 29.1849 8.57683 29.7546 9.00826 30.3242C9.41841 30.8681 9.83009 31.4089 10.2433 31.9512C10.5167 32.3917 10.7886 32.8307 11.0636 33.2697C10.974 33.0707 10.8843 32.8687 10.7962 32.6697C11.0226 32.969 11.2504 33.2652 11.4783 33.5629C11.9158 34.1296 12.3533 34.6962 12.7938 35.2598C13.1068 35.6623 13.4136 36.2381 13.8922 36.4583C14.4071 36.6923 14.9662 36.4052 15.4887 36.3581C16.1693 36.2973 16.8164 36.4401 17.4392 36.7075C17.661 36.8032 17.8433 36.7409 17.9618 36.6087C22.2533 33.8516 26.6602 31.2964 31.1658 28.916C31.2585 28.8674 31.3511 28.8188 31.4423 28.7717C31.7917 28.5864 32.1411 28.4041 32.4905 28.2233C32.6454 28.1428 32.7988 28.0638 32.9523 27.9833C33.2743 27.8177 33.5933 27.6536 33.9154 27.4881C34.1387 27.3741 34.362 27.2587 34.5853 27.1447C34.7737 27.049 34.962 26.9518 35.1489 26.8576C37.7754 25.5117 40.3958 24.1552 42.9175 22.63C43.7698 22.1165 44.6083 21.5818 45.4316 21.0213C45.5866 20.918 45.74 20.8116 45.8935 20.7053C47.2409 19.768 48.5504 18.776 49.8203 17.7339C50.0163 17.5744 50.2107 17.4119 50.4037 17.2493C50.4978 17.1719 50.5905 17.0929 50.6832 17.0139C50.867 16.8574 51.0523 16.6994 51.2346 16.5414C51.3713 16.4214 51.508 16.3014 51.6432 16.1814C51.8741 15.9794 52.1035 15.7743 52.3314 15.5662C52.3633 15.5388 52.3967 15.5085 52.4271 15.4796C52.4392 15.469 52.4514 15.4568 52.4636 15.4477C52.6003 15.3216 52.7385 15.1955 52.8737 15.0694C52.9649 15.0132 53.0378 14.9297 53.0697 14.8264C53.0955 14.7474 53.097 14.6547 53.0697 14.553C53.0666 14.5438 53.0651 14.5332 53.0606 14.5226C52.8874 13.9954 52.8372 13.4486 52.9086 12.923C52.9588 12.5584 53.0681 12.2029 53.2383 11.8717C53.3765 11.5953 53.5558 11.3385 53.7776 11.1016C53.9416 10.9253 53.9599 10.7157 53.8961 10.5395C53.8718 10.4134 53.8079 10.2934 53.6834 10.1962C52.4332 9.22396 50.9034 8.80925 49.5059 8.10438C47.9017 7.29319 46.3963 6.21159 44.9228 5.1862C44.8787 5.14062 44.8377 5.09201 44.7951 5.04492C44.6022 4.82921 44.2741 4.75781 44.0341 4.95226C43.7409 5.18772 43.4462 5.42014 43.1484 5.64952C42.6335 5.79384 42.0744 5.86827 41.6248 5.93967C40.7817 6.07183 39.9568 6.03993 39.1547 5.73003C38.9102 5.63585 38.7112 5.72548 38.5942 5.8865C38.5471 5.90625 38.5 5.93359 38.4544 5.97309C35.0684 8.87153 31.3086 11.334 27.2617 13.2055C25.1942 14.1625 23.0872 15.0284 20.9742 15.8867C18.9826 16.6979 16.9866 17.5061 15.0208 18.3796C12.3898 19.5508 9.78603 20.7813 7.20813 22.0649C6.96963 22.0618 6.74632 22.194 6.71898 22.472C6.71594 22.4993 6.71594 22.5313 6.71746 22.5632C6.72353 22.6771 6.72657 22.791 6.72657 22.9034C6.72657 22.9475 6.72657 22.9931 6.72505 23.0371C6.71898 23.3941 6.68252 23.7465 6.61264 24.0898C6.60656 24.1278 6.59745 24.1658 6.58985 24.2023C6.46377 24.7765 6.24806 25.3325 5.93968 25.8626C5.73764 26.2075 5.95335 26.5447 6.24198 26.6556ZM10.6504 21.594C13.8815 20.0506 17.1537 18.5938 20.4622 17.2266C20.6263 17.1567 20.7919 17.0898 20.9575 17.0215C23.742 15.8791 26.5204 14.7702 29.2001 13.4379C29.2016 13.4379 29.2031 13.4364 29.2062 13.4349C30.5263 12.7771 31.8236 12.0677 33.0844 11.2732C35.1884 9.94705 37.1936 8.46745 39.0879 6.8572C39.7836 7.07899 40.5022 7.12912 41.2268 7.07292C41.441 7.05621 41.6552 7.03038 41.8694 6.99696C42.4618 6.90278 43.1059 6.79188 43.706 6.58832C43.9657 6.50174 44.2164 6.3954 44.4503 6.26476C44.4731 6.25412 44.4989 6.24045 44.5217 6.22678C45.9421 7.21723 47.3928 8.2411 48.9332 9.02496C49.2218 9.17231 49.5165 9.30599 49.8127 9.43511C50.7758 9.85287 51.7617 10.2174 52.6428 10.7886C52.538 10.936 52.4408 11.0879 52.3542 11.2459C52.1795 11.5603 52.0443 11.893 51.9486 12.2363C51.8103 12.7361 51.7587 13.2587 51.8043 13.7828C51.8073 13.8101 51.8073 13.8375 51.8119 13.8648C51.8331 14.0668 51.8696 14.2704 51.9197 14.4709C51.8362 14.5469 51.7526 14.6228 51.6691 14.6988C51.6068 14.7565 51.543 14.8142 51.4807 14.8689C51.4701 14.8796 51.4594 14.8902 51.4503 14.8963C51.2619 15.0679 51.0721 15.2365 50.8822 15.4036C50.7318 15.5373 50.5799 15.668 50.428 15.7986C50.153 16.0356 49.875 16.2711 49.5955 16.5035C49.4861 16.5946 49.3767 16.6858 49.2659 16.7754C48.7934 17.1628 48.3179 17.5425 47.8349 17.9132C47.1391 18.4525 46.4312 18.9735 45.7112 19.4824C45.1597 19.8713 44.6022 20.2526 44.0371 20.6233C44.0371 20.6248 44.0356 20.6248 44.0356 20.6248C43.8518 20.6825 43.6558 20.7873 43.4735 20.921C43.3687 20.9985 43.2685 21.0866 43.1773 21.1808C43.1773 21.1808 43.1773 21.1808 43.1773 21.1823C43.1773 21.1823 43.1758 21.1823 43.1758 21.1838C43.1758 21.1838 43.1743 21.1838 43.1743 21.1853C43.1743 21.1853 43.1728 21.1853 43.1728 21.1868H43.1712C41.9924 21.9312 40.7938 22.6452 39.5619 23.3212C38.1749 24.0822 36.7743 24.819 35.3707 25.5467C34.6233 25.934 33.8759 26.3184 33.127 26.7042C32.9371 26.8014 32.7472 26.9017 32.5573 26.9974C32.5224 27.0156 32.4844 27.0354 32.4494 27.0536C32.1714 27.1964 31.8935 27.3392 31.617 27.4835C31.4651 27.5625 31.3132 27.64 31.1612 27.719C31.1612 27.719 31.1597 27.719 31.1597 27.7205C31.0883 27.7554 31.0185 27.7919 30.9486 27.8299C30.3546 28.1382 29.7606 28.4497 29.1697 28.7626C27.9924 29.3869 26.8212 30.0219 25.6621 30.6812C22.9141 32.2398 20.2101 33.8789 17.5517 35.5864C17.0929 35.4102 16.6174 35.2993 16.1267 35.2674C15.8548 35.2491 15.5859 35.2613 15.3171 35.2871C15.0679 35.3145 14.714 35.4709 14.4755 35.4466C14.0425 35.4026 13.5367 34.4592 13.2511 34.0916C12.8394 33.5614 12.4323 33.0312 12.0221 32.4996C10.9952 31.1628 9.97592 29.8184 8.96116 28.4724C8.82293 28.2901 8.68469 28.1094 8.54797 27.9256C8.45986 27.8101 8.37327 27.6947 8.28668 27.5777C8.13022 27.3726 7.97527 27.166 7.82032 26.9594C7.78386 26.9123 7.7474 26.8637 7.71095 26.8136C7.50587 26.5417 7.30079 26.2682 7.09571 25.9963C7.42688 25.3264 7.64866 24.6185 7.7474 23.8863C7.75652 23.8225 7.76411 23.7587 7.77019 23.6949C7.77931 23.6113 7.78842 23.5263 7.79146 23.4412C7.80361 23.2878 7.80969 23.1313 7.80969 22.9748C8.15604 22.8032 8.50391 22.6315 8.85179 22.4614C9.45031 22.1682 10.0488 21.8796 10.6504 21.594Z" fill="white"/>
<path d="M24.6612 17.5971C24.6779 17.6123 24.6946 17.629 24.7098 17.6457C24.7599 17.6958 24.807 17.7444 24.8541 17.7946C25.0106 17.9556 25.164 18.1166 25.3159 18.2776C25.2309 18.3916 25.1504 18.5116 25.0729 18.6362C25.0698 18.6407 25.0683 18.6437 25.0653 18.6468C25.044 18.6817 25.0243 18.7182 25.003 18.7531C24.9833 18.7865 24.9635 18.8215 24.9468 18.8579C24.8997 18.943 24.8572 19.0311 24.8177 19.1192C24.7994 19.1618 24.7827 19.2028 24.766 19.2423C24.7356 19.3213 24.7068 19.4003 24.6825 19.4793C24.6749 19.5036 24.6673 19.5279 24.6612 19.5522C24.6506 19.5901 24.6399 19.6281 24.6323 19.6676C24.6232 19.701 24.6171 19.7375 24.6096 19.7709C24.605 19.7983 24.6004 19.8256 24.5974 19.8514C24.5928 19.8849 24.5883 19.9152 24.5852 19.9471C24.5777 20.017 24.5731 20.0884 24.5731 20.1583C24.5731 20.1978 24.5746 20.2373 24.5777 20.2768V20.2844C24.5807 20.3208 24.5852 20.3588 24.5883 20.3953C24.5883 20.3998 24.5898 20.4029 24.5898 20.4074C24.6004 20.4834 24.6156 20.5578 24.6369 20.6307C24.643 20.6535 24.649 20.6733 24.6566 20.6945C24.6627 20.7173 24.6703 20.7371 24.6779 20.7583C24.6794 20.7644 24.6809 20.769 24.684 20.775C24.6977 20.8115 24.7113 20.848 24.7296 20.8844C24.7675 20.9695 24.8131 21.05 24.8678 21.1305C24.8951 21.1715 24.924 21.211 24.9544 21.2475C24.9848 21.2855 25.0167 21.3219 25.0501 21.3569C25.0835 21.3918 25.1185 21.4267 25.1534 21.4571C25.1564 21.4617 25.1579 21.4632 25.161 21.4647C25.1944 21.4936 25.2278 21.5224 25.2643 21.5513C25.2643 21.5528 25.2658 21.5543 25.2673 21.5543C25.2719 21.5574 25.2749 21.5604 25.278 21.5619C25.3038 21.5832 25.3296 21.6014 25.3554 21.6212C25.3858 21.6424 25.4162 21.6622 25.4481 21.6835C25.4496 21.6835 25.4496 21.6835 25.4496 21.6835C25.4572 21.688 25.4663 21.6941 25.4739 21.6987C25.5089 21.7199 25.5438 21.7412 25.5803 21.7609C25.6137 21.7776 25.6456 21.7944 25.679 21.8111C25.6957 21.8187 25.7139 21.8278 25.7306 21.8354C25.7625 21.849 25.7944 21.8627 25.8263 21.8764C25.8461 21.8855 25.8658 21.8931 25.8856 21.8992V21.9007C25.8993 21.9053 25.9114 21.9098 25.9236 21.9128C25.9388 21.9189 25.9524 21.925 25.9661 21.928C26.0056 21.9417 26.0436 21.9539 26.0846 21.9645C26.1347 21.9812 26.1849 21.9934 26.2365 22.004C26.276 22.0146 26.314 22.0207 26.3535 22.0283C26.3641 22.0298 26.3732 22.0313 26.3839 22.0329C26.4613 22.0465 26.5373 22.0541 26.6148 22.0602C26.633 22.0632 26.6497 22.0632 26.6664 22.0632C26.7089 22.0663 26.7484 22.0663 26.7895 22.0663C26.9292 22.0663 27.0675 22.0541 27.2011 22.0298C27.4503 21.9842 27.6918 21.8916 27.9318 21.7761C28.0306 21.7321 28.1278 21.6804 28.2235 21.6288C28.3754 21.8202 28.5258 22.0116 28.6747 22.2045C28.8099 22.3762 28.9405 22.5493 29.0711 22.724C29.2018 22.8972 29.3324 23.0719 29.4615 23.2497C29.4722 23.2618 29.4828 23.2755 29.4919 23.2907C29.5436 23.3605 29.5937 23.4304 29.6423 23.5003C29.6606 23.5231 29.6788 23.5459 29.694 23.5687C29.7122 23.593 29.7289 23.6158 29.7441 23.6385C29.779 23.6841 29.8109 23.7327 29.8444 23.7783C29.8459 23.7798 29.8474 23.7813 29.8474 23.7829C29.9735 23.9591 30.0981 24.1353 30.2226 24.313C29.8854 24.4102 29.5436 24.4862 29.2063 24.5378C29.1456 24.547 29.0924 24.5637 29.0468 24.5865C28.863 24.6746 28.7871 24.8523 28.7977 25.0361C28.8099 25.2776 28.9694 25.5268 29.2291 25.5891C29.2975 25.6043 29.3719 25.6088 29.4524 25.5967C29.5162 25.5875 29.5831 25.5769 29.6499 25.5648C29.7365 25.548 29.8246 25.5313 29.9127 25.5131C30.0692 25.4782 30.2272 25.4402 30.3836 25.3961C30.5447 25.3536 30.7027 25.305 30.8622 25.2503C31.0369 25.5131 31.2085 25.7759 31.3771 26.0402C31.4303 26.1223 31.4835 26.2043 31.5351 26.2878C31.7174 26.575 32.041 26.5993 32.278 26.4793C32.524 26.3547 32.6805 26.0737 32.4891 25.7698C32.2886 25.4539 32.085 25.1409 31.88 24.828C31.9179 24.8098 31.9559 24.79 31.9939 24.7703C32.3159 24.6016 32.6243 24.4102 32.9129 24.193C33.039 24.0988 33.1636 23.9986 33.2806 23.8937C33.5175 24.2674 33.7515 24.6472 33.9763 25.0285C34.0568 25.1637 34.1662 25.2442 34.2862 25.2761C34.6948 25.3916 35.2037 24.9784 34.9288 24.509C34.6402 24.0214 34.3424 23.5383 34.034 23.0628C34.0447 23.0491 34.0568 23.0339 34.0675 23.0203C34.1601 22.8866 34.2528 22.7347 34.3409 22.5676C34.3546 22.5433 34.3682 22.519 34.3804 22.4931C34.4062 22.4445 34.4305 22.3944 34.4533 22.3443C34.4989 22.247 34.5444 22.1468 34.5855 22.0435C34.6356 21.9204 34.6796 21.7928 34.7207 21.6637C34.7298 21.6333 34.7389 21.6014 34.7495 21.5695C34.7586 21.5361 34.7693 21.5012 34.7769 21.4678C34.789 21.4222 34.7997 21.3796 34.8118 21.3341C34.824 21.2839 34.8346 21.2353 34.8437 21.1852C34.8559 21.1305 34.865 21.0743 34.8741 21.0211C34.8817 20.971 34.8878 20.9209 34.8938 20.8707C34.8954 20.8707 34.8938 20.8692 34.8938 20.8692C34.8969 20.8449 34.8999 20.8191 34.9014 20.7948C34.903 20.7887 34.903 20.7811 34.903 20.7766C34.9075 20.7401 34.9106 20.7052 34.9121 20.6672C34.9151 20.6125 34.9166 20.5563 34.9166 20.5016V20.4955C34.9166 20.4606 34.9151 20.4241 34.9136 20.3877C34.9136 20.3618 34.9136 20.336 34.9106 20.3102C34.909 20.292 34.9075 20.2722 34.906 20.2555C34.903 20.2282 34.8999 20.1993 34.8969 20.172C34.8938 20.1507 34.8908 20.1279 34.8878 20.1066C34.8847 20.0854 34.8817 20.0671 34.8771 20.0459C34.8726 20.017 34.8665 19.9912 34.8604 19.9638C34.8528 19.9319 34.8452 19.9016 34.8376 19.8712C34.8285 19.8408 34.8194 19.8135 34.8103 19.7846C34.7997 19.7497 34.786 19.7132 34.7708 19.6783C34.7571 19.6448 34.7419 19.6099 34.7252 19.5765C34.7252 19.575 34.7252 19.5734 34.7237 19.5719C34.6948 19.5112 34.6614 19.4519 34.6234 19.3942C34.5824 19.3334 34.5353 19.2742 34.4852 19.218C34.4746 19.2073 34.4655 19.1952 34.4533 19.1845C34.4351 19.1648 34.4123 19.1435 34.391 19.1238C34.391 19.1238 34.391 19.1223 34.3895 19.1223C34.3637 19.098 34.3348 19.0737 34.3075 19.0509C34.3059 19.0478 34.3029 19.0463 34.3014 19.0463C34.2862 19.0342 34.271 19.022 34.2573 19.0114C34.0492 18.8579 33.8183 18.7577 33.5737 18.7C33.5464 18.6939 33.5191 18.6878 33.4917 18.6817C33.3033 18.6437 33.1059 18.6301 32.9069 18.6362H32.8917C32.837 18.6377 32.7853 18.6407 32.7306 18.6437C32.676 18.6483 32.6228 18.6544 32.5681 18.6605C32.5043 18.6665 32.4405 18.6756 32.3782 18.6863C32.3569 18.6893 32.3342 18.6939 32.3129 18.6969C32.2795 18.703 32.2445 18.7091 32.2081 18.7167C32.1291 18.7319 32.0501 18.7486 31.9711 18.7683C31.927 18.7789 31.8815 18.7896 31.8389 18.8017C31.7204 18.8336 31.6035 18.8671 31.4895 18.9035C31.403 18.9202 31.3148 18.9339 31.2283 18.9491C31.1599 18.9612 31.09 18.9719 31.0217 18.984C31.008 18.9673 30.9958 18.9521 30.9806 18.9369C30.8606 18.7911 30.7361 18.6468 30.61 18.5025C30.4717 18.346 30.3335 18.1895 30.1953 18.0346C30.1953 18.0331 30.1938 18.0316 30.1892 18.03C30.0859 17.9146 29.9811 17.7991 29.8763 17.6852C29.8565 17.6639 29.8368 17.6411 29.817 17.6199C29.8064 17.6108 29.7988 17.6001 29.7897 17.591C29.7547 17.5546 29.7198 17.5166 29.6864 17.4801C29.6423 17.433 29.5998 17.3859 29.5542 17.3404C29.5254 17.3069 29.495 17.275 29.4646 17.2431C29.6955 17.1611 29.7806 16.9454 29.7502 16.7312C29.7487 16.713 29.7441 16.6963 29.7411 16.6796C29.7395 16.6704 29.7365 16.6583 29.7335 16.6492C29.7228 16.6082 29.7061 16.5671 29.6864 16.5292C29.6803 16.5155 29.6727 16.5018 29.6651 16.4897C29.6104 16.397 29.5329 16.3195 29.4357 16.2694H29.4342C29.416 16.2588 29.3977 16.2512 29.378 16.2436C29.3583 16.236 29.3385 16.2284 29.3157 16.2253C29.3005 16.2208 29.2823 16.2162 29.2641 16.2147C29.2139 16.2071 29.1592 16.2056 29.1015 16.2132C28.9162 16.2375 28.7339 16.2694 28.5516 16.3089C28.228 15.9884 27.8984 15.6754 27.5642 15.3655C27.5323 15.3352 27.5004 15.3108 27.4655 15.2926C27.4533 15.2835 27.4411 15.2774 27.429 15.2714C27.4184 15.2653 27.4062 15.2592 27.3956 15.2562C27.388 15.2516 27.3773 15.2486 27.3698 15.2455C27.3591 15.2425 27.3485 15.2379 27.3363 15.2349C27.3272 15.2334 27.3196 15.2303 27.3105 15.2288C27.2892 15.2243 27.271 15.2197 27.2513 15.2197H27.2497C27.2391 15.2182 27.23 15.2167 27.2209 15.2182C27.1951 15.2151 27.1708 15.2167 27.1464 15.2182C27.1297 15.2197 27.1145 15.2212 27.1009 15.2243C27.0872 15.2273 27.075 15.2303 27.0629 15.2334C27.0568 15.2334 27.0523 15.2334 27.0477 15.2349C27.0371 15.2395 27.0264 15.2425 27.0158 15.2455C27.0006 15.2501 26.9839 15.2577 26.9672 15.2653C26.9383 15.2774 26.911 15.2911 26.8852 15.3093C26.873 15.3169 26.8593 15.3245 26.8472 15.3352C26.829 15.3473 26.8122 15.361 26.7971 15.3747C26.7803 15.3898 26.7652 15.405 26.75 15.4217C26.7241 15.4491 26.7029 15.4795 26.6862 15.5114C26.677 15.522 26.6725 15.5326 26.6664 15.5448C26.6573 15.56 26.6497 15.5752 26.6451 15.5904C26.6375 15.6056 26.6345 15.6207 26.63 15.6359C26.6284 15.6375 26.6269 15.639 26.6284 15.6405C26.6224 15.6587 26.6193 15.6785 26.6163 15.6967C26.6148 15.6982 26.6148 15.6997 26.6148 15.7028C26.6117 15.721 26.6102 15.7423 26.6102 15.762C26.6102 15.8805 26.6603 16.0036 26.7773 16.1114C26.9793 16.3013 27.1799 16.4897 27.3789 16.6811C27.3333 16.7008 27.2877 16.7221 27.2406 16.7434C27.2072 16.7585 27.1738 16.7737 27.1388 16.792C27.0978 16.8102 27.0568 16.8315 27.0158 16.8527C26.9778 16.8725 26.9414 16.8922 26.9049 16.912C26.7925 16.9743 26.6816 17.0396 26.5737 17.1095C26.5342 17.1353 26.4948 17.1611 26.4568 17.1885C26.4142 17.2173 26.3732 17.2447 26.3337 17.275H26.3322C26.3231 17.2811 26.317 17.2842 26.3094 17.2918C26.279 17.313 26.2487 17.3358 26.2198 17.3586C26.2137 17.3616 26.2092 17.3662 26.2046 17.3707C26.156 17.4087 26.1074 17.4467 26.0603 17.4862C26.0436 17.4695 26.0269 17.4497 26.0086 17.433C25.9828 17.4042 25.957 17.3768 25.9312 17.3495C25.7124 17.1171 25.4906 16.8877 25.2673 16.6613C24.7782 16.1661 23.9852 16.9089 24.4789 17.4072C24.5412 17.471 24.602 17.5333 24.6612 17.5971ZM26.9474 20.0884C27.075 20.2358 27.2011 20.3862 27.3272 20.535C27.3895 20.611 27.4533 20.6869 27.5171 20.7629C27.151 20.9361 26.7667 21.0409 26.3474 20.9072C26.1697 20.8495 26.0314 20.775 25.9296 20.6854C25.916 20.6748 25.9038 20.6641 25.8932 20.652C25.881 20.6414 25.8689 20.6277 25.8583 20.6155C25.8233 20.5776 25.7944 20.5396 25.7717 20.4986C25.7656 20.4879 25.758 20.4758 25.7534 20.4636C25.7382 20.4378 25.7276 20.4105 25.717 20.3816C25.7109 20.3634 25.7048 20.3482 25.7018 20.3299C25.6957 20.3117 25.6927 20.2965 25.6896 20.2783C25.6851 20.2601 25.682 20.2434 25.6805 20.2251C25.679 20.2084 25.6775 20.1947 25.676 20.178C25.6744 20.1568 25.6729 20.1355 25.6729 20.1142C25.6729 20.0975 25.6729 20.0808 25.6744 20.0641C25.6744 20.052 25.676 20.0413 25.6775 20.0307C25.679 20.0018 25.682 19.973 25.6881 19.9426C25.6927 19.9168 25.6972 19.8909 25.7033 19.8651C25.7094 19.8332 25.717 19.8013 25.7276 19.7694C25.7291 19.7648 25.7291 19.7618 25.7291 19.7572C25.7428 19.7132 25.758 19.6707 25.7762 19.6251C25.8446 19.4443 25.9464 19.262 26.0633 19.0888C26.2076 19.2453 26.3474 19.4048 26.4902 19.5643C26.5099 19.5871 26.5312 19.6099 26.5494 19.6342H26.551C26.6831 19.7846 26.8153 19.935 26.9474 20.0884ZM31.2647 23.9165C31.1599 23.7646 31.0536 23.6142 30.9487 23.4654C30.8622 23.3438 30.7771 23.2238 30.6905 23.1023C30.5462 22.8987 30.3973 22.6952 30.2484 22.4947C30.1239 22.326 29.9978 22.1574 29.8702 21.9903C29.6469 21.6926 29.4175 21.3979 29.1881 21.1047C29.2382 21.0789 29.2869 21.053 29.337 21.0272C29.34 21.0257 29.3431 21.0242 29.3461 21.0227C29.3476 21.0227 29.3476 21.0227 29.3491 21.0227C29.4236 20.9847 29.4965 20.9467 29.5709 20.9087C29.6985 20.8434 29.8277 20.7781 29.9568 20.7143C30.0859 20.6505 30.2165 20.5882 30.3472 20.5259C30.4763 20.4636 30.6085 20.4044 30.7391 20.3482C30.768 20.3831 30.7968 20.4196 30.8242 20.4545C30.8242 20.456 30.8242 20.456 30.8242 20.456C30.891 20.5381 30.9563 20.6186 31.0201 20.7006C31.2602 21.0059 31.4941 21.3143 31.7265 21.6257C31.962 21.9463 32.1944 22.2698 32.4223 22.598C32.5028 22.7149 32.5848 22.8334 32.6653 22.9534C32.2628 23.3484 31.7842 23.6674 31.2647 23.9165ZM33.7317 20.134C33.7408 20.1507 33.7469 20.1689 33.753 20.1856C33.7652 20.2206 33.7743 20.257 33.7819 20.295C33.7864 20.3117 33.7895 20.3299 33.7925 20.3482C33.794 20.3603 33.7955 20.371 33.7955 20.3816C33.8062 20.4576 33.8062 20.5381 33.8031 20.6216C33.8016 20.6566 33.7986 20.6915 33.794 20.7279C33.791 20.7674 33.7849 20.8069 33.7788 20.8495C33.7758 20.8723 33.7712 20.8966 33.7667 20.9209C33.7515 21.0059 33.7317 21.0925 33.7089 21.1776C33.7029 21.2034 33.6953 21.2277 33.6892 21.2536C33.6087 21.5391 33.4948 21.802 33.3596 22.048C33.2502 21.8885 33.1393 21.7306 33.0269 21.5726C32.9798 21.5057 32.9312 21.4404 32.8826 21.3736C32.875 21.3614 32.8658 21.3477 32.8552 21.3356C32.837 21.3067 32.8157 21.2794 32.7944 21.252C32.7504 21.1898 32.7048 21.1275 32.6608 21.0667C32.6547 21.0591 32.6486 21.05 32.641 21.0424C32.603 20.9908 32.5651 20.9406 32.5271 20.889V20.8875C32.5225 20.8829 32.521 20.8768 32.5149 20.8723V20.8707C32.5089 20.8616 32.5028 20.854 32.4952 20.8449C32.4451 20.7781 32.3949 20.7097 32.3418 20.6414C32.3418 20.6398 32.3387 20.6368 32.3342 20.6338C32.3357 20.6322 32.3342 20.6307 32.3326 20.6292C32.3311 20.6247 32.3235 20.6171 32.3205 20.614C32.3205 20.6125 32.3205 20.6125 32.319 20.6125C32.2795 20.5578 32.2385 20.5046 32.1974 20.4515H32.1959C32.1792 20.4272 32.161 20.4029 32.1412 20.3786C32.0319 20.2342 31.9194 20.0899 31.8055 19.9471C32.1959 19.8286 32.597 19.7481 32.9889 19.7466C33.0254 19.7466 33.0588 19.7481 33.0907 19.7497C33.1028 19.7497 33.1135 19.7512 33.1256 19.7527C33.1271 19.7512 33.1286 19.7512 33.1302 19.7527C33.1575 19.7542 33.1818 19.7588 33.2061 19.7633C33.2395 19.7664 33.2699 19.774 33.2988 19.7816C33.3277 19.7876 33.3535 19.7967 33.3778 19.8059C33.4279 19.8241 33.4704 19.8454 33.5115 19.8727C33.5175 19.8757 33.5236 19.8788 33.5297 19.8833C33.5434 19.8924 33.557 19.9031 33.5707 19.9152C33.5768 19.9213 33.5813 19.9259 33.5874 19.9304C33.6041 19.9456 33.6208 19.9623 33.636 19.979C33.6649 20.0125 33.6892 20.0474 33.7089 20.0854C33.7181 20.1021 33.7257 20.1188 33.7317 20.134ZM28.5896 17.8979C28.6959 18.0072 28.7992 18.1181 28.8995 18.229C28.9663 18.2989 29.0301 18.3673 29.0939 18.4387C29.1577 18.507 29.2215 18.5784 29.2853 18.6483C29.4448 18.823 29.6013 18.9992 29.7563 19.1785C29.8018 19.2286 29.8459 19.2803 29.8915 19.3334C29.934 19.382 29.9765 19.4322 30.0191 19.4823C29.8869 19.5446 29.7547 19.6053 29.6241 19.6676C29.4995 19.7284 29.375 19.7891 29.2519 19.8514C28.9967 19.979 28.743 20.1097 28.4908 20.2418C28.4392 20.1796 28.3875 20.1173 28.3359 20.055C28.266 19.9684 28.1946 19.8833 28.1217 19.7983C28.0245 19.6828 27.9273 19.5674 27.83 19.4534C27.6888 19.2878 27.546 19.1223 27.4017 18.9597C27.2862 18.826 27.1692 18.6939 27.0507 18.5648C27.0249 18.5313 26.9976 18.501 26.9687 18.4691C26.9125 18.4037 26.8533 18.3399 26.7971 18.2761H26.7955C26.794 18.2746 26.791 18.2716 26.7879 18.2685C26.8244 18.2382 26.8609 18.2093 26.8943 18.1835C27.2908 17.8796 27.745 17.6655 28.222 17.5151C28.2934 17.5865 28.3632 17.6609 28.4331 17.7338C28.4848 17.7885 28.5379 17.8417 28.5896 17.8979Z" fill="white"/>
<path d="M39.0927 14.009C39.0972 14.0424 39.1018 14.0774 39.1079 14.1123C39.1139 14.1472 39.12 14.1807 39.1276 14.2156C39.1337 14.246 39.1413 14.2779 39.1504 14.3067C39.158 14.3371 39.1671 14.3675 39.1777 14.3964C39.2415 14.5908 39.3372 14.7625 39.4557 14.9144C39.4846 14.9524 39.5165 14.9873 39.5469 15.0222C39.5484 15.0222 39.5484 15.0238 39.5484 15.0238C39.5803 15.0587 39.6137 15.0936 39.6471 15.1255C39.6836 15.1605 39.7231 15.1954 39.7626 15.2288C39.796 15.2577 39.8325 15.285 39.8674 15.3124C39.8689 15.3124 39.8689 15.3139 39.8689 15.3139C39.8811 15.323 39.8917 15.3321 39.9039 15.3382C39.9418 15.3656 39.9798 15.3929 40.0193 15.4187C40.0588 15.4445 40.0968 15.4704 40.1378 15.4947C40.1773 15.519 40.2183 15.5418 40.2593 15.5646C40.2943 15.5858 40.3292 15.6041 40.3641 15.6223C40.3885 15.636 40.4128 15.6481 40.4386 15.6603C40.4629 15.6724 40.4857 15.6846 40.5115 15.6952C40.5525 15.7165 40.5951 15.7362 40.6376 15.7544C40.6801 15.7757 40.7242 15.7939 40.7652 15.8122C40.8092 15.8304 40.8503 15.8486 40.8928 15.8669C40.952 15.8912 41.0082 15.914 41.066 15.9352C41.0675 15.9352 41.0675 15.9352 41.0675 15.9352C41.1131 15.9519 41.1541 15.9686 41.1981 15.9838H41.1997C41.2665 16.0066 41.3318 16.0279 41.3971 16.0476C41.4214 16.0552 41.4442 16.0613 41.467 16.0674C41.4944 16.075 41.5217 16.0826 41.549 16.0886C41.5764 16.0962 41.6037 16.1023 41.6311 16.1084C41.6569 16.1145 41.6842 16.1205 41.7101 16.1251C41.7465 16.1327 41.7845 16.1388 41.821 16.1449C41.8377 16.1479 41.8544 16.1494 41.8696 16.1524C41.8696 16.1524 41.8696 16.1524 41.8711 16.1524C41.8954 16.1555 41.9197 16.1585 41.9455 16.1616C41.9729 16.1631 42.0017 16.1661 42.0321 16.1692C42.0352 16.1692 42.0412 16.1692 42.0458 16.1707C42.0625 16.1707 42.0807 16.1722 42.0974 16.1722C42.4939 16.1889 42.8859 16.1008 43.2854 15.8562C43.3158 15.838 43.3431 15.8182 43.372 15.8C43.3765 15.797 43.3796 15.7939 43.3826 15.7924H43.3841C43.4084 15.7757 43.4327 15.759 43.457 15.7423C43.6257 15.6253 43.7791 15.4947 43.9158 15.3534C43.9523 15.3169 43.9857 15.2805 44.0191 15.2425C44.0464 15.2106 44.0723 15.1787 44.0996 15.1453C44.1604 15.0693 44.2181 14.9919 44.2697 14.9113C44.2895 14.8779 44.3108 14.846 44.329 14.8126C44.3503 14.7746 44.3715 14.7366 44.3913 14.6987C44.3913 14.6987 44.3928 14.6972 44.3928 14.6956C44.4125 14.6561 44.4323 14.6166 44.449 14.5771C44.4642 14.5452 44.4779 14.5118 44.49 14.4799C44.4915 14.4769 44.4931 14.4723 44.4946 14.4693C44.4961 14.4663 44.4961 14.4647 44.4976 14.4617C44.4991 14.4587 44.4991 14.4571 44.4991 14.4556C44.5417 14.4328 44.5842 14.4116 44.6252 14.3903C44.5933 14.3857 44.5614 14.3812 44.528 14.3751C44.5462 14.3204 44.5614 14.2657 44.5751 14.211C44.5827 14.1837 44.5888 14.1564 44.5948 14.1275C44.5994 14.1062 44.6039 14.0834 44.6085 14.0607C44.6161 14.012 44.6237 13.9665 44.6267 13.9194C44.6328 13.8768 44.6359 13.8328 44.6374 13.7903C44.6374 13.7599 44.6389 13.731 44.6389 13.7021C44.6389 13.6596 44.6374 13.6171 44.6359 13.5761C44.6328 13.532 44.6283 13.4895 44.6237 13.4469C44.6176 13.4044 44.6115 13.3619 44.6024 13.3178C44.5948 13.2738 44.5857 13.2312 44.5751 13.1872C44.566 13.1583 44.5584 13.1279 44.5493 13.0975C44.5417 13.0687 44.5326 13.0398 44.5219 13.0094C44.5128 12.9836 44.5037 12.9578 44.4931 12.932C44.4839 12.9061 44.4733 12.8803 44.4612 12.8545C44.452 12.8302 44.4414 12.8074 44.4308 12.7846C44.4049 12.7269 44.3761 12.6722 44.3457 12.616C44.332 12.5917 44.3184 12.5689 44.3047 12.5461C44.2895 12.5203 44.2728 12.4945 44.2576 12.4686C44.1908 12.3653 44.1194 12.2681 44.0434 12.1739C44.0206 12.1436 43.9963 12.1162 43.9705 12.0889C43.8657 11.9658 43.7517 11.8549 43.6317 11.7547C43.6272 11.7486 43.6211 11.7455 43.6165 11.741C43.574 11.7061 43.5299 11.6711 43.4859 11.6392C43.4844 11.6377 43.4844 11.6362 43.4829 11.6362C43.4403 11.6058 43.3963 11.5739 43.3537 11.545C43.3279 11.5283 43.3036 11.5131 43.2778 11.4979C43.2687 11.4919 43.2611 11.4873 43.2535 11.4827C43.2276 11.466 43.2018 11.4524 43.1745 11.4372C43.1714 11.4341 43.1684 11.4326 43.1654 11.4326C43.135 11.4144 43.1031 11.3977 43.0712 11.381C43.0256 11.3567 42.977 11.3354 42.9284 11.3141C42.9269 11.3126 42.9269 11.3126 42.9253 11.3126C42.8767 11.2898 42.8251 11.2701 42.775 11.2503C42.7309 11.2336 42.6853 11.2184 42.6398 11.2047C42.5836 11.1865 42.5243 11.1698 42.4651 11.1546C42.4362 11.1485 42.4089 11.1409 42.38 11.1349C42.2995 11.1166 42.219 11.103 42.1354 11.0923C42.105 11.0878 42.0731 11.0847 42.0443 11.0817C41.8118 11.0589 41.5734 11.065 41.3318 11.0984C41.2832 11.1015 41.23 11.1075 41.1753 11.1242C41.1146 11.1364 41.0645 11.1577 41.0204 11.1804C40.9885 11.1926 40.9581 11.2063 40.9262 11.2199C40.8958 11.2336 40.8655 11.2488 40.8351 11.2625C40.8032 11.2777 40.7743 11.2929 40.7424 11.3111C40.7151 11.3248 40.6877 11.3399 40.6619 11.3536C40.5161 11.4387 40.3748 11.5359 40.2396 11.6468C40.1788 11.6969 40.1181 11.7486 40.0588 11.8033C40.0315 11.8291 40.0026 11.858 39.9737 11.8868C39.9464 11.9111 39.9206 11.9385 39.8947 11.9658C39.7839 12.0828 39.6806 12.2089 39.5894 12.3426C39.5894 12.3426 39.5879 12.3426 39.5879 12.3441C39.5317 12.4215 39.48 12.5021 39.4329 12.5856C39.4193 12.6099 39.4041 12.6357 39.3919 12.66C39.3752 12.6889 39.3585 12.7208 39.3448 12.7512C39.3236 12.7937 39.3038 12.8347 39.2871 12.8773C39.2841 12.8803 39.2826 12.8849 39.281 12.8909C39.2658 12.9274 39.2507 12.9639 39.237 13.0003C39.2233 13.0368 39.2096 13.0748 39.1975 13.1112C39.1853 13.1492 39.1732 13.1872 39.1641 13.2236C39.1519 13.2616 39.1428 13.2996 39.1352 13.3376C39.1276 13.3725 39.12 13.4059 39.1155 13.4393C39.1003 13.5214 39.0896 13.6034 39.0866 13.6839C39.0836 13.7204 39.082 13.7568 39.082 13.7948C39.082 13.8343 39.0836 13.8738 39.0851 13.9118C39.0881 13.9452 39.0896 13.9756 39.0927 14.009ZM43.5284 13.769C43.5284 13.7796 43.5284 13.7887 43.5269 13.7978C43.5269 13.81 43.5254 13.8222 43.5239 13.8328C43.5224 13.8541 43.5193 13.8738 43.5163 13.8951C43.5072 13.9513 43.495 14.009 43.4753 14.0652C43.4692 14.0865 43.4631 14.1047 43.4555 14.126C43.4555 14.126 43.4555 14.126 43.454 14.1275C43.4494 14.1412 43.4418 14.1564 43.4358 14.1715C43.4312 14.1837 43.4266 14.1959 43.4175 14.208C43.4099 14.2278 43.4008 14.2475 43.3902 14.2657C43.3811 14.2824 43.3735 14.2976 43.3644 14.3143C43.3446 14.3432 43.3264 14.3751 43.3036 14.4055C43.2687 14.4526 43.2307 14.4997 43.1897 14.5452C43.176 14.562 43.1608 14.5771 43.1456 14.5908C43.1395 14.5984 43.1304 14.6075 43.1228 14.6136C43.1061 14.6303 43.0894 14.6455 43.0742 14.6607C43.053 14.6804 43.0302 14.6987 43.0074 14.7184C42.5668 15.0815 42.1931 15.1696 41.6432 14.9964C41.5384 14.963 41.4199 14.925 41.2984 14.8794C41.2665 14.8688 41.2376 14.8567 41.2057 14.8445C41.1753 14.8324 41.1419 14.8202 41.11 14.8065C41.066 14.7883 41.0219 14.7686 40.9779 14.7473C40.8427 14.685 40.712 14.6121 40.5966 14.5285C40.5859 14.5209 40.5768 14.5149 40.5692 14.5073C40.5601 14.5027 40.551 14.4951 40.5419 14.4875C40.5237 14.4738 40.5085 14.4602 40.4918 14.445C40.4477 14.4085 40.4097 14.369 40.3733 14.328C40.3581 14.3083 40.3414 14.29 40.3277 14.2672C40.314 14.2505 40.3019 14.2308 40.2912 14.2126C40.2472 14.1381 40.2168 14.0576 40.1986 13.9756V13.9741C40.1895 13.9346 40.1834 13.8936 40.1819 13.851C40.1788 13.813 40.1788 13.7735 40.1803 13.734C40.1803 13.7234 40.1819 13.7113 40.1834 13.7006C40.1834 13.6945 40.1834 13.6885 40.1834 13.6809C40.1849 13.6748 40.1849 13.6672 40.1864 13.6611C40.1895 13.6399 40.194 13.6171 40.197 13.5958C40.2031 13.5669 40.2092 13.5381 40.2168 13.5092C40.2214 13.488 40.2289 13.4636 40.235 13.4424C40.2457 13.4105 40.2563 13.3771 40.27 13.3452C40.2836 13.3102 40.2973 13.2738 40.3155 13.2358C40.3277 13.21 40.3414 13.1826 40.355 13.1568C40.3611 13.1431 40.3702 13.131 40.3763 13.1173C40.3839 13.1036 40.3915 13.0884 40.4006 13.0748C40.4112 13.058 40.4204 13.0429 40.4295 13.0277C40.4538 12.9897 40.4781 12.9517 40.5054 12.9153C40.5343 12.8773 40.5616 12.8393 40.592 12.8028C40.6148 12.774 40.6376 12.7466 40.6619 12.7193C40.7181 12.657 40.7758 12.5993 40.8351 12.5446C40.87 12.5127 40.9049 12.4838 40.9399 12.455C40.9657 12.4337 40.9915 12.414 41.0174 12.3957C41.0401 12.379 41.0645 12.3623 41.0903 12.3456C41.1115 12.3319 41.1328 12.3198 41.1541 12.3061C41.1723 12.2939 41.1905 12.2833 41.2072 12.2742C41.2467 12.2544 41.2847 12.2347 41.3212 12.218C41.3546 12.2043 41.388 12.1922 41.4199 12.1815C41.5642 12.1542 41.707 12.1466 41.8513 12.1572C41.8802 12.1587 41.9076 12.1618 41.9349 12.1648C41.9668 12.1679 41.9957 12.1724 42.0276 12.1785C42.0458 12.18 42.064 12.1846 42.0838 12.1891C42.102 12.1922 42.1202 12.1967 42.1385 12.2013C42.1597 12.2058 42.184 12.2119 42.2053 12.218C42.2888 12.2408 42.3709 12.2696 42.4499 12.3046C42.4696 12.3122 42.4863 12.3198 42.5046 12.3289C42.5289 12.3395 42.5516 12.3517 42.5744 12.3623C42.6701 12.4109 42.7613 12.4671 42.8448 12.5294C42.8676 12.5461 42.8889 12.5613 42.9117 12.5811C42.9345 12.5993 42.9542 12.616 42.977 12.6342C43.0059 12.6616 43.0362 12.6874 43.0651 12.7163C43.1031 12.7542 43.1395 12.7922 43.1714 12.8332C43.1882 12.8515 43.2033 12.8697 43.217 12.8909C43.2368 12.9153 43.2535 12.9396 43.2717 12.9639C43.2854 12.9821 43.2975 13.0018 43.3097 13.0201C43.3249 13.0413 43.337 13.0611 43.3477 13.0824C43.3583 13.1006 43.3674 13.1188 43.378 13.137C43.3887 13.1568 43.3978 13.175 43.4054 13.1948C43.413 13.21 43.4206 13.2251 43.4282 13.2434C43.4403 13.2692 43.4494 13.2965 43.457 13.3224C43.4631 13.3345 43.4677 13.3482 43.4707 13.3619C43.4722 13.3649 43.4737 13.3679 43.4753 13.3725C43.4798 13.3892 43.4859 13.4059 43.4905 13.4241C43.492 13.4287 43.492 13.4363 43.4935 13.4424C43.5056 13.4804 43.5117 13.5199 43.5178 13.5578C43.5193 13.5745 43.5208 13.5913 43.5224 13.6064C43.5269 13.6414 43.5299 13.6748 43.5299 13.7082C43.5299 13.7295 43.5299 13.7492 43.5284 13.769Z" fill="white"/>
<path d="M13.5794 27.0918C13.5916 27.1404 13.6052 27.1905 13.6219 27.2391C13.6979 27.4715 13.8194 27.669 13.9713 27.8422C14.2174 28.1217 14.541 28.3313 14.8813 28.503C15.0317 28.579 15.1866 28.6458 15.3385 28.7081C15.3385 28.7081 15.34 28.7096 15.3416 28.7096C15.653 28.8387 15.9568 28.9375 16.2576 28.9876C16.7513 29.0651 17.2359 29.0013 17.7296 28.6974C17.839 28.6321 17.9407 28.5592 18.038 28.4848C18.0729 28.4893 18.1078 28.4939 18.1443 28.5015C18.1352 28.4741 18.1276 28.4468 18.1185 28.4194C18.1656 28.3815 18.2096 28.3405 18.2537 28.301C18.5119 28.0594 18.7216 27.7829 18.8628 27.4852C19.1803 26.8244 19.1773 26.0542 18.6988 25.3114C18.6562 25.2445 18.6107 25.1792 18.5621 25.1169C18.5438 25.0896 18.5226 25.0622 18.5013 25.0364C18.4831 25.0136 18.4633 24.9908 18.4451 24.9681C18.4329 24.9529 18.4208 24.9392 18.4086 24.9255C18.3874 24.9012 18.3661 24.8784 18.3448 24.8541C18.1701 24.6673 17.9787 24.5063 17.7706 24.3711C17.7205 24.3392 17.6703 24.3088 17.6172 24.2799C17.5503 24.2419 17.4805 24.2055 17.4091 24.1736C17.3696 24.1538 17.3285 24.1386 17.2891 24.1204C17.2313 24.0976 17.1751 24.0763 17.1159 24.0566C17.0749 24.0429 17.0308 24.0293 16.9868 24.0171C16.9427 24.005 16.8986 23.9943 16.8516 23.9837C16.8333 23.9776 16.8151 23.9746 16.7969 23.9715C16.7574 23.9624 16.7164 23.9548 16.6753 23.9487C16.6434 23.9427 16.61 23.9381 16.5766 23.9351C16.5462 23.9305 16.5173 23.926 16.4885 23.9244C16.487 23.9244 16.487 23.9244 16.487 23.9244C16.4475 23.9199 16.408 23.9168 16.37 23.9138C16.3654 23.9153 16.3624 23.9138 16.3578 23.9138C16.3077 23.9108 16.2576 23.9108 16.2075 23.9108C16.0662 23.9108 15.9219 23.9214 15.7775 23.9411C15.7274 23.9442 15.6742 23.9503 15.6165 23.9685C15.5588 23.9791 15.5102 24.0004 15.4646 24.0232C15.4327 24.0353 15.4023 24.049 15.3704 24.0627C15.34 24.0763 15.3097 24.09 15.2778 24.1052C15.2474 24.1204 15.217 24.1356 15.1866 24.1538C15.1562 24.169 15.1243 24.1857 15.0955 24.204C15.0195 24.248 14.9436 24.2966 14.8691 24.3483C14.8251 24.3786 14.7841 24.409 14.7415 24.4425C14.7385 24.4455 14.7354 24.447 14.7324 24.45C14.6853 24.485 14.6413 24.523 14.5972 24.5625C14.5608 24.5928 14.5273 24.6247 14.4939 24.6551C14.4818 24.6658 14.4696 24.6779 14.4575 24.6901C14.4164 24.7296 14.3769 24.7691 14.339 24.8101C14.3086 24.8405 14.2797 24.8739 14.2509 24.9073C14.222 24.9407 14.1946 24.9741 14.1673 25.0076C14.1476 25.0303 14.1308 25.0516 14.1141 25.0744C14.0944 25.1002 14.0762 25.126 14.0564 25.1519C13.9698 25.2704 13.8923 25.3949 13.8255 25.524C13.8073 25.5544 13.7906 25.5878 13.7769 25.6198C13.745 25.6851 13.7161 25.7519 13.6903 25.8188C13.6766 25.8522 13.6645 25.8841 13.6523 25.919C13.6295 25.9859 13.6098 26.0542 13.5916 26.1241C13.584 26.1575 13.5764 26.1909 13.5688 26.2274C13.5278 26.4385 13.5141 26.6543 13.5399 26.8669C13.549 26.9414 13.5627 27.0158 13.5794 27.0918ZM17.4197 25.477C17.4835 25.5316 17.5412 25.5909 17.5959 25.6517C17.6308 25.6927 17.6658 25.7337 17.6977 25.7777C17.7144 25.799 17.7296 25.8203 17.7417 25.8446C17.7873 25.9099 17.8253 25.9783 17.8572 26.0497C17.8891 26.1195 17.9164 26.1925 17.9347 26.2669C17.9483 26.317 17.9575 26.3656 17.965 26.4142C17.9711 26.4704 17.9757 26.5297 17.9742 26.5874C17.9742 26.592 17.9742 26.5965 17.9726 26.5996C17.9742 26.6208 17.9726 26.6406 17.9696 26.6603C17.9681 26.6786 17.9666 26.6968 17.965 26.712C17.962 26.7348 17.9575 26.7545 17.9544 26.7758C17.9499 26.8001 17.9453 26.8214 17.9392 26.8426C17.9331 26.87 17.9256 26.8973 17.9149 26.9262C17.9104 26.9383 17.9058 26.952 17.9012 26.9642C17.8952 26.9793 17.8891 26.9976 17.88 27.0143C17.8724 27.0355 17.8618 27.0568 17.8511 27.0781C17.8298 27.1191 17.8055 27.1601 17.7797 27.2027C17.7266 27.2847 17.6597 27.3652 17.5807 27.4442C17.5412 27.4837 17.4987 27.5232 17.4516 27.5612V27.5627C17.3954 27.6082 17.3407 27.6493 17.2875 27.6872C17.2511 27.71 17.2161 27.7328 17.1812 27.7541C17.1797 27.7541 17.1797 27.7541 17.1797 27.7541C17.1098 27.7951 17.0384 27.83 16.9685 27.8559C16.9321 27.8695 16.8971 27.8817 16.8607 27.8908C16.8379 27.8954 16.8151 27.9014 16.7923 27.906C16.7483 27.9151 16.6996 27.9197 16.6541 27.9227C16.6298 27.9242 16.607 27.9257 16.5827 27.9257C16.4308 27.9257 16.2697 27.8954 16.0874 27.8392C16.0206 27.8179 15.9507 27.7951 15.8763 27.7693C15.852 27.7617 15.8262 27.7541 15.8019 27.7434C15.7062 27.71 15.6074 27.6721 15.5102 27.6295C15.5026 27.6265 15.4965 27.625 15.4889 27.6219C15.2762 27.5262 15.0666 27.4108 14.9117 27.2649C14.901 27.2573 14.8904 27.2467 14.8828 27.2376C14.8661 27.2224 14.8509 27.2072 14.8372 27.192C14.8266 27.1814 14.816 27.1692 14.8068 27.1556C14.7947 27.1419 14.7825 27.1267 14.7719 27.11C14.7263 27.0477 14.6929 26.9809 14.6701 26.9125C14.661 26.8897 14.6549 26.8669 14.6489 26.8426C14.6443 26.8229 14.6397 26.8001 14.6352 26.7788C14.6337 26.7758 14.6337 26.7743 14.6337 26.7712C14.6321 26.756 14.6306 26.7408 14.6291 26.7241C14.6139 26.592 14.6306 26.4537 14.6716 26.3155C14.6884 26.2517 14.7111 26.1879 14.74 26.1256C14.7765 26.039 14.8205 25.957 14.8706 25.8765C14.9086 25.8172 14.9481 25.7565 14.9922 25.7018C15.0499 25.6243 15.1122 25.5529 15.179 25.4861C15.3917 25.2658 15.6393 25.0972 15.8626 25.0258C16.0024 24.9984 16.1437 24.9908 16.2819 25C16.3199 25.0015 16.3548 25.006 16.3897 25.0091C16.4201 25.0136 16.449 25.0182 16.4794 25.0227C16.5492 25.0349 16.6176 25.0516 16.6844 25.0714C16.7027 25.0774 16.7209 25.082 16.7376 25.0896C16.8288 25.1184 16.9169 25.1549 17.0004 25.1959C17.0521 25.2217 17.1007 25.2491 17.1508 25.2795C17.1979 25.3083 17.245 25.3387 17.2891 25.3737C17.3346 25.4056 17.3787 25.4405 17.4197 25.477Z" fill="white"/>
</svg>
