<svg xmlns="http://www.w3.org/2000/svg" xmlns:xlink="http://www.w3.org/1999/xlink" width="1080" zoomAndPan="magnify" viewBox="0 0 810 809.999993" height="1080" preserveAspectRatio="xMidYMid meet" version="1.0"><path fill="#000000" d="M 336.03125 312.605469 C 260.359375 356.296875 375.820312 572.753906 458.625 524.945312 L 535.402344 657.921875 C 500.464844 678.09375 470.890625 690.808594 430.386719 667.65625 C 317.921875 603.367188 194.125 389.03125 197.652344 261.183594 C 198.878906 216.777344 225.039062 199.382812 259.257812 179.625 L 336.035156 312.605469 Z M 336.03125 312.605469 " fill-opacity="1" fill-rule="evenodd"/><path fill="#000000" d="M 367.769531 308.992188 C 359.59375 313.714844 349.074219 310.898438 344.351562 302.71875 L 271.972656 177.355469 C 267.25 169.175781 270.066406 158.65625 278.246094 153.933594 L 316.285156 131.972656 C 324.464844 127.25 334.988281 130.070312 339.707031 138.246094 L 412.085938 263.613281 C 416.808594 271.789062 413.988281 282.308594 405.8125 287.03125 Z M 367.769531 308.992188 " fill-opacity="1" fill-rule="evenodd"/><path fill="#000000" d="M 565.503906 651.480469 C 557.328125 656.199219 546.804688 653.382812 542.082031 645.203125 L 469.703125 519.839844 C 464.984375 511.664062 467.800781 501.140625 475.976562 496.417969 L 514.019531 474.457031 C 522.195312 469.734375 532.71875 472.554688 537.441406 480.730469 L 609.820312 606.097656 C 614.539062 614.273438 611.722656 624.792969 603.546875 629.515625 Z M 565.503906 651.480469 " fill-opacity="1" fill-rule="evenodd"/><path fill="#000000" d="M 404.875 0 L 404.882812 0 L 404.882812 0.09375 C 516.726562 0.0976562 617.941406 45.386719 691.144531 118.601562 C 764.351562 191.816406 809.644531 293.023438 809.648438 404.867188 L 809.742188 404.867188 L 809.742188 404.886719 L 809.648438 404.886719 C 809.648438 516.730469 764.355469 617.945312 691.140625 691.148438 C 617.925781 764.355469 516.71875 809.652344 404.875 809.652344 L 404.875 809.746094 L 404.859375 809.746094 L 404.859375 809.652344 C 293.015625 809.652344 191.796875 764.359375 118.59375 691.144531 C 45.386719 617.933594 0.09375 516.726562 0.0898438 404.882812 L -0.00390625 404.882812 L -0.00390625 404.863281 L 0.0898438 404.863281 C 0.0898438 293.019531 45.382812 191.804688 118.597656 118.597656 C 191.8125 45.390625 293.019531 0.0976562 404.863281 0.09375 L 404.863281 0 Z M 404.882812 48.292969 L 404.882812 48.386719 L 404.863281 48.386719 L 404.863281 48.292969 C 306.507812 48.292969 217.382812 88.238281 152.816406 152.808594 C 88.253906 217.375 48.296875 306.511719 48.296875 404.867188 L 48.390625 404.867188 L 48.390625 404.886719 L 48.296875 404.886719 C 48.300781 503.242188 88.246094 592.367188 152.8125 656.929688 C 217.382812 721.492188 306.519531 761.449219 404.871094 761.449219 L 404.871094 761.355469 L 404.890625 761.355469 L 404.890625 761.449219 C 503.246094 761.449219 592.371094 721.503906 656.933594 656.933594 C 721.5 592.367188 761.457031 503.230469 761.457031 404.875 L 761.363281 404.875 L 761.363281 404.855469 L 761.457031 404.855469 C 761.453125 306.5 721.507812 217.375 656.941406 152.8125 C 592.371094 88.25 503.234375 48.292969 404.882812 48.292969 Z M 404.882812 48.292969 " fill-opacity="1" fill-rule="nonzero"/></svg>