<svg width="324" height="76" viewBox="0 0 324 76" fill="none" xmlns="http://www.w3.org/2000/svg">
<path d="M2.90267 1.5019C1.52301 1.55565 0.448142 2.71766 0.501895 4.09733L1.37785 26.5803C1.43161 27.9599 2.59362 29.0348 3.97329 28.981C5.35295 28.9273 6.42782 27.7653 6.37406 26.3856L5.59543 6.40078L25.5803 5.62215C26.9599 5.56839 28.0348 4.40638 27.981 3.02671C27.9273 1.64705 26.7653 0.572183 25.3856 0.625937L2.90267 1.5019ZM321.517 74.9999C322.898 74.9903 324.01 73.8632 324 72.4825L323.843 49.9831C323.833 48.6024 322.706 47.491 321.325 47.5006C319.944 47.5103 318.833 48.6374 318.843 50.018L318.983 70.0175L298.983 70.1574C297.602 70.1671 296.491 71.2941 296.501 72.6748C296.51 74.0555 297.637 75.1669 299.018 75.1573L321.517 74.9999ZM1.3024 5.83525C52.2939 53.0024 106.158 43.1989 159.608 35.4743C186.441 31.5962 213.159 28.2223 239.853 32.3457C266.445 36.4533 293.12 48.0251 319.745 74.2801L323.255 70.7199C295.88 43.7249 268.243 31.6717 240.616 27.4043C213.091 23.1527 185.684 26.6537 158.892 30.5257C105.092 38.3011 53.7061 47.4976 4.6976 2.16475L1.3024 5.83525Z" fill="#FFCC00"/>
</svg>
