<svg xmlns="http://www.w3.org/2000/svg" xmlns:xlink="http://www.w3.org/1999/xlink" width="1080" zoomAndPan="magnify" viewBox="0 0 810 809.999993" height="1080" preserveAspectRatio="xMidYMid meet" version="1.0"><defs><clipPath id="8bc75bae61"><path d="M 13 115.929688 L 794 115.929688 L 794 433 L 13 433 Z M 13 115.929688 " clip-rule="nonzero"/></clipPath><clipPath id="63769b7d97"><path d="M 0 213 L 810 213 L 810 694.179688 L 0 694.179688 Z M 0 213 " clip-rule="nonzero"/></clipPath></defs><g clip-path="url(#8bc75bae61)"><path fill="#000000" d="M 352.015625 414.539062 C 353.894531 415.984375 355.832031 417.351562 357.828125 418.636719 C 359.820312 419.921875 361.863281 421.125 363.957031 422.242188 C 366.046875 423.363281 368.183594 424.394531 370.359375 425.339844 C 372.535156 426.28125 374.746094 427.136719 376.992188 427.898438 C 379.242188 428.660156 381.515625 429.332031 383.816406 429.910156 C 386.117188 430.484375 388.4375 430.96875 390.777344 431.355469 C 393.121094 431.738281 395.472656 432.03125 397.835938 432.222656 C 400.203125 432.417969 402.570312 432.515625 404.941406 432.515625 C 407.316406 432.515625 409.683594 432.417969 412.046875 432.222656 C 414.414062 432.03125 416.765625 431.738281 419.105469 431.355469 C 421.445312 430.96875 423.765625 430.484375 426.070312 429.910156 C 428.371094 429.332031 430.644531 428.660156 432.890625 427.898438 C 435.136719 427.136719 437.347656 426.28125 439.523438 425.339844 C 441.703125 424.394531 443.835938 423.363281 445.929688 422.242188 C 448.019531 421.125 450.0625 419.921875 452.058594 418.636719 C 454.050781 417.351562 455.988281 415.984375 457.871094 414.539062 L 793.765625 152.765625 C 791.777344 149.933594 789.628906 147.226562 787.320312 144.652344 C 785.007812 142.074219 782.550781 139.648438 779.949219 137.367188 C 777.347656 135.085938 774.617188 132.96875 771.761719 131.015625 C 768.90625 129.0625 765.941406 127.289062 762.871094 125.691406 C 759.800781 124.09375 756.648438 122.6875 753.410156 121.46875 C 750.171875 120.25 746.871094 119.230469 743.511719 118.40625 C 740.148438 117.585938 736.75 116.964844 733.316406 116.550781 C 729.878906 116.136719 726.433594 115.929688 722.972656 115.929688 L 87.027344 115.929688 C 83.363281 115.941406 79.714844 116.179688 76.082031 116.652344 C 72.449219 117.125 68.859375 117.824219 65.3125 118.753906 C 61.769531 119.679688 58.296875 120.828125 54.898438 122.199219 C 51.5 123.570312 48.203125 125.148438 45.003906 126.9375 C 41.808594 128.726562 38.734375 130.710938 35.789062 132.890625 C 32.84375 135.066406 30.046875 137.425781 27.402344 139.960938 C 24.757812 142.496094 22.28125 145.1875 19.976562 148.035156 C 17.671875 150.886719 15.558594 153.867188 13.632812 156.988281 Z M 352.015625 414.539062 " fill-opacity="1" fill-rule="nonzero"/></g><g clip-path="url(#63769b7d97)"><path fill="#000000" d="M 493.28125 460.367188 C 491.714844 461.570312 490.125 462.738281 488.507812 463.878906 C 486.894531 465.015625 485.257812 466.121094 483.597656 467.191406 C 481.9375 468.261719 480.257812 469.300781 478.554688 470.300781 C 476.851562 471.304688 475.128906 472.269531 473.390625 473.203125 C 471.648438 474.132812 469.886719 475.03125 468.109375 475.890625 C 466.332031 476.75 464.535156 477.570312 462.722656 478.359375 C 460.910156 479.144531 459.082031 479.894531 457.242188 480.605469 C 455.398438 481.316406 453.542969 481.988281 451.671875 482.625 C 449.800781 483.261719 447.917969 483.855469 446.023438 484.414062 C 444.128906 484.972656 442.222656 485.492188 440.308594 485.972656 C 438.390625 486.453125 436.46875 486.894531 434.53125 487.296875 C 432.597656 487.695312 430.65625 488.058594 428.707031 488.378906 C 426.761719 488.703125 424.804688 488.984375 422.84375 489.226562 C 420.886719 489.46875 418.921875 489.671875 416.953125 489.832031 C 414.984375 489.992188 413.011719 490.113281 411.039062 490.195312 C 409.066406 490.277344 407.089844 490.316406 405.117188 490.316406 C 403.140625 490.316406 401.167969 490.277344 399.191406 490.195312 C 397.21875 490.113281 395.246094 489.992188 393.28125 489.832031 C 391.3125 489.671875 389.347656 489.46875 387.386719 489.226562 C 385.425781 488.984375 383.472656 488.703125 381.523438 488.378906 C 379.574219 488.058594 377.632812 487.695312 375.699219 487.296875 C 373.765625 486.894531 371.839844 486.453125 369.921875 485.972656 C 368.007812 485.492188 366.101562 484.972656 364.207031 484.414062 C 362.3125 483.855469 360.429688 483.261719 358.558594 482.625 C 356.691406 481.988281 354.832031 481.316406 352.992188 480.605469 C 351.148438 479.894531 349.320312 479.144531 347.507812 478.359375 C 345.695312 477.570312 343.902344 476.75 342.121094 475.890625 C 340.34375 475.03125 338.582031 474.132812 336.84375 473.203125 C 335.101562 472.269531 333.378906 471.304688 331.675781 470.300781 C 329.972656 469.300781 328.292969 468.261719 326.632812 467.191406 C 324.972656 466.121094 323.335938 465.015625 321.722656 463.878906 C 320.109375 462.738281 318.515625 461.570312 316.949219 460.367188 L 0.308594 219.523438 L 0.308594 607.445312 C 0.308594 608.863281 0.34375 610.28125 0.410156 611.699219 C 0.480469 613.117188 0.585938 614.53125 0.726562 615.945312 C 0.863281 617.359375 1.039062 618.765625 1.246094 620.171875 C 1.453125 621.574219 1.695312 622.972656 1.972656 624.367188 C 2.25 625.757812 2.5625 627.140625 2.90625 628.519531 C 3.25 629.894531 3.628906 631.265625 4.042969 632.621094 C 4.453125 633.980469 4.898438 635.328125 5.375 636.664062 C 5.855469 638 6.363281 639.324219 6.90625 640.636719 C 7.453125 641.949219 8.027344 643.246094 8.632812 644.527344 C 9.238281 645.8125 9.878906 647.078125 10.546875 648.332031 C 11.214844 649.582031 11.914062 650.816406 12.644531 652.035156 C 13.375 653.253906 14.132812 654.453125 14.921875 655.632812 C 15.710938 656.8125 16.527344 657.972656 17.371094 659.113281 C 18.21875 660.253906 19.089844 661.371094 19.992188 662.46875 C 20.890625 663.566406 21.820312 664.640625 22.773438 665.691406 C 23.726562 666.746094 24.703125 667.773438 25.707031 668.777344 C 26.710938 669.78125 27.738281 670.757812 28.789062 671.710938 C 29.839844 672.664062 30.914062 673.59375 32.011719 674.492188 C 33.109375 675.394531 34.226562 676.265625 35.367188 677.113281 C 36.507812 677.957031 37.667969 678.773438 38.847656 679.5625 C 40.027344 680.351562 41.226562 681.109375 42.445312 681.839844 C 43.660156 682.570312 44.894531 683.269531 46.148438 683.9375 C 47.398438 684.609375 48.667969 685.246094 49.949219 685.851562 C 51.230469 686.460938 52.53125 687.035156 53.839844 687.578125 C 55.152344 688.121094 56.476562 688.632812 57.8125 689.109375 C 59.148438 689.589844 60.496094 690.035156 61.851562 690.445312 C 63.210938 690.859375 64.578125 691.238281 65.957031 691.582031 C 67.332031 691.925781 68.714844 692.238281 70.109375 692.515625 C 71.5 692.792969 72.898438 693.035156 74.300781 693.242188 C 75.707031 693.449219 77.113281 693.625 78.527344 693.761719 C 79.9375 693.902344 81.355469 694.007812 82.773438 694.078125 C 84.1875 694.144531 85.609375 694.179688 87.027344 694.179688 L 722.972656 694.179688 C 724.390625 694.179688 725.8125 694.144531 727.226562 694.078125 C 728.644531 694.007812 730.0625 693.902344 731.472656 693.761719 C 732.886719 693.625 734.292969 693.449219 735.699219 693.242188 C 737.101562 693.035156 738.5 692.792969 739.890625 692.515625 C 741.28125 692.238281 742.667969 691.925781 744.042969 691.582031 C 745.421875 691.238281 746.789062 690.859375 748.144531 690.445312 C 749.503906 690.035156 750.851562 689.589844 752.1875 689.109375 C 753.523438 688.632812 754.847656 688.121094 756.160156 687.578125 C 757.46875 687.035156 758.765625 686.460938 760.050781 685.851562 C 761.332031 685.246094 762.601562 684.609375 763.851562 683.9375 C 765.105469 683.269531 766.339844 682.570312 767.554688 681.839844 C 768.773438 681.109375 769.972656 680.351562 771.152344 679.5625 C 772.332031 678.773438 773.492188 677.957031 774.632812 677.113281 C 775.773438 676.265625 776.890625 675.394531 777.988281 674.492188 C 779.085938 673.59375 780.160156 672.664062 781.210938 671.710938 C 782.261719 670.757812 783.289062 669.78125 784.292969 668.777344 C 785.296875 667.773438 786.273438 666.746094 787.226562 665.691406 C 788.179688 664.640625 789.109375 663.566406 790.007812 662.46875 C 790.910156 661.371094 791.78125 660.253906 792.628906 659.113281 C 793.472656 657.972656 794.289062 656.8125 795.078125 655.632812 C 795.867188 654.453125 796.625 653.253906 797.355469 652.035156 C 798.085938 650.816406 798.785156 649.582031 799.453125 648.332031 C 800.121094 647.078125 800.761719 645.8125 801.367188 644.527344 C 801.972656 643.246094 802.546875 641.949219 803.089844 640.636719 C 803.636719 639.324219 804.144531 638 804.625 636.664062 C 805.101562 635.328125 805.546875 633.980469 805.957031 632.621094 C 806.371094 631.265625 806.75 629.894531 807.09375 628.519531 C 807.4375 627.140625 807.75 625.757812 808.027344 624.367188 C 808.304688 622.972656 808.546875 621.574219 808.753906 620.171875 C 808.960938 618.765625 809.136719 617.359375 809.273438 615.945312 C 809.414062 614.53125 809.519531 613.117188 809.589844 611.699219 C 809.65625 610.28125 809.691406 608.863281 809.691406 607.445312 L 809.691406 213.800781 Z M 493.28125 460.367188 " fill-opacity="1" fill-rule="nonzero"/></g></svg>