<svg xmlns="http://www.w3.org/2000/svg" xmlns:xlink="http://www.w3.org/1999/xlink" width="1080" zoomAndPan="magnify" viewBox="0 0 810 809.999993" height="1080" preserveAspectRatio="xMidYMid meet" version="1.0"><rect x="-81" width="972" fill="#ffffff" y="-80.999999" height="971.999992" fill-opacity="1"/><rect x="-81" width="972" fill="#ffffff" y="-80.999999" height="971.999992" fill-opacity="1"/><path fill="#000000" d="M 321.566406 462.597656 L 309.457031 455.527344 L 309.457031 403.59375 C 317.078125 405.945312 323.3125 411.980469 325.648438 419.871094 C 326.652344 423.277344 330.234375 425.214844 333.636719 424.214844 C 337.039062 423.207031 338.984375 419.628906 337.976562 416.222656 C 334.027344 402.878906 322.796875 392.996094 309.457031 390.367188 L 309.457031 377.160156 C 309.457031 373.609375 306.582031 370.730469 303.03125 370.730469 C 299.480469 370.730469 296.601562 373.609375 296.601562 377.160156 L 296.601562 390.132812 C 279.769531 392.914062 266.890625 407.558594 266.890625 425.167969 C 266.890625 437.742188 273.636719 449.492188 284.496094 455.832031 L 296.601562 462.90625 L 296.601562 514.839844 C 288.980469 512.488281 282.746094 506.449219 280.414062 498.5625 C 279.40625 495.15625 275.828125 493.21875 272.421875 494.21875 C 269.019531 495.226562 267.074219 498.804688 268.082031 502.210938 C 272.03125 515.554688 283.261719 525.4375 296.601562 528.0625 L 296.601562 541.273438 C 296.601562 544.824219 299.480469 547.703125 303.03125 547.703125 C 306.582031 547.703125 309.457031 544.824219 309.457031 541.273438 L 309.457031 528.296875 C 326.289062 525.519531 339.167969 510.871094 339.167969 493.265625 C 339.167969 480.691406 332.421875 468.9375 321.566406 462.597656 Z M 296.601562 448.015625 L 290.976562 444.730469 C 284.050781 440.6875 279.75 433.1875 279.75 425.167969 C 279.75 414.683594 286.917969 405.863281 296.601562 403.292969 Z M 309.457031 515.140625 L 309.457031 470.414062 L 315.082031 473.699219 C 322.007812 477.746094 326.3125 485.242188 326.3125 493.265625 C 326.3125 503.75 319.144531 512.566406 309.457031 515.140625 Z M 545.851562 239.980469 C 545.851562 243.53125 548.726562 246.410156 552.277344 246.410156 C 555.828125 246.410156 558.707031 243.53125 558.707031 239.980469 L 558.707031 227.007812 C 575.539062 224.226562 588.417969 209.578125 588.417969 191.972656 C 588.417969 179.402344 581.671875 167.648438 570.8125 161.308594 L 558.707031 154.234375 L 558.707031 102.304688 C 566.328125 104.65625 572.5625 110.691406 574.894531 118.582031 C 575.90625 121.988281 579.480469 123.921875 582.886719 122.921875 C 586.289062 121.914062 588.234375 118.335938 587.226562 114.929688 C 583.277344 101.589844 572.042969 91.707031 558.707031 89.078125 L 558.707031 75.871094 C 558.707031 72.320312 555.828125 69.441406 552.277344 69.441406 C 548.726562 69.441406 545.851562 72.320312 545.851562 75.871094 L 545.851562 88.84375 C 529.019531 91.625 516.140625 106.269531 516.140625 123.878906 C 516.140625 136.453125 522.882812 148.203125 533.742188 154.542969 L 545.851562 161.617188 L 545.851562 213.550781 C 538.230469 211.199219 531.996094 205.160156 529.660156 197.269531 C 528.652344 193.863281 525.078125 191.929688 521.671875 192.929688 C 518.269531 193.9375 516.324219 197.515625 517.332031 200.917969 C 521.28125 214.261719 532.511719 224.148438 545.851562 226.773438 Z M 558.707031 169.125 L 564.328125 172.410156 C 571.257812 176.457031 575.558594 183.953125 575.558594 191.972656 C 575.558594 202.457031 568.390625 211.277344 558.707031 213.851562 Z M 540.226562 143.441406 C 533.300781 139.398438 528.996094 131.898438 528.996094 123.878906 C 528.996094 113.394531 536.164062 104.574219 545.851562 102.003906 L 545.851562 146.726562 Z M 480.199219 161.308594 L 468.089844 154.234375 L 468.089844 102.304688 C 475.710938 104.65625 481.945312 110.691406 484.28125 118.582031 C 485.289062 121.988281 488.867188 123.921875 492.269531 122.921875 C 495.671875 121.914062 497.617188 118.335938 496.609375 114.933594 C 492.660156 101.589844 481.429688 91.707031 468.089844 89.078125 L 468.089844 75.871094 C 468.089844 72.320312 465.214844 69.441406 461.664062 69.441406 C 458.113281 69.441406 455.234375 72.320312 455.234375 75.871094 L 455.234375 88.84375 C 438.40625 91.625 425.523438 106.269531 425.523438 123.878906 C 425.523438 136.453125 432.269531 148.203125 443.128906 154.542969 L 455.234375 161.617188 L 455.234375 213.550781 C 447.613281 211.199219 441.378906 205.160156 439.046875 197.269531 C 438.039062 193.863281 434.464844 191.929688 431.054688 192.929688 C 427.652344 193.9375 425.710938 197.515625 426.714844 200.917969 C 430.664062 214.261719 441.894531 224.148438 455.234375 226.773438 L 455.234375 239.984375 C 455.234375 243.535156 458.113281 246.410156 461.664062 246.410156 C 465.214844 246.410156 468.089844 243.535156 468.089844 239.984375 L 468.089844 227.007812 C 484.921875 224.230469 497.800781 209.582031 497.800781 191.976562 C 497.800781 179.398438 491.054688 167.648438 480.199219 161.308594 Z M 455.234375 146.726562 L 449.609375 143.441406 C 442.683594 139.398438 438.382812 131.898438 438.382812 123.878906 C 438.382812 113.394531 445.550781 104.574219 455.234375 102.003906 Z M 468.089844 213.851562 L 468.089844 169.125 L 473.714844 172.410156 C 480.640625 176.457031 484.945312 183.953125 484.945312 191.976562 C 484.945312 202.457031 477.777344 211.277344 468.089844 213.851562 Z M 537.503906 272.695312 C 564.804688 271.136719 598.328125 312.75 608.914062 328.902344 C 610.101562 330.714844 612.125 331.808594 614.292969 331.808594 L 803.570312 331.808594 C 807.121094 331.808594 810 328.929688 810 325.378906 C 810 321.832031 807.121094 318.953125 803.570312 318.953125 L 617.691406 318.953125 C 613.925781 313.554688 605.175781 301.671875 593.605469 289.960938 C 637.773438 260.898438 664.894531 211.0625 664.894531 157.925781 C 664.894531 70.84375 594.050781 0 506.96875 0 C 419.886719 0 349.042969 70.84375 349.042969 157.925781 C 349.042969 214.875 379.238281 266.402344 427.480469 294.421875 C 418.082031 297.140625 410.832031 301.816406 406.496094 308.371094 C 400.511719 317.421875 400.925781 328.8125 407.347656 340.648438 C 378.507812 315.191406 341.875 301.292969 303.027344 301.292969 C 215.945312 301.292969 145.101562 372.136719 145.101562 459.21875 C 145.101562 512.347656 172.214844 562.171875 216.371094 591.238281 C 204.808594 602.953125 196.070312 614.84375 192.304688 620.242188 L 6.429688 620.242188 C 2.878906 620.242188 0 623.121094 0 626.671875 C 0 630.222656 2.878906 633.101562 6.429688 633.101562 L 195.707031 633.101562 C 197.875 633.101562 199.898438 632.003906 201.085938 630.191406 C 211.671875 614.042969 245.195312 572.464844 272.496094 573.988281 C 286.390625 574.761719 297.605469 584.511719 304.566406 592.546875 C 319.417969 609.703125 328.265625 634.042969 327.210938 646.011719 C 326.710938 651.648438 323.863281 655.148438 318.746094 656.410156 C 305.5 659.683594 281.644531 647.988281 263.53125 619.875 C 261.609375 616.890625 257.632812 616.027344 254.648438 617.953125 C 251.664062 619.875 250.800781 623.851562 252.726562 626.835938 C 259.355469 637.125 266.542969 645.367188 273.832031 651.769531 C 270.476562 657.050781 268.742188 662.714844 268.734375 668.277344 L 268.71875 668.277344 L 268.714844 768.289062 C 255.386719 765.988281 225.335938 758.863281 199.671875 738.769531 C 198.542969 737.882812 197.148438 737.402344 195.710938 737.402344 L 6.429688 737.402344 C 2.878906 737.402344 0 740.277344 0 743.828125 C 0 747.378906 2.878906 750.257812 6.429688 750.257812 L 193.519531 750.257812 C 223.058594 772.628906 256.414062 779.511719 269.234375 781.421875 C 271.976562 797.617188 286.066406 810 303.03125 810 C 319.753906 810 333.699219 797.96875 336.71875 782.113281 L 358.335938 782.113281 C 379.355469 782.113281 388.753906 769.960938 390.539062 758.589844 C 391.773438 750.734375 389.648438 743.015625 385.242188 737.21875 C 391.535156 733.300781 395.917969 726.660156 397.148438 718.328125 C 398.246094 710.894531 396.550781 702.253906 391.253906 695.578125 C 403.515625 690.113281 410 678.507812 410 667.40625 C 410 659.417969 406.820312 652.058594 401.039062 646.679688 C 400.785156 646.441406 400.496094 646.238281 400.234375 646.007812 C 408.921875 632.734375 410.171875 619.75 403.5 609.660156 C 399.167969 603.109375 391.925781 598.433594 382.535156 595.714844 C 424.328125 571.410156 452.867188 529.226562 459.480469 480.820312 L 473.28125 480.820312 C 476.300781 496.675781 490.246094 508.707031 506.96875 508.707031 C 523.933594 508.707031 538.023438 496.324219 540.765625 480.128906 C 553.585938 478.214844 586.941406 471.335938 616.476562 448.960938 L 803.570312 448.960938 C 807.121094 448.960938 810 446.082031 810 442.53125 C 810 438.984375 807.121094 436.105469 803.570312 436.105469 L 614.292969 436.105469 C 612.855469 436.105469 611.460938 436.585938 610.328125 437.472656 C 584.664062 457.570312 554.609375 464.695312 541.285156 466.992188 L 541.28125 366.984375 L 541.269531 366.984375 C 541.257812 361.417969 539.527344 355.753906 536.167969 350.472656 C 543.457031 344.070312 550.648438 335.832031 557.273438 325.539062 C 559.199219 322.554688 558.335938 318.578125 555.351562 316.65625 C 552.371094 314.734375 548.390625 315.589844 546.46875 318.578125 C 528.355469 346.695312 504.507812 358.386719 491.257812 355.113281 C 486.136719 353.851562 483.289062 350.351562 482.792969 344.71875 C 481.738281 332.746094 490.585938 308.40625 505.433594 291.253906 C 512.394531 283.21875 523.609375 273.472656 537.503906 272.695312 Z M 417.222656 315.464844 C 423.527344 305.929688 445.382812 300.121094 479.199219 308.359375 C 474.4375 318.363281 471.421875 328.269531 470.328125 336.464844 L 434.710938 336.464844 C 429.753906 336.464844 425.179688 337.167969 421.054688 338.492188 C 416.578125 331.964844 412.386719 322.777344 417.222656 315.464844 Z M 303.03125 797.144531 C 291.199219 797.144531 281.570312 787.519531 281.570312 775.683594 L 281.574219 691.386719 C 286.132812 694.480469 291.707031 696.675781 298.050781 697.832031 C 294.179688 703.765625 292.390625 711.121094 293.539062 718.578125 C 294.921875 727.519531 300.121094 734.375 307.714844 738.0625 C 302.878906 744.484375 301.078125 752.460938 303.058594 760.539062 C 305.601562 770.878906 313.664062 778.675781 323.738281 781.222656 C 321.285156 790.375 312.945312 797.144531 303.03125 797.144531 Z M 377.839844 756.597656 C 376.574219 764.644531 369.464844 769.257812 358.335938 769.257812 L 330.914062 769.257812 C 322.300781 769.257812 316.988281 763.339844 315.546875 757.472656 C 313.960938 751.019531 316.835938 744.988281 323.265625 741.101562 L 370.074219 741.101562 C 376.085938 743.558594 378.757812 750.746094 377.839844 756.597656 Z M 384.429688 716.453125 C 383.589844 722.152344 379.679688 728.242188 371.246094 728.242188 L 321.585938 728.242188 C 309.363281 728.242188 306.789062 720.109375 306.246094 716.617188 C 305.230469 710.039062 308.398438 701.738281 316.191406 698.796875 L 374.207031 698.796875 C 382.613281 701.753906 385.425781 709.699219 384.429688 716.453125 Z M 375.289062 685.941406 L 308.898438 685.941406 C 295.882812 685.941406 286.105469 681.40625 282.738281 673.8125 C 280.792969 669.425781 281.316406 664.429688 284.105469 659.585938 C 294.910156 666.589844 305.460938 669.761719 314.269531 669.761719 C 316.96875 669.761719 319.5 669.464844 321.828125 668.890625 C 331.269531 666.558594 337.554688 659.976562 339.496094 650.613281 L 375.289062 650.613281 C 382.550781 650.613281 388.425781 652.507812 392.28125 656.097656 C 395.414062 659.015625 397.144531 663.03125 397.144531 667.40625 C 397.144531 676.617188 389.636719 685.941406 375.289062 685.941406 Z M 392.777344 616.753906 C 397.613281 624.070312 393.421875 633.257812 388.945312 639.785156 C 384.820312 638.460938 380.246094 637.757812 375.289062 637.757812 L 339.667969 637.757812 C 338.578125 629.5625 335.5625 619.65625 330.800781 609.652344 C 364.617188 601.410156 386.46875 607.21875 392.777344 616.753906 Z M 359.363281 592.929688 C 348.785156 593.046875 336.972656 594.71875 324.425781 598.011719 C 321.433594 593.195312 318.066406 588.5 314.285156 584.132812 C 301.972656 569.910156 287.769531 561.960938 273.210938 561.148438 C 272.484375 561.109375 271.761719 561.089844 271.035156 561.089844 C 255.191406 561.089844 239.394531 570.601562 226.023438 582.179688 C 183.925781 555.742188 157.960938 509.054688 157.960938 459.21875 C 157.960938 379.226562 223.039062 314.148438 303.03125 314.148438 C 340.496094 314.148438 375.695312 328.246094 402.746094 353.902344 C 400.964844 357.648438 400 361.785156 400 366.117188 C 400 377.21875 406.484375 388.824219 418.746094 394.289062 C 413.449219 400.964844 411.753906 409.601562 412.851562 417.039062 C 414.082031 425.367188 418.464844 432.011719 424.757812 435.929688 C 420.351562 441.726562 418.226562 449.445312 419.460938 457.300781 C 421.09375 467.691406 429.113281 478.707031 446.523438 480.53125 C 439.171875 530.539062 406.316406 573.128906 359.363281 592.929688 Z M 435.792969 397.507812 L 493.8125 397.507812 C 501.601562 400.449219 504.769531 408.75 503.753906 415.324219 C 503.210938 418.820312 500.636719 426.953125 488.417969 426.953125 L 438.757812 426.953125 C 430.320312 426.953125 426.414062 420.859375 425.574219 415.160156 C 424.574219 408.410156 427.386719 400.464844 435.792969 397.507812 Z M 479.085938 467.964844 L 451.664062 467.964844 C 440.535156 467.964844 433.425781 463.351562 432.160156 455.304688 C 431.242188 449.457031 433.914062 442.269531 439.925781 439.808594 L 486.738281 439.808594 C 493.164062 443.695312 496.039062 449.726562 494.453125 456.183594 C 493.011719 462.046875 487.703125 467.964844 479.085938 467.964844 Z M 528.429688 474.394531 C 528.429688 486.226562 518.804688 495.851562 506.96875 495.851562 C 497.054688 495.851562 488.714844 489.085938 486.261719 479.933594 C 496.335938 477.390625 504.398438 469.585938 506.9375 459.25 C 508.921875 451.171875 507.121094 443.195312 502.285156 436.773438 C 509.878906 433.085938 515.078125 426.230469 516.460938 417.289062 C 517.609375 409.832031 515.820312 402.476562 511.949219 396.542969 C 518.292969 395.382812 523.867188 393.191406 528.425781 390.097656 Z M 488.171875 367.601562 C 490.5 368.175781 493.03125 368.472656 495.730469 368.472656 C 504.539062 368.472656 515.089844 365.300781 525.894531 358.296875 C 528.683594 363.140625 529.207031 368.136719 527.261719 372.519531 C 523.894531 380.117188 514.113281 384.648438 501.101562 384.648438 L 434.710938 384.648438 C 420.359375 384.648438 412.855469 375.328125 412.855469 366.121094 C 412.855469 361.742188 414.582031 357.726562 417.71875 354.808594 C 421.570312 351.222656 427.449219 349.324219 434.707031 349.324219 L 470.503906 349.324219 C 472.445312 358.6875 478.730469 365.269531 488.171875 367.601562 Z M 495.714844 282.84375 C 491.933594 287.207031 488.566406 291.902344 485.574219 296.71875 C 473.03125 293.429688 461.21875 291.757812 450.640625 291.636719 C 396.703125 268.898438 361.898438 216.53125 361.898438 157.925781 C 361.902344 77.933594 426.980469 12.855469 506.96875 12.855469 C 586.960938 12.855469 652.039062 77.933594 652.039062 157.925781 C 652.039062 207.769531 626.0625 254.46875 583.957031 280.902344 C 569.972656 268.808594 553.34375 258.964844 536.789062 259.859375 C 522.230469 260.671875 508.027344 268.621094 495.714844 282.84375 Z M 786.101562 164.355469 L 682.828125 164.355469 C 679.277344 164.355469 676.398438 161.476562 676.398438 157.925781 C 676.398438 154.375 679.277344 151.496094 682.828125 151.496094 L 786.101562 151.496094 C 789.648438 151.496094 792.527344 154.375 792.527344 157.925781 C 792.527344 161.476562 789.648438 164.355469 786.101562 164.355469 Z M 674.570312 124.390625 C 672.832031 121.292969 673.929688 117.375 677.019531 115.632812 L 738.152344 81.234375 C 741.25 79.492188 745.167969 80.59375 746.910156 83.683594 C 748.648438 86.78125 747.550781 90.699219 744.460938 92.441406 L 683.328125 126.839844 C 682.332031 127.398438 681.246094 127.667969 680.179688 127.667969 C 677.933594 127.667969 675.753906 126.488281 674.570312 124.390625 Z M 674.570312 191.460938 C 676.3125 188.367188 680.230469 187.269531 683.328125 189.011719 L 744.460938 223.414062 C 747.554688 225.152344 748.648438 229.074219 746.910156 232.167969 C 745.730469 234.265625 743.546875 235.445312 741.300781 235.445312 C 740.230469 235.445312 739.148438 235.179688 738.152344 234.617188 L 677.019531 200.214844 C 673.929688 198.472656 672.832031 194.554688 674.570312 191.460938 Z M 331.113281 164.355469 L 227.839844 164.355469 C 224.289062 164.355469 221.410156 161.476562 221.410156 157.925781 C 221.410156 154.375 224.289062 151.496094 227.839844 151.496094 L 331.113281 151.496094 C 334.660156 151.496094 337.539062 154.375 337.539062 157.925781 C 337.539062 161.476562 334.660156 164.355469 331.113281 164.355469 Z M 339.367188 124.390625 C 338.1875 126.488281 336.003906 127.667969 333.757812 127.667969 C 332.691406 127.667969 331.609375 127.398438 330.613281 126.839844 L 269.480469 92.441406 C 266.386719 90.699219 265.292969 86.78125 267.03125 83.683594 C 268.773438 80.589844 272.691406 79.492188 275.789062 81.234375 L 336.917969 115.632812 C 340.011719 117.375 341.109375 121.296875 339.367188 124.390625 Z M 267.03125 232.167969 C 265.289062 229.074219 266.386719 225.15625 269.480469 223.414062 L 330.609375 189.011719 C 333.707031 187.269531 337.625 188.367188 339.367188 191.460938 C 341.105469 194.554688 340.007812 198.472656 336.917969 200.214844 L 275.785156 234.617188 C 274.789062 235.179688 273.707031 235.445312 272.640625 235.445312 C 270.390625 235.445312 268.210938 234.265625 267.03125 232.167969 Z M 267.03125 232.167969 " fill-opacity="1" fill-rule="nonzero"/></svg>