<svg xmlns="http://www.w3.org/2000/svg" xmlns:xlink="http://www.w3.org/1999/xlink" width="1080" zoomAndPan="magnify" viewBox="0 0 810 809.999993" height="1080" preserveAspectRatio="xMidYMid meet" version="1.0"><defs><clipPath id="eec583b913"><path d="M 12.148438 17 L 798 17 L 798 803 L 12.148438 803 Z M 12.148438 17 " clip-rule="nonzero"/></clipPath><clipPath id="82646f82be"><path d="M 218.238281 0 L 589.839844 0 L 589.839844 371.601562 L 218.238281 371.601562 Z M 218.238281 0 " clip-rule="nonzero"/></clipPath><clipPath id="b5e4517fa5"><path d="M 404.039062 0 C 301.425781 0 218.238281 83.1875 218.238281 185.800781 C 218.238281 288.414062 301.425781 371.601562 404.039062 371.601562 C 506.65625 371.601562 589.839844 288.414062 589.839844 185.800781 C 589.839844 83.1875 506.65625 0 404.039062 0 Z M 404.039062 0 " clip-rule="nonzero"/></clipPath><clipPath id="03caac68f1"><path d="M 369 60 L 690 60 L 690 368 L 369 368 Z M 369 60 " clip-rule="nonzero"/></clipPath><clipPath id="67122e42b9"><path d="M 490.941406 19.214844 L 690.289062 128.316406 L 515.652344 447.402344 L 316.304688 338.300781 Z M 490.941406 19.214844 " clip-rule="nonzero"/></clipPath><clipPath id="d72b2c48fc"><path d="M 490.941406 19.214844 L 690.289062 128.316406 L 515.652344 447.402344 L 316.304688 338.300781 Z M 490.941406 19.214844 " clip-rule="nonzero"/></clipPath></defs><g clip-path="url(#eec583b913)"><path fill="#000000" d="M 311.84375 657.046875 C 330.53125 661.363281 342.667969 675.828125 344.351562 696.4375 C 344.804688 701.992188 348.753906 706.40625 354.222656 707.476562 C 378.582031 712.230469 392.632812 734.058594 388.648438 756.660156 C 388.183594 759.351562 387.714844 761.230469 387.222656 762.609375 C 385.109375 768.71875 388.058594 775.378906 394 777.910156 C 408.714844 784.203125 427.453125 792.546875 438.003906 796.847656 C 460.859375 806.152344 496.230469 777.441406 466.515625 760.886719 L 419.054688 737.769531 C 406.734375 734.367188 407.328125 718.867188 422.890625 722.332031 C 429.554688 723.820312 436.636719 728.835938 442.992188 732.066406 C 459.898438 740.632812 474.246094 749.078125 488.449219 756.058594 C 522.8125 772.980469 552.101562 735.535156 525.261719 719.960938 C 512.828125 712.734375 496.773438 703.886719 487.894531 698.808594 C 479.375 693.929688 470.496094 688.992188 462.003906 683.851562 C 453.652344 678.800781 438.320312 674.304688 445.011719 663.660156 C 451.761719 656.410156 469.746094 671.292969 484.070312 679.332031 C 496.109375 686.089844 529.195312 703.445312 541.574219 710.558594 C 575.582031 731.476562 607.636719 703.273438 576.628906 675.199219 C 572.261719 670.40625 484.476562 617.890625 474.210938 613.222656 C 462.246094 603.632812 474.9375 593.039062 483.617188 598.769531 L 610.773438 682.785156 C 640.378906 694.777344 668.300781 659.898438 644.976562 637.703125 C 580.585938 588.246094 514.167969 536.136719 440.042969 496.121094 C 427.355469 488.894531 406.257812 476.8125 399.164062 474.636719 C 371.375 466.144531 339.015625 518.746094 321.394531 533.222656 C 295.332031 547.394531 262.28125 539.160156 251.511719 521.648438 C 240.828125 504.269531 265.515625 472.546875 283.0625 449.527344 C 285.753906 445.988281 286.332031 441.636719 284.671875 437.507812 C 283.011719 433.378906 279.570312 430.648438 275.179688 429.972656 C 268.011719 428.855469 260.808594 427.726562 253.589844 425.941406 C 242.648438 423.226562 236.648438 419.230469 230.449219 415.457031 C 227.5625 413.703125 224.4375 413.210938 221.15625 414.019531 C 217.859375 414.832031 215.316406 416.699219 213.570312 419.589844 C 195.335938 449.785156 144.605469 540.390625 130.246094 568.644531 C 127.859375 573.339844 128.648438 578.785156 132.273438 582.617188 C 139.457031 590.214844 145.394531 598.25 151.664062 606.375 C 153.605469 608.894531 157.136719 609.507812 159.828125 607.800781 C 182.363281 593.410156 209.84375 593.542969 225.140625 619.21875 C 226.234375 621.0625 228.054688 622.144531 230.203125 622.207031 C 232.355469 622.277344 234.238281 621.332031 235.453125 619.5625 L 239.253906 614.070312 C 260.832031 591.8125 301.320312 610.332031 302.339844 645.445312 C 302.5 651.097656 306.335938 655.769531 311.84375 657.046875 Z M 774.601562 563.800781 L 729.035156 591.824219 C 726.097656 593.628906 722.925781 594.121094 719.582031 593.273438 C 716.25 592.425781 713.691406 590.484375 711.972656 587.496094 L 608.226562 407.484375 C 604.917969 401.742188 606.777344 394.394531 612.429688 390.914062 L 779.273438 288.316406 C 783.171875 285.921875 787.707031 285.832031 791.691406 288.058594 C 795.6875 290.28125 797.976562 294.203125 797.976562 298.761719 L 797.976562 522.003906 C 797.976562 539.542969 789.554688 554.621094 774.601562 563.800781 Z M 445.957031 22.527344 C 530.066406 45.054688 579.984375 131.480469 557.449219 215.558594 C 534.910156 299.636719 448.453125 349.523438 364.34375 326.992188 C 280.234375 304.464844 230.328125 218.054688 252.863281 133.976562 C 275.402344 49.898438 361.847656 0 445.957031 22.527344 Z M 356.019531 154.597656 L 387.445312 191.101562 L 464.410156 112.382812 C 468.246094 108.460938 474.703125 108.730469 478.5 112.675781 L 499.023438 134.074219 C 502.820312 138.019531 502.574219 144.289062 498.738281 148.144531 L 403.625 243.46875 C 391 255.5625 377.746094 254.519531 367.355469 242.484375 L 318.519531 187.019531 C 314.90625 182.902344 315.398438 176.5625 319.539062 172.984375 L 341.964844 153.578125 C 344.042969 151.773438 346.476562 150.972656 349.207031 151.167969 C 351.949219 151.367188 354.238281 152.523438 356.019531 154.597656 Z M 176.941406 614.460938 C 168.164062 617.523438 150.003906 642.140625 149.488281 652.105469 C 148.601562 668.859375 165.949219 686.003906 183.558594 679.980469 C 189.949219 677.792969 213.054688 649.796875 213.628906 639.449219 C 214.613281 621.492188 195.125 604.484375 176.941406 614.460938 Z M 329.339844 732.449219 L 306.003906 765.65625 C 292.035156 794.746094 322.539062 810 341.277344 798.839844 C 345.65625 796.234375 370.734375 763.308594 373.171875 756.695312 C 381.753906 733.394531 347.917969 706.035156 329.339844 732.449219 Z M 294.261719 673.332031 C 284.597656 678.542969 258.410156 718.992188 251.242188 728.847656 C 230.425781 757.421875 265.527344 779.605469 283.75 766.554688 C 289.675781 763.175781 315.640625 725.6875 322.664062 716.066406 C 342.53125 688.84375 314.15625 662.628906 294.261719 673.332031 Z M 253.515625 620.851562 C 243.902344 624.984375 206.511719 676.492188 196.171875 691.914062 C 177.371094 719.9375 209.660156 746.546875 232.074219 729.15625 C 240.015625 722.9375 266.179688 682.402344 273.484375 672.730469 C 280.34375 663.648438 291.703125 653.335938 285.347656 637.175781 C 281.277344 626.8125 266.953125 615.078125 253.515625 620.851562 Z M 644.496094 607.886719 C 654.371094 599.46875 668.851562 586 677.433594 577.332031 C 681.34375 573.386719 682.144531 567.5625 679.4375 562.71875 L 615.714844 448.644531 C 610.636719 440.050781 602.363281 426.742188 596.914062 416.136719 C 594.371094 411.167969 589.035156 408.613281 583.5625 409.707031 C 502.167969 426.113281 458.472656 354.289062 365.226562 382.707031 C 342.703125 389.5625 280.527344 470.605469 265.308594 504.011719 C 262.921875 509.234375 264.398438 515.230469 268.921875 518.769531 C 328.144531 565.03125 338.671875 424.835938 422.964844 470.324219 C 500.890625 512.378906 560.003906 553.761719 628.917969 608.183594 C 633.566406 611.855469 639.996094 611.734375 644.496094 607.886719 Z M 12.324219 526.613281 L 12.324219 303.382812 C 12.324219 298.8125 14.625 294.890625 18.609375 292.667969 C 22.601562 290.441406 27.140625 290.542969 31.027344 292.9375 L 197.882812 395.535156 C 203.523438 399.003906 205.394531 406.351562 202.085938 412.105469 L 98.339844 592.117188 C 96.621094 595.09375 94.0625 597.035156 90.71875 597.882812 C 87.386719 598.730469 84.203125 598.25 81.273438 596.445312 L 35.699219 568.410156 C 20.757812 559.230469 12.324219 544.148438 12.324219 526.613281 Z M 12.324219 526.613281 " fill-opacity="1" fill-rule="evenodd"/></g><g clip-path="url(#82646f82be)"><g clip-path="url(#b5e4517fa5)"><path fill="#ffffff" d="M 218.238281 0 L 589.839844 0 L 589.839844 371.601562 L 218.238281 371.601562 Z M 218.238281 0 " fill-opacity="1" fill-rule="nonzero"/></g></g><g clip-path="url(#03caac68f1)"><g clip-path="url(#67122e42b9)"><g clip-path="url(#d72b2c48fc)"><path fill="#000000" d="M 567.296875 60.941406 L 689.59375 127.875 L 511.933594 217.496094 L 608.867188 275.378906 L 369.195312 367.464844 L 463.226562 246.644531 L 386.402344 211.871094 L 567.296875 60.941406 " fill-opacity="1" fill-rule="nonzero"/></g></g></g></svg>