<svg xmlns="http://www.w3.org/2000/svg" xmlns:xlink="http://www.w3.org/1999/xlink" width="1080" zoomAndPan="magnify" viewBox="0 0 810 809.999993" height="1080" preserveAspectRatio="xMidYMid meet" version="1.0"><path fill="#ffffff" d="M 450.929688 402.675781 C 450.929688 403.164062 450.878906 403.648438 450.785156 404.125 C 450.691406 404.605469 450.550781 405.066406 450.363281 405.519531 C 450.175781 405.96875 449.949219 406.394531 449.675781 406.800781 C 449.40625 407.207031 449.097656 407.582031 448.753906 407.925781 C 448.410156 408.269531 448.035156 408.578125 447.628906 408.847656 C 447.222656 409.121094 446.796875 409.347656 446.34375 409.535156 C 445.894531 409.722656 445.429688 409.863281 444.953125 409.957031 C 444.476562 410.054688 443.992188 410.101562 443.503906 410.101562 C 443.019531 410.101562 442.535156 410.054688 442.058594 409.957031 C 441.578125 409.863281 441.113281 409.722656 440.664062 409.535156 C 440.214844 409.347656 439.785156 409.121094 439.382812 408.847656 C 438.976562 408.578125 438.601562 408.269531 438.257812 407.925781 C 437.910156 407.582031 437.605469 407.207031 437.332031 406.800781 C 437.0625 406.394531 436.832031 405.96875 436.648438 405.519531 C 436.460938 405.066406 436.320312 404.605469 436.226562 404.125 C 436.128906 403.648438 436.082031 403.164062 436.082031 402.675781 C 436.082031 402.191406 436.128906 401.707031 436.226562 401.230469 C 436.320312 400.75 436.460938 400.289062 436.648438 399.835938 C 436.832031 399.386719 437.0625 398.960938 437.332031 398.554688 C 437.605469 398.148438 437.910156 397.773438 438.257812 397.429688 C 438.601562 397.085938 438.976562 396.777344 439.382812 396.507812 C 439.785156 396.234375 440.214844 396.007812 440.664062 395.820312 C 441.113281 395.632812 441.578125 395.492188 442.058594 395.398438 C 442.535156 395.300781 443.019531 395.253906 443.503906 395.253906 C 443.992188 395.253906 444.476562 395.300781 444.953125 395.398438 C 445.429688 395.492188 445.894531 395.632812 446.34375 395.820312 C 446.796875 396.007812 447.222656 396.234375 447.628906 396.507812 C 448.035156 396.777344 448.410156 397.085938 448.753906 397.429688 C 449.097656 397.773438 449.40625 398.148438 449.675781 398.554688 C 449.949219 398.960938 450.175781 399.386719 450.363281 399.835938 C 450.550781 400.289062 450.691406 400.75 450.785156 401.230469 C 450.878906 401.707031 450.929688 402.191406 450.929688 402.675781 Z M 450.929688 402.675781 " fill-opacity="1" fill-rule="nonzero"/><path fill="#ffffff" d="M 692.164062 627.214844 C 592.886719 731.132812 439.792969 761.75 308.042969 703.296875 C 141.957031 629.996094 62.164062 438.863281 127.113281 269.996094 L 153.09375 380.410156 C 154.019531 386.90625 160.515625 391.542969 167.011719 389.6875 C 173.503906 387.832031 177.214844 382.265625 175.359375 375.769531 C 175.359375 375.769531 139.175781 222.675781 139.175781 222.675781 C 138.246094 218.964844 135.464844 215.253906 130.824219 214.328125 C 127.113281 213.398438 122.472656 214.328125 119.691406 217.109375 L 4.640625 334.019531 C 0 338.65625 0 346.078125 4.640625 350.71875 C 9.277344 355.359375 16.699219 355.359375 21.339844 350.71875 L 103.917969 267.214844 C 35.257812 456.492188 132.679688 665.253906 321.957031 733.914062 C 457.421875 783.089844 609.585938 747.832031 709.792969 643.914062 C 714.433594 639.277344 714.433594 631.851562 710.722656 627.214844 C 701.441406 619.792969 694.019531 626.285156 692.164062 627.214844 Z M 692.164062 627.214844 " fill-opacity="1" fill-rule="nonzero"/><path fill="#ffffff" d="M 607.730469 91.851562 C 613.300781 94.636719 619.792969 92.78125 623.503906 87.214844 C 626.289062 81.648438 624.433594 74.222656 618.867188 71.441406 C 618.867188 71.441406 580.824219 53.8125 575.257812 51.957031 C 569.691406 49.171875 562.269531 51.957031 559.484375 57.523438 C 556.699219 63.089844 559.484375 70.511719 565.050781 73.296875 C 565.980469 72.367188 600.308594 87.214844 607.730469 91.851562 Z M 607.730469 91.851562 " fill-opacity="1" fill-rule="nonzero"/><path fill="#ffffff" d="M 370.207031 58.449219 C 371.132812 58.449219 401.753906 52.882812 416.597656 51.957031 C 423.09375 51.027344 427.730469 45.460938 426.804688 39.894531 C 426.804688 33.398438 420.308594 28.761719 413.8125 28.761719 C 413.8125 28.761719 382.269531 32.472656 366.496094 36.183594 C 360 38.039062 356.289062 43.605469 358.144531 50.101562 C 360 54.738281 364.640625 58.449219 370.207031 58.449219 Z M 370.207031 58.449219 " fill-opacity="1" fill-rule="nonzero"/><path fill="#ffffff" d="M 686.597656 150.304688 C 688.453125 152.164062 695.875 156.800781 703.300781 150.304688 C 707.9375 145.667969 707.9375 138.246094 703.300781 133.605469 C 692.164062 122.472656 680.101562 112.265625 667.113281 102.058594 C 661.546875 98.347656 655.050781 99.277344 650.414062 103.914062 C 646.699219 109.480469 647.628906 115.976562 652.269531 120.617188 C 665.257812 129.894531 676.390625 140.101562 686.597656 150.304688 Z M 686.597656 150.304688 " fill-opacity="1" fill-rule="nonzero"/><path fill="#ffffff" d="M 515.875 57.523438 C 515.875 57.523438 527.011719 60.304688 529.792969 48.246094 C 531.648438 39.894531 526.082031 35.253906 521.441406 34.328125 C 505.671875 31.542969 489.898438 28.761719 474.125 27.832031 C 467.628906 26.90625 462.0625 31.542969 461.132812 38.039062 C 460.207031 44.535156 464.84375 50.101562 471.339844 51.027344 C 470.414062 51.027344 501.03125 54.738281 515.875 57.523438 Z M 515.875 57.523438 " fill-opacity="1" fill-rule="nonzero"/><path fill="#ffffff" d="M 281.132812 92.78125 C 294.125 85.359375 308.042969 79.792969 321.957031 74.222656 C 327.527344 71.441406 331.238281 64.945312 328.453125 59.378906 C 325.671875 53.8125 319.175781 50.101562 313.609375 52.882812 C 298.761719 58.449219 283.917969 65.875 270 73.296875 C 264.433594 76.078125 261.648438 83.503906 265.359375 89.070312 C 270.929688 97.421875 279.277344 93.707031 281.132812 92.78125 Z M 281.132812 92.78125 " fill-opacity="1" fill-rule="nonzero"/><path fill="#ffffff" d="M 779.382812 321.027344 C 780.308594 326.59375 784.949219 332.164062 793.300781 330.304688 C 799.792969 329.378906 803.503906 322.882812 802.578125 316.390625 C 802.578125 316.390625 795.15625 284.84375 789.585938 269.996094 C 787.730469 263.503906 781.238281 260.71875 774.742188 262.574219 C 769.175781 264.429688 765.464844 270.925781 767.320312 276.492188 C 767.320312 277.421875 776.597656 306.183594 779.382812 321.027344 Z M 779.382812 321.027344 " fill-opacity="1" fill-rule="nonzero"/><path fill="#ffffff" d="M 791.441406 463.914062 C 784.949219 462.058594 779.382812 465.769531 777.527344 472.265625 C 773.8125 487.109375 769.175781 501.027344 764.535156 514.945312 C 762.679688 520.511719 765.464844 527.933594 771.03125 529.792969 C 778.453125 532.574219 784.019531 527.933594 785.875 523.296875 C 791.441406 508.449219 796.082031 492.675781 799.792969 477.832031 C 801.648438 471.335938 797.9375 465.769531 791.441406 463.914062 Z M 791.441406 463.914062 " fill-opacity="1" fill-rule="nonzero"/><path fill="#ffffff" d="M 756.1875 559.480469 C 750.617188 556.699219 743.195312 558.554688 740.414062 563.191406 C 732.988281 576.183594 724.640625 588.246094 715.359375 600.304688 C 711.648438 605.875 712.578125 612.367188 717.214844 617.007812 C 721.855469 621.648438 729.277344 619.792969 733.917969 615.152344 C 744.125 602.164062 752.472656 589.171875 760.824219 575.253906 C 763.609375 569.6875 761.753906 562.265625 756.1875 559.480469 Z M 756.1875 559.480469 " fill-opacity="1" fill-rule="nonzero"/><path fill="#ffffff" d="M 810 372.988281 C 810 366.492188 804.433594 361.851562 797.9375 361.851562 C 791.441406 361.851562 786.804688 367.417969 786.804688 373.914062 C 786.804688 379.480469 786.804688 410.101562 785.875 419.378906 C 784.949219 425.875 790.515625 431.441406 796.082031 431.441406 C 796.082031 431.441406 808.144531 433.296875 809.070312 420.304688 C 810 411.957031 810 379.480469 810 372.988281 Z M 810 372.988281 " fill-opacity="1" fill-rule="nonzero"/><path fill="#ffffff" d="M 745.980469 229.171875 C 747.835938 232.882812 755.257812 236.59375 761.753906 233.8125 C 771.957031 229.171875 767.320312 219.894531 766.390625 218.039062 C 758.96875 204.121094 750.617188 190.203125 740.414062 177.214844 C 736.699219 171.648438 728.351562 170.71875 723.710938 175.359375 C 719.070312 179.070312 718.144531 185.5625 721.855469 191.132812 C 721.855469 191.132812 738.558594 216.183594 745.980469 229.171875 Z M 745.980469 229.171875 " fill-opacity="1" fill-rule="nonzero"/><path fill="#ffffff" d="M 568.761719 203.191406 C 572.472656 203.191406 576.1875 201.335938 578.96875 197.625 L 588.246094 181.851562 C 591.03125 176.285156 588.246094 168.863281 582.679688 166.078125 C 578.042969 163.296875 571.546875 165.152344 567.835938 169.792969 L 558.558594 185.5625 C 552.988281 192.988281 558.558594 202.265625 568.761719 203.191406 Z M 568.761719 203.191406 " fill-opacity="1" fill-rule="nonzero"/><path fill="#ffffff" d="M 450.929688 168.863281 C 457.421875 168.863281 462.0625 164.222656 462.0625 157.730469 L 462.0625 139.171875 C 462.0625 132.675781 456.496094 128.039062 450.929688 128.039062 C 445.359375 128.039062 439.792969 133.605469 439.792969 139.171875 L 439.792969 157.730469 C 439.792969 163.296875 444.433594 168.863281 450.929688 168.863281 Z M 450.929688 168.863281 " fill-opacity="1" fill-rule="nonzero"/><path fill="#ffffff" d="M 317.320312 160.511719 C 311.753906 163.296875 309.898438 170.71875 312.679688 176.285156 L 321.957031 192.058594 C 323.8125 195.769531 330.308594 200.410156 337.730469 196.699219 C 343.300781 193.914062 345.15625 186.492188 342.371094 180.925781 C 342.371094 180.925781 333.09375 165.152344 333.09375 165.152344 C 328.453125 155.875 319.175781 159.585938 317.320312 160.511719 Z M 317.320312 160.511719 " fill-opacity="1" fill-rule="nonzero"/><path fill="#ffffff" d="M 229.175781 526.078125 L 244.949219 516.800781 C 250.515625 514.019531 252.371094 506.59375 249.585938 501.027344 C 246.804688 495.460938 239.382812 493.605469 233.8125 496.390625 L 218.042969 505.667969 C 212.472656 508.449219 210.617188 515.875 213.402344 521.441406 C 215.257812 526.078125 220.824219 530.71875 229.175781 526.078125 Z M 229.175781 526.078125 " fill-opacity="1" fill-rule="nonzero"/><path fill="#ffffff" d="M 305.257812 604.945312 C 301.546875 610.511719 304.328125 621.648438 315.464844 622.574219 C 319.175781 622.574219 322.886719 620.71875 325.671875 617.007812 L 334.949219 601.234375 C 338.660156 595.667969 336.804688 588.246094 331.238281 585.460938 C 325.671875 581.75 319.175781 583.605469 315.464844 589.171875 C 314.535156 589.171875 305.257812 604.945312 305.257812 604.945312 Z M 305.257812 604.945312 " fill-opacity="1" fill-rule="nonzero"/><path fill="#ffffff" d="M 430.515625 629.070312 L 430.515625 647.625 C 430.515625 654.121094 435.15625 659.6875 441.648438 659.6875 C 448.144531 659.6875 452.785156 655.046875 452.785156 648.554688 L 452.785156 629.996094 C 453.710938 613.296875 430.515625 612.367188 430.515625 629.070312 Z M 430.515625 629.070312 " fill-opacity="1" fill-rule="nonzero"/><path fill="#ffffff" d="M 554.84375 590.101562 C 549.277344 592.882812 547.421875 600.304688 550.207031 605.875 L 559.484375 621.648438 C 561.339844 625.359375 565.050781 628.140625 569.691406 628.140625 C 571.546875 628.140625 573.402344 627.214844 575.257812 626.285156 C 580.824219 623.503906 582.679688 616.078125 579.898438 610.511719 L 570.617188 594.738281 C 567.835938 589.171875 560.414062 587.316406 554.84375 590.101562 Z M 554.84375 590.101562 " fill-opacity="1" fill-rule="nonzero"/><path fill="#ffffff" d="M 669.898438 514.945312 L 654.125 505.667969 C 648.558594 501.957031 641.132812 503.8125 638.351562 509.378906 C 635.566406 514.945312 636.496094 521.441406 642.0625 525.152344 C 642.0625 525.152344 642.0625 525.152344 642.988281 525.152344 L 658.761719 534.429688 C 664.328125 538.140625 671.753906 536.285156 674.535156 530.71875 C 674.535156 530.71875 674.535156 530.71875 674.535156 529.792969 C 677.320312 525.152344 675.464844 517.730469 669.898438 514.945312 Z M 669.898438 514.945312 " fill-opacity="1" fill-rule="nonzero"/><path fill="#ffffff" d="M 682.886719 385.976562 C 676.390625 385.976562 671.753906 390.617188 670.824219 397.109375 C 670.824219 403.605469 675.464844 409.171875 681.957031 409.171875 L 700.515625 409.171875 C 707.011719 409.171875 711.648438 403.605469 711.648438 398.039062 C 711.648438 392.472656 706.082031 386.90625 700.515625 386.90625 L 682.886719 386.90625 Z M 682.886719 385.976562 " fill-opacity="1" fill-rule="nonzero"/><path fill="#ffffff" d="M 653.195312 291.335938 C 655.050781 291.335938 656.90625 290.410156 658.761719 289.480469 L 674.535156 280.203125 C 680.101562 277.421875 681.957031 269.996094 679.175781 264.429688 C 676.390625 258.863281 668.96875 257.007812 663.402344 259.792969 L 647.628906 269.070312 C 642.0625 271.851562 640.207031 279.277344 642.988281 284.84375 C 644.84375 288.554688 648.558594 290.410156 653.195312 291.335938 Z M 653.195312 291.335938 " fill-opacity="1" fill-rule="nonzero"/><path fill="#ffffff" d="M 448.144531 405.460938 C 449.070312 404.535156 449.070312 402.675781 449.070312 401.75 C 449.070312 400.820312 448.144531 398.964844 447.214844 398.039062 C 446.289062 397.109375 444.433594 397.109375 443.503906 397.109375 C 442.578125 397.109375 440.722656 398.039062 439.792969 398.964844 C 437.9375 400.820312 437.9375 404.535156 439.792969 406.390625 C 442.578125 408.246094 445.359375 408.246094 448.144531 405.460938 Z M 448.144531 405.460938 " fill-opacity="1" fill-rule="nonzero"/><path fill="#ffffff" d="M 445.359375 603.089844 C 562.269531 603.089844 655.980469 508.449219 655.980469 392.472656 C 655.980469 276.492188 562.269531 181.851562 445.359375 181.851562 C 328.453125 181.851562 234.742188 275.5625 234.742188 392.472656 C 234.742188 508.449219 329.382812 603.089844 445.359375 603.089844 Z M 312.679688 284.84375 C 317.320312 280.203125 324.742188 279.277344 329.382812 283.914062 L 432.371094 375.769531 C 435.15625 373.914062 438.867188 373.914062 442.578125 372.988281 C 446.289062 372.988281 449.070312 372.988281 452.785156 373.914062 L 563.195312 250.511719 C 566.90625 245.875 574.328125 244.019531 579.898438 248.65625 C 584.535156 252.367188 586.390625 259.792969 581.753906 265.359375 C 581.753906 265.359375 469.484375 390.617188 469.484375 390.617188 C 471.339844 393.398438 471.339844 397.109375 472.269531 400.820312 C 472.269531 416.59375 460.207031 429.585938 444.433594 429.585938 C 428.660156 429.585938 415.671875 417.523438 415.671875 401.75 C 415.671875 398.964844 415.671875 396.183594 416.597656 393.398438 L 313.609375 300.617188 C 308.96875 296.90625 308.96875 289.480469 312.679688 284.84375 Z M 312.679688 284.84375 " fill-opacity="1" fill-rule="nonzero"/></svg>