<svg width="1440" height="83" viewBox="0 0 1440 83" fill="none" xmlns="http://www.w3.org/2000/svg">
<path d="M610.403 44.848C611.279 44.848 612.059 45.0473 612.743 45.446C613.428 45.836 613.957 46.382 614.329 47.084C614.711 47.7773 614.901 48.5703 614.901 49.463C614.901 50.3557 614.711 51.153 614.329 51.855C613.957 52.5483 613.428 53.0943 612.743 53.493C612.059 53.883 611.279 54.078 610.403 54.078C609.519 54.078 608.735 53.883 608.05 53.493C607.366 53.0943 606.833 52.5483 606.451 51.855C606.07 51.153 605.879 50.3557 605.879 49.463C605.879 48.5703 606.07 47.7773 606.451 47.084C606.833 46.382 607.366 45.836 608.05 45.446C608.735 45.0473 609.519 44.848 610.403 44.848ZM610.403 45.368C609.597 45.368 608.895 45.5413 608.297 45.888C607.699 46.226 607.24 46.7027 606.919 47.318C606.599 47.9333 606.438 48.6483 606.438 49.463C606.438 50.269 606.599 50.984 606.919 51.608C607.24 52.2233 607.699 52.7043 608.297 53.051C608.895 53.3977 609.597 53.571 610.403 53.571C611.201 53.571 611.894 53.3977 612.483 53.051C613.081 52.7043 613.541 52.2233 613.861 51.608C614.182 50.984 614.342 50.269 614.342 49.463C614.342 48.6483 614.182 47.9333 613.861 47.318C613.541 46.7027 613.081 46.226 612.483 45.888C611.894 45.5413 611.201 45.368 610.403 45.368ZM610.377 46.447C609.857 46.447 609.381 46.5683 608.947 46.811C608.523 47.0537 608.185 47.4047 607.933 47.864C607.682 48.3147 607.556 48.8433 607.556 49.45C607.556 50.0567 607.682 50.5897 607.933 51.049C608.185 51.4997 608.523 51.8507 608.947 52.102C609.381 52.3447 609.857 52.466 610.377 52.466C611.027 52.466 611.591 52.2927 612.067 51.946C612.544 51.5907 612.869 51.1183 613.042 50.529H611.95C611.69 51.2483 611.166 51.608 610.377 51.608C609.857 51.608 609.433 51.4217 609.103 51.049C608.774 50.6763 608.609 50.1477 608.609 49.463C608.609 48.7697 608.774 48.2367 609.103 47.864C609.433 47.4913 609.857 47.305 610.377 47.305C610.759 47.305 611.088 47.4003 611.365 47.591C611.643 47.773 611.838 48.0373 611.95 48.384H613.042C612.878 47.7687 612.557 47.292 612.08 46.954C611.604 46.616 611.036 46.447 610.377 46.447ZM619.667 53.051C620.768 52.167 621.63 51.4433 622.254 50.88C622.878 50.308 623.402 49.7143 623.827 49.099C624.26 48.475 624.477 47.864 624.477 47.266C624.477 46.7027 624.338 46.2607 624.061 45.94C623.792 45.6107 623.355 45.446 622.748 45.446C622.159 45.446 621.699 45.6323 621.37 46.005C621.049 46.369 620.876 46.8587 620.85 47.474H619.706C619.741 46.5033 620.035 45.7537 620.59 45.225C621.145 44.6963 621.86 44.432 622.735 44.432C623.628 44.432 624.334 44.679 624.854 45.173C625.383 45.667 625.647 46.3473 625.647 47.214C625.647 47.9333 625.43 48.6353 624.997 49.32C624.572 49.996 624.087 50.594 623.541 51.114C622.995 51.6253 622.297 52.2233 621.448 52.908H625.92V53.896H619.667V53.051ZM627.287 49.203C627.287 47.7123 627.53 46.551 628.015 45.719C628.501 44.8783 629.35 44.458 630.563 44.458C631.768 44.458 632.613 44.8783 633.098 45.719C633.584 46.551 633.826 47.7123 633.826 49.203C633.826 50.7197 633.584 51.8983 633.098 52.739C632.613 53.5797 631.768 54 630.563 54C629.35 54 628.501 53.5797 628.015 52.739C627.53 51.8983 627.287 50.7197 627.287 49.203ZM632.656 49.203C632.656 48.449 632.604 47.812 632.5 47.292C632.405 46.7633 632.201 46.3387 631.889 46.018C631.586 45.6973 631.144 45.537 630.563 45.537C629.974 45.537 629.523 45.6973 629.211 46.018C628.908 46.3387 628.704 46.7633 628.6 47.292C628.505 47.812 628.457 48.449 628.457 49.203C628.457 49.983 628.505 50.6373 628.6 51.166C628.704 51.6947 628.908 52.1193 629.211 52.44C629.523 52.7607 629.974 52.921 630.563 52.921C631.144 52.921 631.586 52.7607 631.889 52.44C632.201 52.1193 632.405 51.6947 632.5 51.166C632.604 50.6373 632.656 49.983 632.656 49.203ZM635.308 53.051C636.408 52.167 637.271 51.4433 637.895 50.88C638.519 50.308 639.043 49.7143 639.468 49.099C639.901 48.475 640.118 47.864 640.118 47.266C640.118 46.7027 639.979 46.2607 639.702 45.94C639.433 45.6107 638.995 45.446 638.389 45.446C637.799 45.446 637.34 45.6323 637.011 46.005C636.69 46.369 636.517 46.8587 636.491 47.474H635.347C635.381 46.5033 635.676 45.7537 636.231 45.225C636.785 44.6963 637.5 44.432 638.376 44.432C639.268 44.432 639.975 44.679 640.495 45.173C641.023 45.667 641.288 46.3473 641.288 47.214C641.288 47.9333 641.071 48.6353 640.638 49.32C640.213 49.996 639.728 50.594 639.182 51.114C638.636 51.6253 637.938 52.2233 637.089 52.908H641.561V53.896H635.308V53.051ZM642.902 46.967C642.963 46.1697 643.27 45.5457 643.825 45.095C644.38 44.6443 645.099 44.419 645.983 44.419C646.572 44.419 647.079 44.5273 647.504 44.744C647.937 44.952 648.262 45.238 648.479 45.602C648.704 45.966 648.817 46.3777 648.817 46.837C648.817 47.3743 648.661 47.838 648.349 48.228C648.046 48.618 647.647 48.8693 647.153 48.982V49.047C647.716 49.1857 648.163 49.4587 648.492 49.866C648.821 50.2733 648.986 50.8063 648.986 51.465C648.986 51.959 648.873 52.4053 648.648 52.804C648.423 53.194 648.085 53.5017 647.634 53.727C647.183 53.9523 646.642 54.065 646.009 54.065C645.09 54.065 644.336 53.8267 643.747 53.35C643.158 52.8647 642.828 52.18 642.759 51.296H643.903C643.964 51.816 644.176 52.2407 644.54 52.57C644.904 52.8993 645.389 53.064 645.996 53.064C646.603 53.064 647.062 52.908 647.374 52.596C647.695 52.2753 647.855 51.8637 647.855 51.361C647.855 50.711 647.638 50.243 647.205 49.957C646.772 49.671 646.117 49.528 645.242 49.528H644.943V48.54H645.255C646.052 48.5313 646.655 48.4013 647.062 48.15C647.469 47.89 647.673 47.4913 647.673 46.954C647.673 46.4947 647.521 46.1263 647.218 45.849C646.923 45.5717 646.499 45.433 645.944 45.433C645.407 45.433 644.973 45.5717 644.644 45.849C644.315 46.1263 644.12 46.499 644.059 46.967H642.902ZM659.6 51.985H655.648L654.92 54H653.672L656.948 44.991H658.313L661.576 54H660.328L659.6 51.985ZM659.262 51.023L657.624 46.447L655.986 51.023H659.262ZM664.187 44.38V54H663.004V44.38H664.187ZM667.386 44.38V54H666.203V44.38H667.386ZM674.051 48.033C674.259 47.6257 674.554 47.3093 674.935 47.084C675.325 46.8587 675.798 46.746 676.352 46.746V47.968H676.04C674.714 47.968 674.051 48.6873 674.051 50.126V54H672.868V46.876H674.051V48.033ZM678.329 45.719C678.103 45.719 677.913 45.641 677.757 45.485C677.601 45.329 677.523 45.1383 677.523 44.913C677.523 44.6877 677.601 44.497 677.757 44.341C677.913 44.185 678.103 44.107 678.329 44.107C678.545 44.107 678.727 44.185 678.875 44.341C679.031 44.497 679.109 44.6877 679.109 44.913C679.109 45.1383 679.031 45.329 678.875 45.485C678.727 45.641 678.545 45.719 678.329 45.719ZM678.901 46.876V54H677.718V46.876H678.901ZM683.855 46.759C684.47 46.759 685.008 46.8933 685.467 47.162C685.935 47.4307 686.282 47.7687 686.507 48.176V46.876H687.703V54.156C687.703 54.806 687.564 55.3823 687.287 55.885C687.01 56.3963 686.611 56.795 686.091 57.081C685.58 57.367 684.982 57.51 684.297 57.51C683.361 57.51 682.581 57.289 681.957 56.847C681.333 56.405 680.965 55.8027 680.852 55.04H682.022C682.152 55.4733 682.421 55.82 682.828 56.08C683.235 56.3487 683.725 56.483 684.297 56.483C684.947 56.483 685.476 56.2793 685.883 55.872C686.299 55.4647 686.507 54.8927 686.507 54.156V52.661C686.273 53.077 685.926 53.4237 685.467 53.701C685.008 53.9783 684.47 54.117 683.855 54.117C683.222 54.117 682.646 53.961 682.126 53.649C681.615 53.337 681.212 52.8993 680.917 52.336C680.622 51.7727 680.475 51.1313 680.475 50.412C680.475 49.684 680.622 49.047 680.917 48.501C681.212 47.9463 681.615 47.5173 682.126 47.214C682.646 46.9107 683.222 46.759 683.855 46.759ZM686.507 50.425C686.507 49.8877 686.399 49.4197 686.182 49.021C685.965 48.6223 685.671 48.319 685.298 48.111C684.934 47.8943 684.531 47.786 684.089 47.786C683.647 47.786 683.244 47.89 682.88 48.098C682.516 48.306 682.226 48.6093 682.009 49.008C681.792 49.4067 681.684 49.8747 681.684 50.412C681.684 50.958 681.792 51.4347 682.009 51.842C682.226 52.2407 682.516 52.5483 682.88 52.765C683.244 52.973 683.647 53.077 684.089 53.077C684.531 53.077 684.934 52.973 685.298 52.765C685.671 52.5483 685.965 52.2407 686.182 51.842C686.399 51.4347 686.507 50.9623 686.507 50.425ZM693.238 46.746C693.776 46.746 694.261 46.863 694.694 47.097C695.128 47.3223 695.466 47.6647 695.708 48.124C695.96 48.5833 696.085 49.1423 696.085 49.801V54H694.915V49.97C694.915 49.2593 694.738 48.7177 694.382 48.345C694.027 47.9637 693.542 47.773 692.926 47.773C692.302 47.773 691.804 47.968 691.431 48.358C691.067 48.748 690.885 49.3157 690.885 50.061V54H689.702V44.38H690.885V47.89C691.119 47.526 691.44 47.2443 691.847 47.045C692.263 46.8457 692.727 46.746 693.238 46.746ZM699.461 47.851V52.05C699.461 52.3967 699.534 52.6437 699.682 52.791C699.829 52.9297 700.085 52.999 700.449 52.999H701.32V54H700.254C699.595 54 699.101 53.8483 698.772 53.545C698.442 53.2417 698.278 52.7433 698.278 52.05V47.851H697.355V46.876H698.278V45.082H699.461V46.876H701.32V47.851H699.461ZM705.275 54.117C704.729 54.117 704.239 54.026 703.806 53.844C703.373 53.6533 703.03 53.3933 702.779 53.064C702.528 52.726 702.389 52.3403 702.363 51.907H703.585C703.62 52.2623 703.784 52.5527 704.079 52.778C704.382 53.0033 704.777 53.116 705.262 53.116C705.713 53.116 706.068 53.0163 706.328 52.817C706.588 52.6177 706.718 52.3663 706.718 52.063C706.718 51.751 706.579 51.5213 706.302 51.374C706.025 51.218 705.596 51.0663 705.015 50.919C704.486 50.7803 704.053 50.6417 703.715 50.503C703.386 50.3557 703.1 50.1433 702.857 49.866C702.623 49.58 702.506 49.2073 702.506 48.748C702.506 48.384 702.614 48.0503 702.831 47.747C703.048 47.4437 703.355 47.2053 703.754 47.032C704.153 46.85 704.608 46.759 705.119 46.759C705.908 46.759 706.545 46.9583 707.03 47.357C707.515 47.7557 707.775 48.3017 707.81 48.995H706.627C706.601 48.6223 706.449 48.3233 706.172 48.098C705.903 47.8727 705.539 47.76 705.08 47.76C704.655 47.76 704.317 47.851 704.066 48.033C703.815 48.215 703.689 48.4533 703.689 48.748C703.689 48.982 703.763 49.177 703.91 49.333C704.066 49.4803 704.257 49.6017 704.482 49.697C704.716 49.7837 705.037 49.8833 705.444 49.996C705.955 50.1347 706.371 50.2733 706.692 50.412C707.013 50.542 707.286 50.7413 707.511 51.01C707.745 51.2787 707.866 51.6297 707.875 52.063C707.875 52.453 707.767 52.804 707.55 53.116C707.333 53.428 707.026 53.675 706.627 53.857C706.237 54.0303 705.786 54.117 705.275 54.117ZM714.194 48.033C714.402 47.6257 714.696 47.3093 715.078 47.084C715.468 46.8587 715.94 46.746 716.495 46.746V47.968H716.183C714.857 47.968 714.194 48.6873 714.194 50.126V54H713.011V46.876H714.194V48.033ZM724.36 50.165C724.36 50.3903 724.347 50.6287 724.321 50.88H718.627C718.671 51.582 718.909 52.1323 719.342 52.531C719.784 52.921 720.317 53.116 720.941 53.116C721.453 53.116 721.877 52.999 722.215 52.765C722.562 52.5223 722.805 52.2017 722.943 51.803H724.217C724.027 52.4877 723.645 53.0467 723.073 53.48C722.501 53.9047 721.791 54.117 720.941 54.117C720.265 54.117 719.659 53.9653 719.121 53.662C718.593 53.3587 718.177 52.9297 717.873 52.375C717.57 51.8117 717.418 51.1617 717.418 50.425C717.418 49.6883 717.566 49.0427 717.86 48.488C718.155 47.9333 718.567 47.5087 719.095 47.214C719.633 46.9107 720.248 46.759 720.941 46.759C721.617 46.759 722.215 46.9063 722.735 47.201C723.255 47.4957 723.654 47.903 723.931 48.423C724.217 48.9343 724.36 49.515 724.36 50.165ZM723.138 49.918C723.138 49.4673 723.039 49.0817 722.839 48.761C722.64 48.4317 722.367 48.1847 722.02 48.02C721.682 47.8467 721.305 47.76 720.889 47.76C720.291 47.76 719.78 47.9507 719.355 48.332C718.939 48.7133 718.701 49.242 718.64 49.918H723.138ZM728.444 54.117C727.898 54.117 727.408 54.026 726.975 53.844C726.542 53.6533 726.199 53.3933 725.948 53.064C725.697 52.726 725.558 52.3403 725.532 51.907H726.754C726.789 52.2623 726.953 52.5527 727.248 52.778C727.551 53.0033 727.946 53.116 728.431 53.116C728.882 53.116 729.237 53.0163 729.497 52.817C729.757 52.6177 729.887 52.3663 729.887 52.063C729.887 51.751 729.748 51.5213 729.471 51.374C729.194 51.218 728.765 51.0663 728.184 50.919C727.655 50.7803 727.222 50.6417 726.884 50.503C726.555 50.3557 726.269 50.1433 726.026 49.866C725.792 49.58 725.675 49.2073 725.675 48.748C725.675 48.384 725.783 48.0503 726 47.747C726.217 47.4437 726.524 47.2053 726.923 47.032C727.322 46.85 727.777 46.759 728.288 46.759C729.077 46.759 729.714 46.9583 730.199 47.357C730.684 47.7557 730.944 48.3017 730.979 48.995H729.796C729.77 48.6223 729.618 48.3233 729.341 48.098C729.072 47.8727 728.708 47.76 728.249 47.76C727.824 47.76 727.486 47.851 727.235 48.033C726.984 48.215 726.858 48.4533 726.858 48.748C726.858 48.982 726.932 49.177 727.079 49.333C727.235 49.4803 727.426 49.6017 727.651 49.697C727.885 49.7837 728.206 49.8833 728.613 49.996C729.124 50.1347 729.54 50.2733 729.861 50.412C730.182 50.542 730.455 50.7413 730.68 51.01C730.914 51.2787 731.035 51.6297 731.044 52.063C731.044 52.453 730.936 52.804 730.719 53.116C730.502 53.428 730.195 53.675 729.796 53.857C729.406 54.0303 728.955 54.117 728.444 54.117ZM739.214 50.165C739.214 50.3903 739.201 50.6287 739.175 50.88H733.481C733.524 51.582 733.763 52.1323 734.196 52.531C734.638 52.921 735.171 53.116 735.795 53.116C736.306 53.116 736.731 52.999 737.069 52.765C737.416 52.5223 737.658 52.2017 737.797 51.803H739.071C738.88 52.4877 738.499 53.0467 737.927 53.48C737.355 53.9047 736.644 54.117 735.795 54.117C735.119 54.117 734.512 53.9653 733.975 53.662C733.446 53.3587 733.03 52.9297 732.727 52.375C732.424 51.8117 732.272 51.1617 732.272 50.425C732.272 49.6883 732.419 49.0427 732.714 48.488C733.009 47.9333 733.42 47.5087 733.949 47.214C734.486 46.9107 735.102 46.759 735.795 46.759C736.471 46.759 737.069 46.9063 737.589 47.201C738.109 47.4957 738.508 47.903 738.785 48.423C739.071 48.9343 739.214 49.515 739.214 50.165ZM737.992 49.918C737.992 49.4673 737.892 49.0817 737.693 48.761C737.494 48.4317 737.221 48.1847 736.874 48.02C736.536 47.8467 736.159 47.76 735.743 47.76C735.145 47.76 734.634 47.9507 734.209 48.332C733.793 48.7133 733.555 49.242 733.494 49.918H737.992ZM741.958 48.033C742.166 47.6257 742.461 47.3093 742.842 47.084C743.232 46.8587 743.705 46.746 744.259 46.746V47.968H743.947C742.621 47.968 741.958 48.6873 741.958 50.126V54H740.775V46.876H741.958V48.033ZM748.277 52.908L750.487 46.876H751.748L748.953 54H747.575L744.78 46.876H746.054L748.277 52.908ZM759.412 50.165C759.412 50.3903 759.399 50.6287 759.373 50.88H753.679C753.722 51.582 753.961 52.1323 754.394 52.531C754.836 52.921 755.369 53.116 755.993 53.116C756.504 53.116 756.929 52.999 757.267 52.765C757.614 52.5223 757.856 52.2017 757.995 51.803H759.269C759.078 52.4877 758.697 53.0467 758.125 53.48C757.553 53.9047 756.842 54.117 755.993 54.117C755.317 54.117 754.71 53.9653 754.173 53.662C753.644 53.3587 753.228 52.9297 752.925 52.375C752.622 51.8117 752.47 51.1617 752.47 50.425C752.47 49.6883 752.617 49.0427 752.912 48.488C753.207 47.9333 753.618 47.5087 754.147 47.214C754.684 46.9107 755.3 46.759 755.993 46.759C756.669 46.759 757.267 46.9063 757.787 47.201C758.307 47.4957 758.706 47.903 758.983 48.423C759.269 48.9343 759.412 49.515 759.412 50.165ZM758.19 49.918C758.19 49.4673 758.09 49.0817 757.891 48.761C757.692 48.4317 757.419 48.1847 757.072 48.02C756.734 47.8467 756.357 47.76 755.941 47.76C755.343 47.76 754.832 47.9507 754.407 48.332C753.991 48.7133 753.753 49.242 753.692 49.918H758.19ZM760.532 50.412C760.532 49.684 760.679 49.047 760.974 48.501C761.268 47.9463 761.671 47.5173 762.183 47.214C762.703 46.9107 763.283 46.759 763.925 46.759C764.479 46.759 764.995 46.889 765.472 47.149C765.948 47.4003 766.312 47.734 766.564 48.15V44.38H767.76V54H766.564V52.661C766.33 53.0857 765.983 53.4367 765.524 53.714C765.064 53.9827 764.527 54.117 763.912 54.117C763.279 54.117 762.703 53.961 762.183 53.649C761.671 53.337 761.268 52.8993 760.974 52.336C760.679 51.7727 760.532 51.1313 760.532 50.412ZM766.564 50.425C766.564 49.8877 766.455 49.4197 766.239 49.021C766.022 48.6223 765.727 48.319 765.355 48.111C764.991 47.8943 764.588 47.786 764.146 47.786C763.704 47.786 763.301 47.89 762.937 48.098C762.573 48.306 762.282 48.6093 762.066 49.008C761.849 49.4067 761.741 49.8747 761.741 50.412C761.741 50.958 761.849 51.4347 762.066 51.842C762.282 52.2407 762.573 52.5483 762.937 52.765C763.301 52.973 763.704 53.077 764.146 53.077C764.588 53.077 764.991 52.973 765.355 52.765C765.727 52.5483 766.022 52.2407 766.239 51.842C766.455 51.4347 766.564 50.9623 766.564 50.425Z" fill="white"/>
<path d="M-150 16.8842V82.8842H24V16.8842C10 17.3842 0 18.032 -17 10.8603C-52.5 -4.1158 -74.5 -3.11585 -109 10.8603C-124.593 17.1771 -143 16.7175 -150 16.8842Z" fill="white" fill-opacity="0.08"/>
<path d="M24 16.8842V82.8842H198V16.8842C184 17.3842 174 18.032 157 10.8603C121.5 -4.1158 99.5 -3.11585 65 10.8603C49.4071 17.1771 31 16.7175 24 16.8842Z" fill="white" fill-opacity="0.08"/>
<path d="M198 16.8842V82.8842H372V16.8842C358 17.3842 348 18.032 331 10.8603C295.5 -4.1158 273.5 -3.11585 239 10.8603C223.407 17.1771 205 16.7175 198 16.8842Z" fill="white" fill-opacity="0.08"/>
<path d="M372 16.8842V82.8842H546V16.8842C532 17.3842 522 18.032 505 10.8603C469.5 -4.1158 447.5 -3.11585 413 10.8603C397.407 17.1771 379 16.7175 372 16.8842Z" fill="white" fill-opacity="0.08"/>
<path d="M546 16.8842V82.8842H720V16.8842C706 17.3842 696 18.032 679 10.8603C643.5 -4.1158 621.5 -3.11585 587 10.8603C571.407 17.1771 553 16.7175 546 16.8842Z" fill="white" fill-opacity="0.08"/>
<path d="M720 16.8842V82.8842H894V16.8842C880 17.3842 870 18.032 853 10.8603C817.5 -4.1158 795.5 -3.11585 761 10.8603C745.407 17.1771 727 16.7175 720 16.8842Z" fill="white" fill-opacity="0.08"/>
<path d="M894 16.8842V82.8842H1068V16.8842C1054 17.3842 1044 18.032 1027 10.8603C991.5 -4.1158 969.5 -3.11585 935 10.8603C919.407 17.1771 901 16.7175 894 16.8842Z" fill="white" fill-opacity="0.08"/>
<path d="M1068 16.8842V82.8842H1242V16.8842C1228 17.3842 1218 18.032 1201 10.8603C1165.5 -4.1158 1143.5 -3.11585 1109 10.8603C1093.41 17.1771 1075 16.7175 1068 16.8842Z" fill="white" fill-opacity="0.08"/>
<path d="M1242 16.8842V82.8842H1416V16.8842C1402 17.3842 1392 18.032 1375 10.8603C1339.5 -4.1158 1317.5 -3.11585 1283 10.8603C1267.41 17.1771 1249 16.7175 1242 16.8842Z" fill="white" fill-opacity="0.08"/>
<path d="M1416 16.8842V82.8842H1590V16.8842C1576 17.3842 1566 18.032 1549 10.8603C1513.5 -4.1158 1491.5 -3.11585 1457 10.8603C1441.41 17.1771 1423 16.7175 1416 16.8842Z" fill="white" fill-opacity="0.08"/>
</svg>
