<?xml version="1.0" encoding="UTF-8"?>
<!DOCTYPE svg PUBLIC "-//W3C//DTD SVG 1.1//EN" "http://www.w3.org/Graphics/SVG/1.1/DTD/svg11.dtd">
<!-- Creator: CorelDRAW X7 -->
<svg xmlns="http://www.w3.org/2000/svg" xml:space="preserve" width="1278px" height="1060px" version="1.1" style="shape-rendering:geometricPrecision; text-rendering:geometricPrecision; image-rendering:optimizeQuality; fill-rule:evenodd; clip-rule:evenodd"
viewBox="0 0 811 672"
 xmlns:xlink="http://www.w3.org/1999/xlink">
 <defs>
  <style type="text/css">
   <![CDATA[
    .fil0 {fill:#2B2A29}
   ]]>
  </style>
 </defs>
 <g id="Layer_x0020_1">
  <metadata id="CorelCorpID_0Corel-Layer"/>
  <path class="fil0" d="M0 192c0,45 0,91 0,137 1,110 66,207 170,245 -5,-2 -28,-22 -31,-25 -50,-52 -75,-137 -78,-210 -1,-34 -2,-82 0,-115l174 -130c7,-5 19,-15 25,-18l40 33 -8 6c-4,3 -8,6 -11,9l-112 83c-15,11 -30,22 -45,34l0 142c0,76 25,149 77,203 180,182 485,58 485,-202l0 -128c0,-20 0,-16 -14,-26 -21,-15 -159,-117 -164,-123 4,-5 35,-27 41,-32 10,4 40,29 51,37l140 104c6,4 9,4 9,14 0,87 6,161 -30,243 -12,26 -32,61 -52,79 -7,7 -16,13 -25,20 41,-11 92,-53 116,-86 9,-13 18,-26 26,-43 35,-72 25,-162 25,-249 -1,-5 -110,-83 -128,-97 -9,-7 -123,-94 -132,-97l-69 52c-8,5 -16,13 -24,17 -11,-7 -43,-34 -51,-37 -14,8 -44,33 -52,37l-93 -69c-7,3 -26,18 -32,23l-228 169zm184 82c0,121 -13,222 93,298 138,98 349,12 349,-191l0 -94c0,-18 3,-13 -19,-29 -10,-8 -19,-14 -29,-21 -19,-15 -39,-29 -58,-43l-115 -85 -111 82c-14,10 -105,74 -110,83z"/>
  <polygon class="fil0" points="417,477 482,477 482,470 482,412 417,412 "/>
  <polygon class="fil0" points="417,388 482,389 482,324 417,324 "/>
  <polygon class="fil0" points="328,388 393,389 393,324 328,324 "/>
  <polygon class="fil0" points="328,477 392,477 393,412 328,412 "/>
 </g>
</svg>
