<svg width="60" height="57" viewBox="0 0 60 57" fill="none" xmlns="http://www.w3.org/2000/svg">
<mask id="mask0_2_701" style="mask-type:luminance" maskUnits="userSpaceOnUse" x="9" y="50" width="3" height="7">
<path d="M9.12933 50.3946H11.5013V56.8897H9.12933V50.3946Z" fill="white"/>
</mask>
<g mask="url(#mask0_2_701)">
<path d="M10.3394 56.8898C10.2703 56.8898 10.2019 56.8834 10.1342 56.8698C10.0665 56.8563 10.0009 56.8363 9.93675 56.81C9.8726 56.7836 9.81202 56.7508 9.75429 56.7123C9.69727 56.6738 9.64381 56.6303 9.59535 56.5819C9.54617 56.5327 9.50269 56.4792 9.46421 56.4222C9.42572 56.3645 9.39293 56.3039 9.36656 56.2405C9.34019 56.1763 9.32023 56.1108 9.30669 56.0431C9.29315 55.9753 9.28674 55.9069 9.28674 55.8378V51.6284C9.28674 51.5593 9.29315 51.4908 9.30669 51.4231C9.32023 51.3554 9.34019 51.2899 9.36656 51.2257C9.39293 51.1623 9.42572 51.101 9.46421 51.044C9.50269 50.9862 9.54617 50.9335 9.59535 50.8843C9.64381 50.8358 9.69727 50.7917 9.75429 50.7539C9.81202 50.7154 9.8726 50.6826 9.93675 50.6562C10.0009 50.6299 10.0665 50.6099 10.1342 50.5964C10.2019 50.5828 10.2703 50.5764 10.3394 50.5764C10.4086 50.5764 10.477 50.5828 10.5454 50.5964C10.6131 50.6099 10.6787 50.6299 10.7428 50.6562C10.8063 50.6826 10.8676 50.7154 10.9246 50.7539C10.9823 50.7917 11.0351 50.8358 11.0842 50.8843C11.1334 50.9335 11.1769 50.9862 11.2154 51.044C11.2539 51.101 11.2859 51.1623 11.3123 51.2257C11.3387 51.2899 11.3594 51.3554 11.3722 51.4231C11.3857 51.4908 11.3929 51.5593 11.3929 51.6284V55.8378C11.3929 55.9069 11.3857 55.9753 11.3722 56.0431C11.3594 56.1108 11.3387 56.1763 11.3123 56.2405C11.2859 56.3039 11.2539 56.3645 11.2154 56.4222C11.1769 56.4792 11.1334 56.5327 11.0842 56.5819C11.0351 56.6303 10.9823 56.6738 10.9246 56.7123C10.8676 56.7508 10.8063 56.7836 10.7428 56.81C10.6787 56.8363 10.6131 56.8563 10.5454 56.8698C10.477 56.8834 10.4086 56.8898 10.3394 56.8898Z" fill="white"/>
</g>
<path d="M58.7812 54.7852H10.339C10.2699 54.7852 10.2014 54.7788 10.1337 54.7652C10.066 54.7517 10.0004 54.7317 9.9363 54.7054C9.87216 54.679 9.81158 54.6462 9.75384 54.6077C9.69683 54.5699 9.64337 54.5258 9.59491 54.4773C9.54573 54.4281 9.50225 54.3754 9.46376 54.3176C9.42528 54.2599 9.39249 54.1993 9.36612 54.1359C9.33975 54.0718 9.31979 54.0062 9.30625 53.9385C9.29271 53.8708 9.28629 53.8023 9.28629 53.7332C9.28629 53.6641 9.29271 53.5956 9.30625 53.5279C9.31979 53.4602 9.33975 53.3939 9.36612 53.3305C9.39249 53.2664 9.42528 53.2058 9.46376 53.1488C9.50225 53.091 9.54573 53.0376 9.59491 52.9891C9.64337 52.9399 9.69683 52.8965 9.75384 52.858C9.81158 52.8195 9.87216 52.7874 9.9363 52.761C10.0004 52.7347 10.066 52.7147 10.1337 52.7012C10.2014 52.6876 10.2699 52.6812 10.339 52.6812H58.7812C58.8503 52.6812 58.9187 52.6876 58.9864 52.7012C59.0549 52.7147 59.1204 52.7347 59.1846 52.761C59.248 52.7874 59.3086 52.8195 59.3663 52.858C59.424 52.8965 59.4768 52.9399 59.526 52.9891C59.5751 53.0376 59.6186 53.091 59.6571 53.1488C59.6956 53.2058 59.7277 53.2664 59.754 53.3305C59.7804 53.3939 59.8004 53.4602 59.8139 53.5279C59.8274 53.5956 59.8346 53.6641 59.8346 53.7332C59.8346 53.8023 59.8274 53.8708 59.8139 53.9385C59.8004 54.0062 59.7804 54.0718 59.754 54.1359C59.7277 54.1993 59.6956 54.2599 59.6571 54.3176C59.6186 54.3754 59.5751 54.4281 59.526 54.4773C59.4768 54.5258 59.424 54.5699 59.3663 54.6077C59.3086 54.6462 59.248 54.679 59.1846 54.7054C59.1204 54.7317 59.0549 54.7517 58.9864 54.7652C58.9187 54.7788 58.8503 54.7852 58.7812 54.7852Z" fill="white"/>
<mask id="mask1_2_701" style="mask-type:luminance" maskUnits="userSpaceOnUse" x="0" y="46" width="8" height="3">
<path d="M0.841797 46.1981H7.30341V48.57H0.841797V46.1981Z" fill="white"/>
</mask>
<g mask="url(#mask1_2_701)">
<path d="M6.12697 48.4717H1.91473C1.84559 48.4717 1.77717 48.4653 1.70946 48.4517C1.64175 48.4382 1.57547 48.4182 1.51204 48.3919C1.44789 48.3655 1.38731 48.3327 1.32958 48.2942C1.27185 48.2557 1.2191 48.2123 1.16993 48.1638C1.12146 48.1146 1.07727 48.0612 1.03878 48.0041C1.00101 47.9464 0.968223 47.8858 0.941851 47.8224C0.91548 47.7583 0.895524 47.6927 0.881982 47.625C0.86844 47.5573 0.861313 47.4888 0.861313 47.4197C0.861313 47.3506 0.86844 47.2822 0.881982 47.2144C0.895524 47.1467 0.91548 47.0804 0.941851 47.017C0.968223 46.9529 1.00101 46.8923 1.03878 46.8346C1.07727 46.7775 1.12146 46.7241 1.16993 46.6756C1.2191 46.6264 1.27185 46.583 1.32958 46.5445C1.38731 46.506 1.44789 46.4739 1.51204 46.4475C1.57547 46.4212 1.64175 46.4012 1.70946 46.3877C1.77717 46.3741 1.84559 46.367 1.91473 46.367H6.12697C6.1961 46.367 6.26452 46.3741 6.33223 46.3877C6.40066 46.4012 6.46623 46.4212 6.53037 46.4475C6.59381 46.4739 6.65439 46.506 6.71212 46.5445C6.76985 46.583 6.82259 46.6264 6.87177 46.6756C6.92095 46.7241 6.96443 46.7775 7.00291 46.8346C7.0414 46.8923 7.07347 46.9529 7.09984 47.017C7.12622 47.0804 7.14617 47.1467 7.15971 47.2144C7.17326 47.2822 7.18038 47.3506 7.18038 47.4197C7.18038 47.4888 7.17326 47.5573 7.15971 47.625C7.14617 47.6927 7.12622 47.7583 7.09984 47.8224C7.07347 47.8858 7.0414 47.9464 7.00291 48.0041C6.96443 48.0612 6.92095 48.1146 6.87177 48.1638C6.82259 48.2123 6.76985 48.2557 6.71212 48.2942C6.65439 48.3327 6.59381 48.3655 6.53037 48.3919C6.46623 48.4182 6.40066 48.4382 6.33223 48.4517C6.26452 48.4653 6.1961 48.4717 6.12697 48.4717Z" fill="white"/>
</g>
<mask id="mask2_2_701" style="mask-type:luminance" maskUnits="userSpaceOnUse" x="0" y="0" width="8" height="3">
<path d="M0.841797 0.0358887H7.30341V2.2254H0.841797V0.0358887Z" fill="white"/>
</mask>
<g mask="url(#mask2_2_701)">
<path d="M6.12685 2.17173H1.91461C1.84548 2.17173 1.77706 2.16531 1.70935 2.15177C1.64164 2.13823 1.57535 2.11827 1.51192 2.0919C1.44778 2.06553 1.38719 2.03275 1.32946 1.99497C1.27173 1.95649 1.21899 1.91301 1.16981 1.86383C1.12135 1.81465 1.07716 1.76191 1.03867 1.70418C1.00089 1.64716 0.968108 1.58658 0.941737 1.52243C0.915366 1.45829 0.895409 1.39272 0.881868 1.32501C0.868326 1.2573 0.861198 1.18887 0.861198 1.11974C0.861198 1.0506 0.868326 0.982182 0.881868 0.914473C0.895409 0.846763 0.915366 0.781192 0.941737 0.717046C0.968108 0.652901 1.00089 0.592319 1.03867 0.5353C1.07716 0.477569 1.12135 0.424827 1.16981 0.375649C1.21899 0.327183 1.27173 0.282994 1.32946 0.244506C1.38719 0.206732 1.44778 0.173946 1.51192 0.147575C1.57535 0.121204 1.64164 0.101247 1.70935 0.0877055C1.77706 0.0741637 1.84548 0.067749 1.91461 0.067749H6.12685C6.19599 0.067749 6.26441 0.0741637 6.33212 0.0877055C6.40054 0.101247 6.46611 0.121204 6.53026 0.147575C6.59369 0.173946 6.65427 0.206732 6.712 0.244506C6.76974 0.282994 6.82248 0.327183 6.87166 0.375649C6.92084 0.424827 6.96431 0.477569 7.0028 0.5353C7.04129 0.592319 7.07336 0.652901 7.09973 0.717046C7.1261 0.781192 7.14606 0.846763 7.1596 0.914473C7.17314 0.982182 7.18027 1.0506 7.18027 1.11974C7.18027 1.18887 7.17314 1.2573 7.1596 1.32501C7.14606 1.39272 7.1261 1.45829 7.09973 1.52243C7.07336 1.58658 7.04129 1.64716 7.0028 1.70418C6.96431 1.76191 6.92084 1.81465 6.87166 1.86383C6.82248 1.91301 6.76974 1.95649 6.712 1.99497C6.65427 2.03275 6.59369 2.06553 6.53026 2.0919C6.46611 2.11827 6.40054 2.13823 6.33212 2.15177C6.26441 2.16531 6.19599 2.17173 6.12685 2.17173Z" fill="white"/>
</g>
<path d="M4.02032 48.4717C3.95118 48.4717 3.88276 48.4653 3.81505 48.4517C3.74734 48.4382 3.68106 48.4182 3.61762 48.3918C3.55348 48.3655 3.4929 48.3327 3.43516 48.2942C3.37815 48.2557 3.32469 48.2122 3.27551 48.1638C3.22705 48.1146 3.18286 48.0611 3.14508 48.0041C3.1066 47.9464 3.07381 47.8858 3.04744 47.8224C3.02107 47.7582 3.00111 47.6927 2.98757 47.6249C2.97403 47.5572 2.96761 47.4888 2.96761 47.4197V1.11998C2.96761 1.05085 2.97403 0.982427 2.98757 0.914717C3.00111 0.847008 3.02107 0.781437 3.04744 0.717291C3.07381 0.653145 3.1066 0.592563 3.14508 0.535544C3.18286 0.477813 3.22705 0.425071 3.27551 0.375893C3.32469 0.327427 3.37815 0.283238 3.43516 0.24475C3.4929 0.206976 3.55348 0.17419 3.61762 0.147819C3.68106 0.121448 3.74734 0.101492 3.81505 0.0879496C3.88276 0.0744079 3.95118 0.0679932 4.02032 0.0679932C4.08945 0.0679932 4.15787 0.0744079 4.22558 0.0879496C4.29329 0.101492 4.35958 0.121448 4.42301 0.147819C4.48715 0.17419 4.54774 0.206976 4.60547 0.24475C4.6632 0.283238 4.71594 0.327427 4.76512 0.375893C4.81359 0.425071 4.85777 0.477813 4.89626 0.535544C4.93404 0.592563 4.96682 0.653145 4.99319 0.717291C5.01956 0.781437 5.03952 0.847008 5.05306 0.914717C5.0666 0.982427 5.07373 1.05085 5.07373 1.11998V47.4197C5.07373 47.4888 5.0666 47.5572 5.05306 47.6249C5.03952 47.6927 5.01956 47.7582 4.99319 47.8224C4.96682 47.8858 4.93404 47.9464 4.89626 48.0041C4.85777 48.0611 4.81359 48.1146 4.76512 48.1638C4.71594 48.2122 4.6632 48.2557 4.60547 48.2942C4.54774 48.3327 4.48715 48.3655 4.42301 48.3918C4.35958 48.4182 4.29329 48.4382 4.22558 48.4517C4.15787 48.4653 4.08945 48.4717 4.02032 48.4717Z" fill="white"/>
<path d="M58.7813 22.1655H10.3391C10.2308 22.1655 10.1253 22.1491 10.022 22.1163C9.91861 22.0835 9.82239 22.0358 9.73401 21.9737C9.64492 21.911 9.56794 21.8369 9.50237 21.7507C9.43609 21.6651 9.38549 21.5711 9.34842 21.4691C9.31207 21.3672 9.2914 21.2617 9.28713 21.1534C9.28285 21.0458 9.29497 20.9389 9.32419 20.8348C9.3527 20.73 9.39618 20.6324 9.45533 20.5412C9.51378 20.4506 9.58505 20.3708 9.66915 20.3017L33.8899 0.308876C33.984 0.230476 34.0887 0.171319 34.2042 0.129268C34.3189 0.0879298 34.438 0.0672607 34.5606 0.0672607C34.6824 0.0672607 34.8015 0.0879298 34.9169 0.129268C35.0317 0.171319 35.1364 0.230476 35.2312 0.308876L59.452 20.3017C59.5354 20.3708 59.6066 20.4506 59.6658 20.5412C59.7242 20.6324 59.7684 20.73 59.7969 20.8348C59.8254 20.9389 59.8375 21.0458 59.8333 21.1534C59.8297 21.2617 59.809 21.3672 59.772 21.4691C59.7356 21.5711 59.6843 21.6651 59.6187 21.7507C59.5532 21.8369 59.4755 21.911 59.3871 21.9737C59.2987 22.0358 59.2025 22.0835 59.0992 22.1163C58.9958 22.1491 58.8896 22.1655 58.7813 22.1655ZM13.267 20.0608H55.8541L34.5606 2.48484L13.267 20.0608Z" fill="white"/>
<path d="M53.5157 48.4717H15.6041C15.535 48.4717 15.4666 48.4652 15.3989 48.4517C15.3312 48.4382 15.2649 48.4182 15.2014 48.3918C15.1373 48.3655 15.0767 48.3327 15.019 48.2942C14.9612 48.2557 14.9085 48.2122 14.8593 48.1638C14.8109 48.1146 14.7667 48.0611 14.7282 48.0041C14.6904 47.9464 14.6576 47.8858 14.6313 47.8224C14.6049 47.7582 14.5849 47.6926 14.5714 47.6249C14.5578 47.5572 14.5507 47.4888 14.5507 47.4197V21.1128C14.5507 21.0436 14.5578 20.9752 14.5714 20.9075C14.5849 20.8398 14.6049 20.7742 14.6313 20.7101C14.6576 20.6467 14.6904 20.5861 14.7282 20.5283C14.7667 20.4706 14.8109 20.4179 14.8593 20.3687C14.9085 20.3202 14.9612 20.276 15.019 20.2383C15.0767 20.1998 15.1373 20.167 15.2014 20.1406C15.2649 20.1142 15.3312 20.0943 15.3989 20.0807C15.4666 20.0672 15.535 20.0608 15.6041 20.0608H53.5157C53.5848 20.0608 53.6533 20.0672 53.721 20.0807C53.7887 20.0943 53.8542 20.1142 53.9184 20.1406C53.9825 20.167 54.0431 20.1998 54.1001 20.2383C54.1579 20.276 54.2113 20.3202 54.2598 20.3687C54.309 20.4179 54.3524 20.4706 54.3909 20.5283C54.4294 20.5861 54.4615 20.6467 54.4886 20.7101C54.5149 20.7742 54.5349 20.8398 54.5484 20.9075C54.562 20.9752 54.5684 21.0436 54.5684 21.1128V47.4197C54.5684 47.4888 54.562 47.5572 54.5484 47.6249C54.5349 47.6926 54.5149 47.7582 54.4886 47.8224C54.4615 47.8858 54.4294 47.9464 54.3909 48.0041C54.3524 48.0611 54.309 48.1146 54.2598 48.1638C54.2113 48.2122 54.1579 48.2557 54.1001 48.2942C54.0431 48.3327 53.9825 48.3655 53.9184 48.3918C53.8542 48.4182 53.7887 48.4382 53.721 48.4517C53.6533 48.4652 53.5848 48.4717 53.5157 48.4717ZM16.6575 46.367H52.4623V22.1655H16.6575V46.367Z" fill="white"/>
<path d="M47.1966 48.4718H35.6126C35.5434 48.4718 35.475 48.4654 35.4073 48.4518C35.3396 48.4383 35.2733 48.4183 35.2099 48.392C35.1457 48.3656 35.0852 48.3328 35.0274 48.2943C34.9704 48.2558 34.917 48.2124 34.8685 48.1639C34.8193 48.1147 34.7758 48.0613 34.7373 48.0042C34.6989 47.9465 34.6661 47.8859 34.6397 47.8225C34.6133 47.7583 34.5934 47.6928 34.5798 47.6251C34.5663 47.5574 34.5599 47.4889 34.5599 47.4198V31.6357C34.5599 31.5665 34.5663 31.4981 34.5798 31.4304C34.5934 31.3627 34.6133 31.2971 34.6397 31.233C34.6661 31.1688 34.6989 31.1082 34.7373 31.0512C34.7758 30.9935 34.8193 30.9408 34.8685 30.8916C34.917 30.8424 34.9704 30.7989 35.0274 30.7604C35.0852 30.7227 35.1457 30.6899 35.2099 30.6635C35.274 30.6371 35.3396 30.6172 35.4073 30.6036C35.475 30.5901 35.5434 30.5837 35.6126 30.5837H47.1966C47.2657 30.5837 47.3341 30.5901 47.4026 30.6036C47.4703 30.6172 47.5358 30.6371 47.6 30.6635C47.6634 30.6899 47.724 30.7227 47.7817 30.7604C47.8395 30.7989 47.8922 30.8424 47.9414 30.8916C47.9906 30.9408 48.034 30.9935 48.0725 31.0512C48.111 31.1082 48.1431 31.1688 48.1695 31.233C48.1958 31.2971 48.2158 31.3627 48.2293 31.4304C48.2429 31.4981 48.25 31.5665 48.25 31.6357V47.4198C48.25 47.4889 48.2429 47.5574 48.2293 47.6251C48.2158 47.6928 48.1958 47.7583 48.1695 47.8225C48.1431 47.8859 48.111 47.9465 48.0725 48.0042C48.034 48.0613 47.9906 48.1147 47.9414 48.1639C47.8922 48.2124 47.8395 48.2558 47.7817 48.2943C47.724 48.3328 47.6634 48.3656 47.6 48.392C47.5358 48.4183 47.4703 48.4383 47.4026 48.4518C47.3341 48.4654 47.2657 48.4718 47.1966 48.4718ZM36.666 46.3671H46.1439V32.6877H36.666V46.3671Z" fill="white"/>
<path d="M29.295 40.0537H21.9232C21.8541 40.0537 21.7857 40.0473 21.718 40.0338C21.6503 40.0202 21.584 40.0003 21.5206 39.9739C21.4564 39.9468 21.3958 39.9147 21.3381 39.8763C21.2811 39.8378 21.2276 39.7943 21.1784 39.7458C21.13 39.6967 21.0865 39.6432 21.048 39.5862C21.0095 39.5284 20.9767 39.4679 20.9504 39.4044C20.924 39.3403 20.904 39.2747 20.8905 39.207C20.877 39.1393 20.8705 39.0709 20.8705 39.0017V31.6357C20.8705 31.5665 20.877 31.4981 20.8905 31.4304C20.904 31.3627 20.924 31.2971 20.9504 31.233C20.9767 31.1688 21.0095 31.1082 21.048 31.0512C21.0865 30.9935 21.13 30.9408 21.1784 30.8916C21.2276 30.8424 21.2811 30.7989 21.3381 30.7604C21.3958 30.7227 21.4564 30.6899 21.5206 30.6635C21.584 30.6371 21.6503 30.6172 21.718 30.6036C21.7857 30.5901 21.8541 30.5837 21.9232 30.5837H29.295C29.3642 30.5837 29.4326 30.5901 29.5003 30.6036C29.568 30.6172 29.6343 30.6371 29.6977 30.6635C29.7619 30.6899 29.8224 30.7227 29.8802 30.7604C29.9379 30.7989 29.9906 30.8424 30.0398 30.8916C30.0883 30.9408 30.1325 30.9935 30.171 31.0512C30.2087 31.1082 30.2415 31.1688 30.2679 31.233C30.2943 31.2971 30.3142 31.3627 30.3278 31.4304C30.3413 31.4981 30.3484 31.5665 30.3484 31.6357V39.0017C30.3484 39.0709 30.3413 39.1393 30.3278 39.207C30.3142 39.2747 30.2943 39.3403 30.2679 39.4044C30.2415 39.4679 30.2087 39.5284 30.171 39.5862C30.1325 39.6432 30.0883 39.6967 30.0398 39.7458C29.9906 39.7943 29.9379 39.8378 29.8802 39.8763C29.8224 39.9147 29.7619 39.9468 29.6977 39.9739C29.6343 40.0003 29.568 40.0202 29.5003 40.0338C29.4326 40.0473 29.3642 40.0537 29.295 40.0537ZM22.9767 37.949H28.2423V32.6877H22.9767V37.949Z" fill="white"/>
</svg>
