<svg xmlns="http://www.w3.org/2000/svg" xmlns:xlink="http://www.w3.org/1999/xlink" width="1080" zoomAndPan="magnify" viewBox="0 0 810 809.999993" height="1080" preserveAspectRatio="xMidYMid meet" version="1.0"><path fill="#000000" d="M 415.382812 63.945312 C 350.785156 61.796875 285.519531 79.417969 229.171875 117.03125 C 165.886719 159.320312 121.660156 221.765625 101.289062 291.574219 C 95.664062 290.886719 88.929688 291.191406 80.929688 293.453125 C 51.0625 301.925781 28.601562 326.398438 18.503906 347.953125 C 5.402344 376.039062 -0.121094 413.175781 5.707031 451.535156 C 11.492188 489.761719 27.644531 521.273438 47.84375 540.835938 C 68.101562 560.410156 90.980469 566.773438 113.703125 561.996094 C 147.539062 554.773438 164.3125 549.371094 159.574219 517.847656 L 136.640625 365.050781 C 141.265625 282.355469 184.078125 204.503906 255.683594 156.632812 C 351.53125 92.609375 477.191406 96.710938 568.617188 166.894531 C 632.214844 215.65625 669.140625 288.714844 673.402344 365.414062 L 657.363281 472.300781 C 621.589844 570.195312 532.902344 638.007812 430.28125 647.632812 L 361.945312 647.632812 C 344.3125 647.632812 330.109375 661.832031 330.109375 679.445312 L 330.109375 696.230469 C 330.109375 713.855469 344.3125 728.054688 361.945312 728.054688 L 448.105469 728.054688 C 465.730469 728.054688 479.871094 713.855469 479.871094 696.230469 L 479.871094 687.453125 C 557.253906 668.566406 624.800781 621.007812 668.785156 554.683594 L 696.386719 562.003906 C 718.851562 567.832031 742 560.410156 762.25 540.847656 C 782.449219 521.273438 798.585938 489.773438 804.382812 451.542969 C 810.230469 413.195312 804.546875 376.109375 791.597656 347.960938 C 778.601562 319.8125 759.238281 301.9375 736.886719 295.523438 C 727.523438 292.828125 717.363281 291.835938 708.648438 291.574219 C 690.226562 228.453125 652.300781 171.042969 597.644531 129.128906 C 543.890625 87.894531 479.980469 66.058594 415.382812 63.945312 Z M 415.382812 63.945312 " fill-opacity="1" fill-rule="evenodd"/><path fill="#000000" d="M 516.230469 338.839844 C 539.003906 338.839844 557.464844 357.304688 557.515625 380.140625 C 557.464844 402.914062 539.003906 421.425781 516.230469 421.425781 C 493.394531 421.425781 474.878906 402.914062 474.878906 380.140625 C 474.878906 357.304688 493.394531 338.839844 516.230469 338.839844 Z M 405.03125 338.839844 C 427.855469 338.839844 446.316406 357.304688 446.316406 380.140625 C 446.316406 402.914062 427.855469 421.425781 405.03125 421.425781 C 382.183594 421.425781 363.722656 402.914062 363.722656 380.140625 C 363.722656 357.304688 382.183594 338.839844 405.03125 338.839844 Z M 293.871094 338.839844 C 316.648438 338.839844 335.160156 357.304688 335.160156 380.140625 C 335.160156 402.914062 316.648438 421.425781 293.871094 421.425781 C 271.046875 421.425781 252.574219 402.914062 252.574219 380.140625 C 252.574219 357.304688 271.046875 338.839844 293.871094 338.839844 Z M 405.03125 161.46875 C 283.933594 161.46875 186.351562 255.84375 186.351562 380.140625 C 186.351562 439.839844 208.921875 492.601562 245.695312 531.3125 L 232.648438 589.808594 C 228.34375 609.058594 241.695312 622.007812 258.996094 612.375 L 316.121094 580.507812 C 343.269531 592.292969 373.296875 598.808594 405.03125 598.808594 C 526.167969 598.808594 623.691406 504.496094 623.691406 380.140625 C 623.691406 255.84375 526.167969 161.46875 405.03125 161.46875 Z M 405.03125 161.46875 " fill-opacity="1" fill-rule="evenodd"/></svg>