<svg width="60" height="60" viewBox="0 0 60 60" fill="none" xmlns="http://www.w3.org/2000/svg">
<path d="M24.6766 1.26838V10.7821C24.6766 11.3528 25.0576 11.7331 25.6283 11.7331H35.142C35.7128 11.7331 36.093 11.3528 36.093 10.7821V1.26838C36.093 0.697627 35.7128 0.31665 35.142 0.31665H25.6283C25.0576 0.31665 24.6766 0.697627 24.6766 1.26838ZM26.5793 2.21939H29.4338V5.07386C29.4338 5.64461 29.8141 6.02487 30.3848 6.02487C30.9556 6.02487 31.3366 5.64461 31.3366 5.07386V2.21939H34.1903V9.83035H26.5793V2.21939Z" fill="white"/>
<path d="M1.7491 24.3868C0.797372 25.8137 0.702485 27.6216 1.36812 29.2389L4.79334 36.8499C4.98383 37.2302 5.2692 37.4207 5.64947 37.4207C6.03044 37.4207 6.41071 37.2302 6.50559 36.8499L9.93081 29.2389C10.5964 27.6216 10.5016 25.8137 9.55055 24.3868C8.69371 23.0549 7.26683 22.1987 5.64947 22.1987C4.0321 22.1987 2.60522 23.0549 1.7491 24.3868ZM3.27086 25.4335C3.84233 24.5773 4.69845 24.1015 5.64947 24.1015C6.60119 24.1015 7.45732 24.5773 8.02807 25.4335C8.59882 26.3845 8.69371 27.4311 8.21856 28.4777L5.64947 34.1859L3.08109 28.4777C2.60522 27.4311 2.70011 26.2896 3.27086 25.4335Z" fill="white"/>
<path d="M6.60129 27.1456C6.60129 27.2084 6.59487 27.2697 6.58274 27.3311C6.57061 27.3924 6.55277 27.4524 6.52852 27.5102C6.50497 27.5672 6.47572 27.6222 6.44076 27.6743C6.40581 27.7263 6.36657 27.7741 6.32233 27.8184C6.2781 27.8626 6.2303 27.9018 6.17822 27.9368C6.12614 27.9718 6.0712 28.001 6.01413 28.0245C5.95634 28.0488 5.89641 28.0666 5.83505 28.0788C5.7737 28.0909 5.71234 28.0973 5.64956 28.0973C5.58749 28.0973 5.52542 28.0909 5.46407 28.0788C5.40271 28.0666 5.3435 28.0488 5.28571 28.0245C5.22792 28.001 5.17298 27.9718 5.1209 27.9368C5.06954 27.9018 5.02102 27.8626 4.97679 27.8184C4.93256 27.7741 4.89332 27.7263 4.85836 27.6743C4.82411 27.6222 4.79486 27.5672 4.7706 27.5102C4.74706 27.4524 4.72851 27.3924 4.71638 27.3311C4.70425 27.2697 4.69855 27.2084 4.69855 27.1456C4.69855 27.0835 4.70425 27.0215 4.71638 26.9601C4.72851 26.8987 4.74706 26.8395 4.7706 26.7817C4.79486 26.724 4.82411 26.669 4.85836 26.6169C4.89332 26.5656 4.93256 26.5171 4.97679 26.4728C5.02102 26.4286 5.06954 26.3893 5.1209 26.3544C5.17298 26.3201 5.22792 26.2909 5.28571 26.2666C5.3435 26.2431 5.40271 26.2245 5.46407 26.2124C5.52542 26.2003 5.58749 26.1946 5.64956 26.1946C5.71234 26.1946 5.7737 26.2003 5.83505 26.2124C5.89641 26.2245 5.95634 26.2431 6.01413 26.2666C6.0712 26.2909 6.12614 26.3201 6.17822 26.3544C6.2303 26.3893 6.2781 26.4286 6.32233 26.4728C6.36657 26.5171 6.40581 26.5656 6.44076 26.6169C6.47572 26.669 6.50497 26.724 6.52852 26.7817C6.55277 26.8395 6.57061 26.8987 6.58274 26.9601C6.59487 27.0215 6.60129 27.0835 6.60129 27.1456Z" fill="white"/>
<path d="M3.74683 8.87934V15.5386C3.74683 16.11 4.1278 16.4903 4.69855 16.4903H12.3095C12.8803 16.4903 13.2605 16.11 13.2605 15.5386V8.87934C13.2605 7.45246 12.2139 6.21536 10.787 6.02487C11.4534 5.45412 11.8337 4.59799 11.8337 3.64698C11.8337 1.83913 10.3112 0.31665 8.50403 0.31665C6.69618 0.31665 5.1737 1.83913 5.1737 3.64698C5.1737 4.59799 5.55468 5.45412 6.22032 6.02487C4.79344 6.21536 3.74683 7.45246 3.74683 8.87934ZM8.50403 2.21939C9.26527 2.21939 9.93091 2.88574 9.93091 3.64698C9.93091 4.40751 9.26527 5.07386 8.50403 5.07386C7.74279 5.07386 7.07644 4.40751 7.07644 3.64698C7.07644 2.88574 7.74279 2.21939 8.50403 2.21939ZM5.64957 8.87934C5.64957 8.30859 6.03054 7.92761 6.60129 7.92761H10.4068C10.9775 7.92761 11.3578 8.30859 11.3578 8.87934V14.5876H5.64957V8.87934Z" fill="white"/>
<path d="M14.2123 21.2468C14.2123 24.9574 17.1617 27.9067 20.8715 27.9067C24.5821 27.9067 27.5315 24.9574 27.5315 21.2468C27.5315 17.5369 24.5821 14.5875 20.8715 14.5875C17.1617 14.5875 14.2123 17.5369 14.2123 21.2468ZM20.8715 26.004C18.2076 26.004 16.1151 23.9107 16.1151 21.2468C16.1151 18.9638 17.7324 17.061 19.9205 16.5852V21.2468C19.9205 21.8182 20.3008 22.1985 20.8715 22.1985H25.5332C25.058 24.3866 23.1553 26.004 20.8715 26.004ZM25.5332 20.2957H21.8233V16.5852C23.726 16.9661 25.1529 18.393 25.5332 20.2957Z" fill="white"/>
<path d="M58.3547 29.7146L59.4013 27.2411C59.5918 26.955 59.4969 26.4799 59.2116 26.2894C59.0211 26.004 58.6401 25.9091 58.2598 26.004L55.6914 26.6697L53.6931 24.9574C53.4077 24.672 53.0275 24.672 52.7421 24.7669C52.3611 24.8625 52.1713 25.2428 52.1713 25.6238L51.9809 28.287L49.6971 29.619C49.4118 29.8095 49.222 30.1898 49.222 30.4751C49.222 30.8561 49.5074 31.1415 49.7927 31.332L52.2662 32.283L52.837 34.8521C52.9319 35.2324 53.2172 35.5177 53.5026 35.6126C53.5982 35.6126 53.6931 35.6126 53.6931 35.6126C53.9785 35.6126 54.2639 35.5177 54.4543 35.2324L56.1666 33.2347L58.8306 33.5201C59.2116 33.5201 59.4969 33.4245 59.6867 33.0442C59.8772 32.7589 59.8772 32.3779 59.6867 31.9976L58.3547 29.7146ZM55.8812 31.2364C55.5958 31.2364 55.3105 31.332 55.0251 31.6174L54.2639 32.5684L53.9785 31.4269C53.8836 31.1415 53.6931 30.8561 53.4077 30.7612L52.2662 30.2854L53.3128 29.619C53.5982 29.4292 53.7887 29.1439 53.7887 28.8585L53.8836 27.6214L54.8346 28.3826C55.0251 28.5724 55.4061 28.668 55.6914 28.5724L56.8329 28.287L56.3571 29.4292C56.2622 29.7146 56.2622 30 56.452 30.2854L57.1183 31.332L55.8812 31.2364Z" fill="white"/>
<path d="M50.3638 0.31665C45.1314 0.31665 40.8501 4.59799 40.8501 9.83035C40.8501 15.0634 45.1314 19.3441 50.3638 19.3441C55.5962 19.3441 59.8775 15.0634 59.8775 9.83035C59.8775 4.59799 55.5962 0.31665 50.3638 0.31665ZM50.3638 17.4413C46.1781 17.4413 42.7528 14.0168 42.7528 9.83035C42.7528 5.64461 46.1781 2.21939 50.3638 2.21939C54.5495 2.21939 57.9748 5.64461 57.9748 9.83035C57.9748 14.0168 54.5495 17.4413 50.3638 17.4413Z" fill="white"/>
<path d="M51.315 8.87949V6.69137C51.696 6.78626 52.0762 6.97675 52.1718 7.26212C52.3616 7.5475 52.647 7.73798 52.9324 7.73798C53.6936 7.73798 54.1695 6.97675 53.7892 6.31039C53.3133 5.45427 52.3616 4.78863 51.2201 4.69303V4.12228C51.2201 3.55153 50.8399 3.17126 50.2691 3.17126C49.6976 3.17126 49.3174 3.55153 49.3174 4.12228V4.78863C47.7 4.88352 46.4636 6.21551 46.4636 7.73798C46.4636 9.25975 47.7 10.5917 49.3174 10.6873V12.8755C48.9371 12.7799 48.5561 12.5901 48.4613 12.3047C48.2708 12.0186 47.9854 11.8288 47.7 11.8288C46.9388 11.8288 46.4636 12.5901 46.8439 13.2557C47.3197 14.1118 48.2708 14.7782 49.4123 14.8731V15.5387C49.4123 16.1102 49.7932 16.4904 50.364 16.4904C50.9347 16.4904 51.315 16.1102 51.315 15.5387V14.8731C52.9324 14.7782 54.1695 13.4462 54.1695 11.9237C54.1695 10.402 52.9324 8.97437 51.315 8.87949ZM48.4613 7.83287C48.4613 7.26212 48.9371 6.88186 49.4123 6.78626V8.87949C48.8415 8.7846 48.4613 8.30873 48.4613 7.83287ZM51.315 12.8755V10.7822C51.8865 10.8771 52.2667 11.2581 52.2667 11.8288C52.2667 12.3996 51.8865 12.7799 51.315 12.8755Z" fill="white"/>
<path d="M36.0931 26.9552C36.6639 26.9552 37.0448 26.575 37.0448 26.0042V18.3933C37.0448 17.8225 36.6639 17.4415 36.0931 17.4415C35.5224 17.4415 35.1421 17.8225 35.1421 18.3933V26.0042C35.1421 26.575 35.5224 26.9552 36.0931 26.9552Z" fill="white"/>
<path d="M39.8988 21.2469C39.3281 21.2469 38.9478 21.6279 38.9478 22.1987V26.0042C38.9478 26.5749 39.3281 26.9552 39.8988 26.9552C40.4696 26.9552 40.8506 26.5749 40.8506 26.0042V22.1987C40.8506 21.6279 40.4696 21.2469 39.8988 21.2469Z" fill="white"/>
<path d="M43.7046 26.9551C44.276 26.9551 44.6563 26.5748 44.6563 26.0041V25.0523C44.6563 24.4816 44.276 24.1013 43.7046 24.1013C43.1338 24.1013 42.7535 24.4816 42.7535 25.0523V26.0041C42.7535 26.5748 43.1338 26.9551 43.7046 26.9551Z" fill="white"/>
<mask id="mask0_2_723" style="mask-type:luminance" maskUnits="userSpaceOnUse" x="0" y="29" width="60" height="31">
<path d="M0.884766 29.7006H59.8776V59.3974H0.884766V29.7006Z" fill="white"/>
</mask>
<g mask="url(#mask0_2_723)">
<path d="M58.9266 59.3026C59.498 59.3026 59.8783 58.8268 59.8783 58.3509C59.4024 42.5582 46.3686 29.8098 30.3855 29.8098C14.4023 29.8098 1.36849 42.5582 0.893341 58.3509C0.893341 58.9217 1.2736 59.3026 1.84435 59.3026C2.32022 59.3026 2.79608 58.9217 2.79608 58.3509C2.89097 56.0679 3.27123 53.7842 3.8427 51.5961C4.60322 51.7866 5.26957 52.2624 5.74544 52.8332C6.22059 53.4039 6.50596 54.1652 6.60156 54.9264C6.69645 55.7825 6.98182 56.5431 7.55258 57.1145C8.12333 57.7802 8.78968 58.256 9.55092 58.4465C10.1217 58.6363 10.6924 58.7319 11.2632 58.7319C13.071 58.7319 14.8782 57.8751 16.0197 56.3533L19.2544 52.0719C19.7303 51.4063 20.4915 50.9304 21.3476 50.8348L23.8211 50.4546C25.248 50.2641 26.6756 49.8838 28.0076 49.5036L30.8613 48.7423C31.7174 48.457 32.4787 47.8862 32.7641 46.9345C32.8589 46.4586 32.9546 46.0784 32.8589 45.6025C32.6692 44.2705 31.4321 43.3195 30.0052 43.3195L25.629 43.7953L18.969 43.9851C18.7792 43.9851 18.5888 43.9851 18.4939 43.8902C17.9224 43.6997 17.4473 43.2239 17.3517 42.5582C17.1619 41.7021 17.7326 40.846 18.6836 40.6555L22.0133 39.9899C24.0116 39.6089 25.9143 38.9433 27.912 38.0871C30.2906 37.0405 31.5277 34.186 31.7174 31.6177C39.2335 31.903 46.0832 35.3275 50.8405 40.5606C49.8887 41.1314 49.0326 41.8926 48.2714 42.7487C47.2247 43.8902 46.3686 45.2222 45.7979 46.744C45.1322 48.5518 43.8002 49.9787 41.9924 50.74L38.9481 52.0719C37.6162 52.6427 36.76 53.9747 36.76 55.4016C36.76 55.8774 36.8549 56.2577 37.0454 56.7336C37.6162 58.1604 38.9481 59.0173 40.375 59.0173C40.756 59.0173 41.0414 58.9217 41.4216 58.8268L41.6121 58.7319C44.4659 57.8751 48.6523 55.5921 50.8405 53.5944L53.7898 51.0253C54.1701 50.74 54.6459 50.5495 55.1211 50.5495C55.5021 50.5495 56.2633 50.9304 56.7384 51.3107C57.4048 53.4988 57.7851 55.8774 57.8807 58.3509C57.9756 58.9217 58.3558 59.3026 58.9266 59.3026ZM26.961 36.4698C25.1531 37.2303 23.3452 37.8966 21.5381 38.182L18.2078 38.8477C16.305 39.2286 15.0686 41.0358 15.4489 42.9385C15.6394 44.2705 16.5911 45.3171 17.9224 45.793C18.3034 45.8879 18.6836 45.9835 19.0646 45.9835L25.8195 45.793L30.2906 45.5076C30.6708 45.5076 31.0518 45.793 31.1467 46.1732C31.1467 46.2688 31.1467 46.3637 31.1467 46.5542C31.0518 46.8396 30.8613 47.0294 30.5759 47.125L27.7222 47.8862C26.3902 48.2665 25.0582 48.5518 23.7262 48.7423L21.2527 49.1226C19.9207 49.3131 18.7792 50.0743 17.9224 51.1209L14.6884 55.4016C13.6418 56.7336 11.9288 57.3043 10.3114 56.8292C9.83629 56.7336 9.45532 56.4482 9.16994 56.0679C8.88456 55.6869 8.69408 55.3067 8.69408 54.8308C8.59919 53.6893 8.12333 52.6427 7.3628 51.6917C6.60156 50.8348 5.64984 50.1692 4.60322 49.7889C8.4087 39.4184 18.2078 31.9979 29.8147 31.7126C29.4344 33.6153 28.4827 35.7085 26.961 36.4698ZM55.2167 48.7423C54.265 48.7423 53.4088 49.1226 52.6476 49.6933L49.6982 52.2624C47.7006 54.0696 43.8002 56.1628 41.2312 56.924L41.0414 57.0189C40.1845 57.3043 39.3284 56.8292 38.9481 56.0679C38.8533 55.8774 38.8533 55.5921 38.8533 55.4016C38.8533 54.7359 39.2335 54.0696 39.8992 53.8798L42.8485 52.5478C45.0366 51.5961 46.7496 49.7889 47.6057 47.4103C48.0816 46.1732 48.7472 45.0317 49.6982 43.9851C50.3646 43.2239 51.2207 42.5582 52.0768 41.9875C53.6942 43.9851 55.0262 46.2688 56.0728 48.7423C55.5969 48.7423 55.4072 48.7423 55.2167 48.7423Z" fill="white"/>
</g>
</svg>
