<svg width="63" height="63" viewBox="0 0 63 63" fill="none" xmlns="http://www.w3.org/2000/svg">
<mask id="mask0_2_255" style="mask-type:luminance" maskUnits="userSpaceOnUse" x="0" y="11" width="43" height="49">
<path d="M0 11.3342H42.8622V59.7913H0V11.3342Z" fill="white"/>
</mask>
<g mask="url(#mask0_2_255)">
<path d="M42.0577 20.5763C42.278 20.5599 42.4982 20.5526 42.7166 20.5508C42.2925 19.7882 41.4025 19.3605 40.507 19.5607L29.4375 22.0378C27.652 19.437 24.638 15.3509 22.4867 14.0132C22.2519 13.8239 21.9716 13.6874 21.6549 13.6237L12.0796 11.689C12.0378 11.6799 11.9959 11.6762 11.9541 11.669C11.2515 11.5452 9.84826 11.4979 8.19747 12.5189C4.39356 14.8704 1.70171 21.4244 0.192882 31.999C0.0363578 33.1037 0.80442 34.1248 1.91101 34.2831C2.00747 34.2959 2.10394 34.3031 2.19858 34.3031C3.19051 34.3031 4.05503 33.5751 4.19882 32.5686C5.45283 23.776 7.38027 19.3387 8.95462 17.262L6.34466 30.1334C6.32464 30.228 6.31554 30.3209 6.31008 30.4155C6.27732 30.5939 6.25912 30.7759 6.25912 30.9633V56.5114C6.25912 58.235 7.65874 59.6328 9.38597 59.6328C11.1114 59.6328 12.5128 58.235 12.5128 56.5114V33.3695L13.6849 33.6061V56.5114C13.6849 58.235 15.0846 59.6328 16.8118 59.6328C18.5372 59.6328 19.9386 58.235 19.9386 56.5114V31.9207L22.4558 19.5043C23.7425 21.024 25.3606 23.1881 26.8439 25.4249C27.2243 25.9982 27.8631 26.3295 28.5311 26.3295C28.6785 26.3295 28.8278 26.3131 28.9752 26.2803L33.5708 25.252C35.5237 22.6075 38.5796 20.8184 42.0577 20.5763Z" fill="white"/>
</g>
<mask id="mask1_2_255" style="mask-type:luminance" maskUnits="userSpaceOnUse" x="23" y="51" width="40" height="12">
<path d="M23.7575 51.8704H62.2007V63H23.7575V51.8704Z" fill="white"/>
</mask>
<g mask="url(#mask1_2_255)">
<path d="M62.1473 57.5217C62.1473 54.7406 54.8999 52.4455 45.5193 52.0979C45.4866 52.3454 45.4574 52.593 45.432 52.8405C53.8333 53.1372 60.3036 54.979 60.3036 57.2104C60.3036 59.6475 52.5793 61.6241 43.0513 61.6241C33.5215 61.6241 25.7972 59.6475 25.7972 57.2104C25.7972 55.01 32.0928 53.1863 40.3249 52.8532C40.2976 52.6057 40.2685 52.3582 40.2339 52.1106C31.0226 52.502 23.9535 54.7752 23.9535 57.5217C23.9535 60.5411 32.5041 62.9909 43.0513 62.9909C53.5985 62.9909 62.1473 60.5411 62.1473 57.5217Z" fill="white"/>
</g>
<path d="M41.7142 56.9608H44.053V55.1044C44.053 49.1801 46.2844 43.456 50.3668 39.1571C52.114 37.3152 53.186 34.8272 53.186 32.0898C53.186 26.1692 48.17 21.417 42.1474 21.8356C37.0313 22.1905 32.9088 26.3512 32.6031 31.4582C32.4265 34.3813 33.4749 37.0567 35.284 39.0278C39.3318 43.4415 41.7142 49.1219 41.7142 55.1044V56.9608ZM36.1467 32.0898C36.1467 28.3769 39.1644 25.3665 42.8845 25.3665C46.6065 25.3665 49.6224 28.3769 49.6224 32.0898C49.6224 35.8045 46.6047 38.8149 42.8845 38.8149C39.1644 38.8149 36.1467 35.8045 36.1467 32.0898Z" fill="white"/>
<path d="M47.0924 32.0899C47.0924 29.7747 45.205 27.891 42.8844 27.891C40.5639 27.891 38.6765 29.7747 38.6765 32.0899C38.6765 34.4068 40.5639 36.2905 42.8844 36.2905C45.205 36.2905 47.0924 34.4068 47.0924 32.0899Z" fill="white"/>
<path d="M22.1868 1.5495C22.458 1.8043 22.7019 2.08459 22.9185 2.38854C23.1351 2.69249 23.3207 3.01464 23.4736 3.35499C23.6265 3.69534 23.7448 4.04661 23.8285 4.41062C23.9123 4.77281 23.9596 5.14228 23.9705 5.51357C23.9814 5.88668 23.9541 6.25797 23.8922 6.62562C23.8304 6.99327 23.7339 7.35 23.601 7.69945C23.4682 8.04708 23.3025 8.38015 23.1042 8.69684C22.9039 9.01171 22.6783 9.30474 22.4216 9.57593C22.165 9.84712 21.8847 10.091 21.5789 10.3076C21.275 10.5242 20.9529 10.708 20.6125 10.8609C20.2703 11.0138 19.9191 11.1321 19.5551 11.2158C19.1892 11.2977 18.8216 11.345 18.4485 11.3559C18.0735 11.3669 17.7041 11.3414 17.3346 11.2795C16.9669 11.2176 16.6084 11.1212 16.2589 10.9883C15.9095 10.8554 15.5764 10.6898 15.2597 10.4914C14.943 10.293 14.65 10.0673 14.377 9.81072C14.1058 9.55409 13.8619 9.27562 13.6453 8.97167C13.4288 8.66772 13.2431 8.34557 13.0902 8.00522C12.9373 7.66487 12.819 7.3136 12.7353 6.94959C12.6516 6.58558 12.6061 6.21793 12.5952 5.84482C12.5842 5.47171 12.6097 5.10224 12.6716 4.73459C12.7335 4.36694 12.8318 4.00839 12.9646 3.66076C13.0975 3.31131 13.2631 2.98006 13.4615 2.66337C13.6599 2.3485 13.8874 2.05365 14.1422 1.78246C14.3988 1.51127 14.6791 1.26739 14.9849 1.05262C15.2888 0.836035 15.611 0.650389 15.9513 0.499325C16.2935 0.346441 16.6448 0.228137 17.0106 0.144415C17.3746 0.0606929 17.7423 0.0133711 18.1154 0.00245102C18.4903 -0.00846953 18.8598 0.0170118 19.2293 0.0807133C19.5969 0.142595 19.9555 0.239058 20.3049 0.371922C20.6544 0.504785 20.9874 0.67041 21.3041 0.866976C21.6208 1.06536 21.9157 1.29287 22.1868 1.5495Z" fill="white"/>
</svg>
