<svg width="60" height="48" viewBox="0 0 60 48" fill="none" xmlns="http://www.w3.org/2000/svg">
<mask id="mask0_2_696" style="mask-type:luminance" maskUnits="userSpaceOnUse" x="0" y="0" width="60" height="48">
<path d="M0.195312 0.0576172H59.1881V47.8527H0.195312V0.0576172Z" fill="white"/>
</mask>
<g mask="url(#mask0_2_696)">
<path fill-rule="evenodd" clip-rule="evenodd" d="M17.2718 5.39262C17.1808 5.20201 17.0393 5.02847 16.8508 4.87698L11.4397 0.527054C10.8835 0.0796864 10.1118 0.0796864 9.55492 0.527054L4.14383 4.87698C3.76545 5.18139 3.58622 5.55763 3.58622 6.04554V23.4004C3.58622 23.4708 3.64383 23.5277 3.71424 23.5277H17.2811C17.3508 23.5277 17.4084 23.4708 17.4084 23.4004V6.04554C17.4084 5.79945 17.3622 5.58039 17.2718 5.39262ZM26.653 28.6045C28.3316 30.2802 31.0528 30.2809 32.7313 28.6045C34.4098 26.9282 34.4098 24.2098 32.7313 22.5341C31.0528 20.8578 28.3316 20.8578 26.653 22.5341C24.9745 24.2098 24.9745 26.9282 26.653 28.6045ZM36.4653 41.1436V46.7667C36.4653 47.3492 35.9894 47.8243 35.4062 47.8243H23.9781C23.3949 47.8243 22.9191 47.3492 22.9191 46.7667V40.2567C22.9191 40.1451 22.8188 40.202 22.7733 40.2304L20.1794 41.8798C19.7249 42.1678 19.2249 42.2013 18.7078 42.2894C18.5293 42.3193 18.5997 42.1109 18.4731 42.0668C18.0236 41.9104 17.6723 41.6116 17.4376 41.197L13.2498 33.7973C13.2206 33.7454 12.9454 33.7304 12.8444 33.7205C11.094 33.5441 9.70641 33.7703 9.01651 31.4893L8.72135 30.5107C8.69646 30.4282 8.75762 30.3464 8.84297 30.3464H14.668C14.7092 30.3464 14.7441 30.3634 14.7697 30.3961L18.9859 35.9033C19.3259 36.3471 19.976 36.4175 20.4006 36.0114C22.9475 33.5754 24.4511 31.8641 28.205 31.5284C28.9909 31.4587 30.3934 31.4587 31.1794 31.5284C34.934 31.8641 36.4368 33.5761 38.9838 36.0114C39.4091 36.4175 40.0591 36.3471 40.3984 35.9033L44.6153 30.3961C44.6402 30.3641 44.6758 30.3464 44.7163 30.3464H50.5428C50.6288 30.3464 50.69 30.4282 50.6651 30.5107C50.3472 31.5576 50.1132 32.7304 49.0876 33.2859C48.3429 33.6892 47.1367 33.6415 46.1836 33.7596C46.131 33.766 46.1274 33.8101 46.1082 33.8435L41.9468 41.197C41.392 42.1771 40.1381 42.4722 39.2057 41.8798L36.5677 40.2034C36.5236 40.1749 36.4688 40.2084 36.4688 40.256L36.4702 41.1436H36.4653ZM38.6075 25.601C39.099 27.2375 40.6217 28.4068 42.3728 28.4068H55.4012C57.1523 28.4068 58.675 27.2375 59.1665 25.601C59.1907 25.5192 59.1302 25.4374 59.0442 25.4374H38.7291C38.6438 25.4374 38.5826 25.5192 38.6075 25.601ZM20.6552 25.4374H0.340138C0.254078 25.4374 0.192912 25.5192 0.217805 25.601C0.70927 27.2375 2.23203 28.4068 3.98309 28.4068H17.0115C18.7626 28.4068 20.2853 27.2375 20.7768 25.601C20.8017 25.5192 20.7405 25.4374 20.6552 25.4374ZM42.1125 5.39262C42.0222 5.58039 41.9759 5.79945 41.9759 6.04554V23.4004C41.9759 23.4708 42.0335 23.5277 42.1032 23.5277H55.6701C55.7405 23.5277 55.7981 23.4708 55.7981 23.4004V6.04554C55.7981 5.55763 55.6189 5.18139 55.2405 4.87698L49.8294 0.527054C49.2725 0.0796864 48.5008 0.0796864 47.9446 0.527054L42.5335 4.87698C42.3451 5.02847 42.2035 5.20201 42.1125 5.39262ZM45.5414 11.2312C46.0378 10.4822 46.9396 9.936 47.833 9.72548C47.8913 9.71196 47.9304 9.66147 47.9304 9.60172V9.10386C47.9304 8.57612 48.3586 8.14867 48.887 8.14867C49.4147 8.14867 49.8429 8.57612 49.8429 9.10386C49.8429 9.90755 49.7035 9.56901 50.7711 9.87555C51.3337 10.037 51.8408 10.2618 52.3038 10.5356C52.7576 10.803 52.9083 11.3876 52.6395 11.8407C52.3714 12.2945 51.7867 12.4445 51.333 12.1764C50.6459 11.771 49.722 11.5036 48.8863 11.5036C48.286 11.5036 47.4766 11.7639 47.1317 12.2831C46.6943 12.9431 47.0598 13.6849 47.7426 14.0327C48.6765 14.5078 49.6843 14.0896 51.0371 14.8514C53.7839 16.3983 53.1694 20.0128 49.9937 20.7973C49.786 20.8485 49.8429 20.9196 49.8429 21.4232C49.8429 21.9502 49.4147 22.3777 48.8863 22.3777C48.3586 22.3777 47.9304 21.9502 47.9304 21.4232C47.9304 20.6615 48.0542 20.9353 47.1559 20.6949C46.5876 20.542 46.025 20.3122 45.4702 19.9986C45.0122 19.739 44.8515 19.1579 45.1118 18.7006C45.3714 18.2432 45.9532 18.0825 46.4112 18.3421C47.3849 18.894 48.9937 19.3357 50.0798 18.7425C51.1992 18.1309 51.0655 17.0135 50.094 16.5057C49.1679 16.0213 48.0556 16.4147 46.8102 15.6906C45.7106 15.0512 45.1118 14.207 45.0335 12.968C44.9973 12.3976 45.2462 11.6757 45.5414 11.2312ZM48.887 1.79092C49.5734 1.79092 50.1295 2.3464 50.1295 3.03203C50.1295 3.71766 49.5734 4.27314 48.887 4.27314C48.2007 4.27314 47.6438 3.71766 47.6438 3.03203C47.6438 2.3464 48.2007 1.79092 48.887 1.79092ZM11.5606 9.69347C12.4176 9.83074 13.1943 10.1095 13.9148 10.5356C14.3686 10.803 14.5186 11.3876 14.2505 11.8407C13.9824 12.2945 13.397 12.4445 12.9432 12.1764C12.2569 11.771 11.333 11.5036 10.4973 11.5036C9.89702 11.5036 9.08693 11.7639 8.74269 12.2831C8.30528 12.9431 8.67085 13.6849 9.35364 14.0327C10.2868 14.5078 11.2946 14.0896 12.6481 14.8514C15.3942 16.3983 14.7804 20.0128 11.604 20.7973C11.397 20.8485 11.4532 20.9196 11.4532 21.4232C11.4532 21.9502 11.025 22.3777 10.4973 22.3777C9.96957 22.3777 9.54141 21.9502 9.54141 21.4232C9.54141 20.6615 9.66445 20.9353 8.76687 20.6949C8.19788 20.542 7.636 20.3122 7.08053 19.9986C6.6232 19.739 6.46246 19.1579 6.72206 18.7006C6.98238 18.2432 7.56417 18.0825 8.02149 18.3421C8.99518 18.894 10.6047 19.3357 11.6901 18.7425C12.8102 18.1309 12.6758 17.0135 11.705 16.5057C10.779 16.0213 9.66658 16.4147 8.42121 15.6906C7.32164 15.0512 6.72278 14.207 6.64383 12.968C6.60755 12.3976 6.85649 11.6764 7.15165 11.2312C7.64809 10.4829 8.54994 9.936 9.44397 9.72548C9.50158 9.71196 9.54141 9.66147 9.54141 9.60243V9.10386C9.54141 8.57612 9.96957 8.14867 10.4973 8.14867C11.025 8.14867 11.4532 8.57612 11.4532 9.10386V9.56829C11.4532 9.63088 11.4987 9.68351 11.5606 9.69347ZM10.4973 1.79092C11.1837 1.79092 11.7405 2.3464 11.7405 3.03203C11.7405 3.71766 11.1837 4.27314 10.4973 4.27314C9.81096 4.27314 9.25478 3.71766 9.25478 3.03203C9.25478 2.3464 9.81096 1.79092 10.4973 1.79092Z" fill="white"/>
</g>
</svg>
