<svg width="63" height="63" viewBox="0 0 63 63" fill="none" xmlns="http://www.w3.org/2000/svg">
<mask id="mask0_135_2" style="mask-type:luminance" maskUnits="userSpaceOnUse" x="0" y="0" width="63" height="63">
<path d="M0 0H63V63H0V0Z" fill="white"/>
</mask>
<g mask="url(#mask0_135_2)">
<path d="M59.6825 17.4021L61.9336 15.151C62.6146 14.4699 62.9905 13.5638 62.9905 12.6004C62.9905 11.637 62.6146 10.7308 61.9336 10.0479L52.9521 1.06641C52.2692 0.385356 51.363 0.00953852 50.3996 0.00953852C49.4362 0.00953852 48.5301 0.385356 47.849 1.06641L45.5979 3.31559C41.2751 1.14844 36.4772 0 31.5 0C23.0851 0 15.1758 3.27744 9.22565 9.22565C3.27553 15.1758 0 23.087 0 31.5C0 36.4772 1.14653 41.277 3.31559 45.5998L1.06641 47.849C0.385356 48.5301 0.00953852 49.4362 0.00953852 50.3996C0.00953852 51.363 0.385356 52.2692 1.06641 52.9521L10.0479 61.9336C10.7289 62.6146 11.637 62.9905 12.6004 62.9905C13.5638 62.9905 14.4699 62.6146 15.151 61.9336L17.4002 59.6844C21.723 61.8516 26.5228 63 31.5 63C39.913 63 47.8242 59.7226 53.7743 53.7743C59.7226 47.8242 63 39.913 63 31.5C63 26.5228 61.8516 21.7249 59.6825 17.4021ZM2.10038 31.5C2.10038 23.646 5.15843 16.2632 10.7118 10.7118C16.2632 5.15843 23.646 2.10038 31.5 2.10038C35.903 2.10038 40.1572 3.06568 44.0241 4.88944L42.4273 6.48619C39.0793 5.01726 35.3841 4.20076 31.5 4.20076C16.4463 4.20076 4.20076 16.4463 4.20076 31.5C4.20076 35.3841 5.01726 39.0812 6.48619 42.4292L4.88944 44.026C3.06377 40.1591 2.10038 35.903 2.10038 31.5ZM30.1322 12.5279L29.556 11.967L30.3535 11.8507C30.6949 11.8011 30.9906 11.5874 31.1433 11.2764L31.5 10.5553L31.8567 11.2764C32.0094 11.5874 32.305 11.8011 32.6465 11.8507L33.444 11.967L32.8678 12.5279C32.6198 12.7702 32.5073 13.1174 32.5645 13.4588L32.7019 14.2525L31.9884 13.8766C31.8358 13.7965 31.6679 13.7564 31.5 13.7564C31.3321 13.7564 31.1642 13.7965 31.0116 13.8766L30.2981 14.2525L30.4355 13.4588C30.4927 13.1174 30.3802 12.7702 30.1322 12.5279ZM34.808 14.1075L34.7278 13.6477L36.4333 11.9861C36.7195 11.7076 36.8225 11.2898 36.6985 10.9102C36.5745 10.5286 36.2464 10.252 35.8515 10.1948L33.4955 9.85138L32.4405 7.71666C32.265 7.35992 31.8987 7.1329 31.5 7.1329C31.0994 7.1329 30.735 7.35992 30.5576 7.71666L29.5045 9.85138L27.1485 10.1948C26.7536 10.252 26.4255 10.5286 26.3015 10.9102C26.1775 11.2898 26.2805 11.7076 26.5667 11.9861L28.2722 13.6477L27.8696 15.9942C27.801 16.3872 27.9631 16.7859 28.2874 17.0205C28.6098 17.2552 29.0391 17.2857 29.392 17.1007L31.5 15.9923L32.4329 16.4826L31.0574 17.858C23.8825 18.0869 18.0869 23.8825 17.858 31.0574L16.4826 32.4329L15.9923 31.5L17.1007 29.392C17.2857 29.0391 17.2552 28.6098 17.0205 28.2874C16.7859 27.9631 16.3872 27.801 15.9942 27.8696L13.6477 28.2722L11.9861 26.5667C11.7057 26.2805 11.2898 26.1775 10.9082 26.3015C10.5286 26.4255 10.252 26.7536 10.1948 27.1485L9.85138 29.5045L7.71666 30.5576C7.35992 30.735 7.1329 31.1013 7.1329 31.5C7.1329 31.8987 7.35992 32.265 7.71666 32.4424L9.85138 33.4955L10.1948 35.8515C10.252 36.2464 10.5286 36.5745 10.9082 36.6985C11.0151 36.7328 11.1257 36.75 11.2326 36.75C11.513 36.75 11.7839 36.6394 11.9861 36.4333L13.6477 34.7278L14.1075 34.808L8.09057 40.8229C6.93832 37.9385 6.29924 34.7927 6.29924 31.5C6.29924 17.6043 17.6043 6.29924 31.5 6.29924C34.7927 6.29924 37.9385 6.93641 40.8249 8.09057L34.808 14.1075ZM28.5888 20.3266L20.3304 28.585C21.3815 24.556 24.5579 21.3777 28.5888 20.3266ZM13.8766 31.9884L14.2505 32.7019L13.4588 32.5645C13.1174 32.5073 12.7702 32.6198 12.5279 32.8678L11.967 33.444L11.8507 32.6465C11.8011 32.305 11.5874 32.0094 11.2764 31.8567L10.5553 31.5L11.2764 31.1433C11.5874 30.9906 11.8011 30.6949 11.8507 30.3535L11.967 29.556L12.5279 30.1322C12.7702 30.3802 13.1174 30.4927 13.4588 30.4355L14.2505 30.2981L13.8766 31.0116C13.7164 31.3169 13.7164 31.6831 13.8766 31.9884ZM13.6668 60.4475C13.0792 61.037 12.1215 61.037 11.534 60.4475L2.5506 51.466C1.96303 50.8785 1.96303 49.9208 2.5506 49.3332L49.3332 2.55251C49.627 2.25681 50.0143 2.10992 50.3996 2.10992C50.7869 2.10992 51.1722 2.25681 51.466 2.55251L60.4475 11.534C61.037 12.1215 61.037 13.0792 60.4475 13.6668L13.6668 60.4475ZM32.8678 50.4721L33.444 51.033L32.6465 51.1493C32.305 51.1989 32.0094 51.4126 31.8567 51.7236L31.5 52.4447L31.1433 51.7236C30.9906 51.4126 30.6949 51.1989 30.3535 51.1493L29.556 51.033L30.1322 50.4721C30.3802 50.2298 30.4927 49.8826 30.4355 49.5412L30.2981 48.7475L31.0116 49.1234C31.3169 49.2836 31.6831 49.2836 31.9884 49.1234L32.6999 48.7475L32.5645 49.5412C32.5073 49.8826 32.6198 50.2298 32.8678 50.4721ZM28.192 48.8925L28.2722 49.3523L26.5667 51.0139C26.2805 51.2924 26.1775 51.7102 26.3015 52.0898C26.4255 52.4714 26.7536 52.748 27.1485 52.8052L29.5045 53.1486L30.5576 55.2833C30.735 55.6401 31.0994 55.8671 31.5 55.8671C31.8987 55.8671 32.265 55.6401 32.4405 55.2833L33.4955 53.1486L35.8515 52.8052C36.2464 52.748 36.5745 52.4714 36.6985 52.0898C36.8225 51.7102 36.7195 51.2924 36.4333 51.0139L34.7278 49.3523L35.1304 47.0058C35.1971 46.6128 35.0369 46.2141 34.7126 45.9795C34.3902 45.7448 33.9609 45.7143 33.6061 45.8993L31.5 47.0077L30.5671 46.5174L31.9426 45.142C39.1175 44.9131 44.9112 39.1175 45.142 31.9426L46.5174 30.5671L47.0077 31.5L45.8993 33.608C45.7124 33.9609 45.7448 34.3902 45.9795 34.7126C46.2141 35.0369 46.6128 35.199 47.0058 35.1304L49.3523 34.7278L51.0139 36.4333C51.2142 36.6394 51.487 36.75 51.7655 36.75C51.8743 36.75 51.9849 36.7328 52.0898 36.6985C52.4714 36.5745 52.748 36.2464 52.8052 35.8515L53.1467 33.4955L55.2814 32.4424C55.6401 32.265 55.8671 31.8987 55.8671 31.5C55.8671 31.1013 55.6401 30.735 55.2814 30.5576L53.1467 29.5045L52.8052 27.1485C52.748 26.7536 52.4714 26.4255 52.0898 26.3015C51.7102 26.1775 51.2924 26.2805 51.0139 26.5667L49.3523 28.2722L48.8925 28.192L54.9094 22.1751C56.0636 25.0615 56.7008 28.2073 56.7008 31.5C56.7008 45.3957 45.3957 56.7008 31.5 56.7008C28.2073 56.7008 25.0615 56.0636 22.1751 54.9094L28.192 48.8925ZM34.4054 42.6791L42.6772 34.4073C41.6261 38.444 38.4421 41.628 34.4054 42.6791ZM49.1234 31.0116L48.7475 30.2981L49.5412 30.4355C49.8826 30.4927 50.2298 30.3802 50.4702 30.1322L51.033 29.556L51.1493 30.3535C51.1989 30.6949 51.4126 30.9906 51.7236 31.1433L52.4447 31.5L51.7236 31.8567C51.4126 32.0094 51.1989 32.305 51.1493 32.6465L51.033 33.444L50.4702 32.8678C50.2718 32.6618 49.999 32.5492 49.7186 32.5492C49.6594 32.5492 49.6003 32.555 49.5412 32.5645L48.7475 32.7019L49.1234 31.9884C49.2836 31.6831 49.2836 31.3169 49.1234 31.0116ZM52.2882 52.2882C46.7349 57.8416 39.3521 60.8996 31.5 60.8996C27.097 60.8996 22.8409 59.9343 18.974 58.1106L20.5708 56.5138C23.9207 57.9827 27.6159 58.7992 31.5 58.7992C46.5537 58.7992 58.7992 46.5537 58.7992 31.5C58.7992 27.6159 57.9808 23.9207 56.5119 20.5727L58.1106 18.974C59.9343 22.8428 60.8996 27.097 60.8996 31.5C60.8996 39.354 57.8416 46.7368 52.2882 52.2882Z" fill="white"/>
</g>
<path d="M23.1018 17.9687L21.1579 16.5932L21.1884 14.2124C21.1941 13.8137 20.9709 13.4455 20.6161 13.2643C20.2594 13.0831 19.832 13.1193 19.5115 13.3578L17.6019 14.7828L15.3489 14.0178C14.9693 13.8881 14.5515 13.9873 14.2692 14.2697C13.9868 14.552 13.8876 14.9698 14.0174 15.3494L14.7804 17.6043L13.3573 19.512C13.1188 19.8325 13.0826 20.2599 13.2638 20.6166C13.445 20.9714 13.8132 21.1946 14.2119 21.1889L16.5928 21.1584L17.9682 23.1023C18.1666 23.3828 18.4871 23.5468 18.8248 23.5468C18.8782 23.5468 18.9335 23.543 18.9888 23.5335C19.3837 23.4705 19.708 23.1901 19.8282 22.8085L20.5341 20.5346L22.8081 19.8287C23.1896 19.7085 23.47 19.3842 23.533 18.9893C23.5959 18.5944 23.4281 18.1995 23.1018 17.9687ZM19.3837 18.6936C19.0537 18.7966 18.7942 19.0542 18.6931 19.3842L18.4528 20.153L17.9892 19.4949C17.7927 19.2163 17.4722 19.0523 17.1307 19.0523C17.1269 19.0523 17.1231 19.0523 17.1174 19.0523L16.3123 19.0618L16.795 18.417C17.001 18.1404 17.0582 17.7798 16.9476 17.4517L16.6881 16.6886L17.4512 16.9481C17.7793 17.0587 18.1399 17.0015 18.4165 16.7955L19.0613 16.3128L19.0518 17.1179C19.0461 17.4651 19.212 17.7894 19.4944 17.9897L20.1525 18.4552L19.3837 18.6936Z" fill="white"/>
<path d="M39.8973 45.0313L41.8413 46.4068L41.8108 48.7876C41.805 49.1863 42.0263 49.5545 42.3831 49.7357C42.5338 49.812 42.6978 49.8502 42.86 49.8502C43.0813 49.8502 43.3026 49.7796 43.4876 49.6422L45.3953 48.2172L47.6502 48.9822C48.0299 49.1119 48.4477 49.0127 48.73 48.7304C49.0123 48.448 49.1096 48.0302 48.9818 47.6506L48.2168 45.3957L49.6419 43.488C49.8803 43.1675 49.9166 42.7402 49.7354 42.3834C49.5541 42.0286 49.1821 41.8016 48.7872 41.8111L46.4064 41.8416L45.031 39.8977C44.8001 39.5715 44.4052 39.4036 44.0103 39.4666C43.6154 39.5295 43.2892 39.8099 43.171 40.1915L42.4651 42.4655L40.1911 43.1713C39.8096 43.2915 39.5291 43.6158 39.4662 44.0107C39.4032 44.4056 39.5711 44.8005 39.8973 45.0313ZM43.6154 44.3064C43.9455 44.2034 44.203 43.9458 44.306 43.6158L44.5445 42.847L45.01 43.5052C45.2065 43.7837 45.527 43.9478 45.8665 43.9478C45.8723 43.9478 45.8761 43.9478 45.8799 43.9478L46.6849 43.9382L46.2042 44.583C45.9982 44.8596 45.9409 45.2202 46.0516 45.5483L46.3091 46.3114L45.548 46.052C45.2198 45.9413 44.8593 45.9985 44.5827 46.2046L43.9378 46.6872L43.9474 45.8822C43.9512 45.535 43.7852 45.2107 43.5029 45.0103L42.8466 44.5449L43.6154 44.3064Z" fill="white"/>
<path d="M15.1667 40.4089C14.7565 39.9988 14.0907 39.9988 13.6806 40.4089C13.2704 40.8191 13.2704 41.4849 13.6806 41.895L18.425 46.6376L10.2238 44.5887C9.76598 44.4743 9.28714 44.6784 9.05441 45.0885C8.82357 45.5006 8.89225 46.0157 9.2261 46.3495L16.6509 53.7743C16.8569 53.9784 17.124 54.0814 17.393 54.0814C17.662 54.0814 17.931 53.9784 18.1351 53.7743C18.5452 53.3642 18.5452 52.6984 18.1351 52.2882L13.3925 47.5457L21.5937 49.5945C22.0516 49.709 22.5285 49.5049 22.7613 49.0947C22.994 48.6826 22.9253 48.1676 22.5915 47.8337L15.1667 40.4089Z" fill="white"/>
<path d="M23.5189 33.9133C23.0725 33.4669 22.4792 33.2208 21.8477 33.2208C21.2182 33.2208 20.6249 33.4669 20.1785 33.9133L17.5802 36.5116C17.1338 36.958 16.8877 37.5513 16.8877 38.1828C16.8877 38.8142 17.1338 39.4075 17.5802 39.852L23.1469 45.4206C23.5933 45.867 24.1866 46.1131 24.818 46.1131C25.4495 46.1131 26.0428 45.867 26.4892 45.4206L29.0875 42.8223C29.5339 42.3759 29.78 41.7826 29.78 41.1511C29.78 40.5216 29.5339 39.9283 29.0875 39.4819L23.5189 33.9133ZM27.6033 41.3381L25.005 43.9364C24.902 44.0394 24.736 44.0394 24.633 43.9364L19.0644 38.3678C18.9614 38.2648 18.9614 38.0988 19.0644 37.9958L21.6627 35.3975C21.7256 35.3346 21.7981 35.3212 21.8477 35.3212C21.8992 35.3212 21.9698 35.3346 22.0347 35.3975L27.6033 40.9661C27.6662 41.031 27.6796 41.1035 27.6796 41.1531C27.6796 41.2027 27.6662 41.2732 27.6033 41.3381Z" fill="white"/>
<path d="M47.8337 22.591C47.4235 22.1809 46.7597 22.1809 46.3495 22.591L42.6371 26.3034L40.4089 24.0752L44.1213 20.3628C44.5315 19.9527 44.5315 19.2888 44.1213 18.8787C43.7111 18.4685 43.0473 18.4685 42.6371 18.8787L38.9247 22.591L36.6965 20.3628L40.4089 16.6505C40.8191 16.2403 40.8191 15.5764 40.4089 15.1663C39.9988 14.7561 39.3349 14.7561 38.9247 15.1663L34.4702 19.6207C34.2737 19.8172 34.1631 20.0843 34.1631 20.3628C34.1631 20.6414 34.2737 20.9084 34.4702 21.1049L41.895 28.5297C42.0915 28.7281 42.3586 28.8388 42.6371 28.8388C42.9156 28.8388 43.1827 28.7281 43.3792 28.5297L47.8337 24.0752C48.2438 23.6651 48.2438 23.0012 47.8337 22.591Z" fill="white"/>
<path d="M35.2118 26.3035L31.4994 30.0158L29.2712 27.7876L32.9836 24.0753C33.3938 23.6651 33.3938 23.0012 32.9836 22.5911C32.5734 22.1809 31.9096 22.1809 31.4994 22.5911L27.0449 27.0456C26.6348 27.4557 26.6348 28.1196 27.0449 28.5297L34.4697 35.9545C34.6738 36.1606 34.9428 36.2617 35.2118 36.2617C35.4808 36.2617 35.7498 36.1606 35.9539 35.9545C36.3641 35.5444 36.3641 34.8805 35.9539 34.4703L32.9836 31.5L36.696 27.7876C37.1062 27.3775 37.1062 26.7136 36.696 26.3035C36.2858 25.8933 35.622 25.8933 35.2118 26.3035Z" fill="white"/>
<path d="M53.7748 15.1661L50.0624 18.8785L47.8342 16.6503L51.5466 12.9379C51.9567 12.5278 51.9567 11.8639 51.5466 11.4537C51.1364 11.0436 50.4725 11.0436 50.0624 11.4537L46.35 15.1661L44.1218 12.9379L47.8342 9.22553C48.2443 8.81537 48.2443 8.15149 47.8342 7.74133C47.424 7.33118 46.7602 7.33118 46.35 7.74133L41.8955 12.1958C41.4854 12.606 41.4854 13.2699 41.8955 13.68L49.3203 21.1048C49.5244 21.3108 49.7934 21.4119 50.0624 21.4119C50.3314 21.4119 50.5985 21.3108 50.8045 21.1048L55.259 16.6503C55.6691 16.2402 55.6691 15.5763 55.259 15.1661C54.8488 14.756 54.1849 14.756 53.7748 15.1661Z" fill="white"/>
</svg>
