<svg xmlns="http://www.w3.org/2000/svg" xmlns:xlink="http://www.w3.org/1999/xlink" width="1080" zoomAndPan="magnify" viewBox="0 0 810 809.999993" height="1080" preserveAspectRatio="xMidYMid meet" version="1.0"><rect x="-81" width="972" fill="#ffffff" y="-80.999999" height="971.999992" fill-opacity="1"/><rect x="-81" width="972" fill="#ffffff" y="-80.999999" height="971.999992" fill-opacity="1"/><path fill="#000000" d="M 156.027344 689.722656 L 609.054688 85.46875 L 649.320312 115.660156 L 196.296875 719.914062 Z M 156.027344 689.722656 " fill-opacity="1" fill-rule="nonzero"/><path fill="#000000" d="M 377.515625 578.890625 L 427.863281 578.890625 L 427.863281 654.414062 L 377.515625 654.414062 Z M 377.515625 578.890625 " fill-opacity="1" fill-rule="nonzero"/><path fill="#000000" d="M 377.515625 150.941406 L 427.863281 150.941406 L 427.863281 226.46875 L 377.515625 226.46875 Z M 377.515625 150.941406 " fill-opacity="1" fill-rule="nonzero"/><path fill="#000000" d="M 478.191406 604.066406 L 327.144531 604.066406 C 271.601562 604.066406 226.445312 558.910156 226.445312 503.367188 L 226.445312 478.191406 L 276.796875 478.191406 L 276.796875 503.367188 C 276.796875 531.117188 299.394531 553.714844 327.144531 553.714844 L 478.191406 553.714844 C 505.941406 553.714844 528.542969 531.117188 528.542969 503.367188 L 528.542969 478.191406 C 528.542969 450.441406 505.941406 427.84375 478.191406 427.84375 L 327.144531 427.84375 C 271.601562 427.84375 226.445312 382.6875 226.445312 327.144531 L 226.445312 301.96875 C 226.445312 246.425781 271.601562 201.269531 327.144531 201.269531 L 478.191406 201.269531 C 533.734375 201.269531 578.890625 246.425781 578.890625 301.96875 L 578.890625 327.144531 L 528.542969 327.144531 L 528.542969 301.96875 C 528.542969 274.21875 505.941406 251.621094 478.191406 251.621094 L 327.144531 251.621094 C 299.394531 251.621094 276.796875 274.21875 276.796875 301.96875 L 276.796875 327.144531 C 276.796875 354.894531 299.394531 377.492188 327.144531 377.492188 L 478.191406 377.492188 C 533.734375 377.492188 578.890625 422.648438 578.890625 478.191406 L 578.890625 503.367188 C 578.890625 558.910156 533.734375 604.066406 478.191406 604.066406 Z M 478.191406 604.066406 " fill-opacity="1" fill-rule="nonzero"/><path fill="#000000" d="M 402.6875 805.441406 C 180.601562 805.441406 -0.0820312 624.757812 -0.0820312 402.667969 C -0.0820312 180.578125 180.601562 -0.0820312 402.6875 -0.0820312 C 624.777344 -0.0820312 805.460938 180.601562 805.460938 402.6875 C 805.460938 624.777344 624.777344 805.460938 402.6875 805.460938 Z M 402.6875 50.246094 C 208.351562 50.246094 50.265625 208.328125 50.265625 402.667969 C 50.265625 597.007812 208.351562 755.09375 402.6875 755.09375 C 597.027344 755.09375 755.113281 597.007812 755.113281 402.667969 C 755.113281 208.328125 597.007812 50.265625 402.6875 50.265625 Z M 402.6875 50.246094 " fill-opacity="1" fill-rule="nonzero"/><path fill="#000000" d="M 651.886719 687.46875 L 687.488281 651.863281 L 1065.015625 1029.390625 L 1029.414062 1064.992188 Z M 651.886719 687.46875 " fill-opacity="1" fill-rule="nonzero"/></svg>