<svg xmlns="http://www.w3.org/2000/svg" xmlns:xlink="http://www.w3.org/1999/xlink" width="1080" zoomAndPan="magnify" viewBox="0 0 810 809.999993" height="1080" preserveAspectRatio="xMidYMid meet" version="1.0"><defs><clipPath id="74a5915835"><path d="M 227 32.90625 L 617 32.90625 L 617 421 L 227 421 Z M 227 32.90625 " clip-rule="nonzero"/></clipPath><clipPath id="86735b81af"><path d="M 222 457 L 804 457 L 804 776.90625 L 222 776.90625 Z M 222 457 " clip-rule="nonzero"/></clipPath></defs><g clip-path="url(#74a5915835)"><path fill="#000000" d="M 422.265625 420.601562 C 315.523438 420.601562 227.617188 332.714844 227.617188 225.996094 C 227.617188 119.28125 315.523438 32.964844 422.265625 32.964844 C 529.011719 32.964844 616.917969 119.28125 616.917969 225.996094 C 616.917969 332.714844 529.011719 420.601562 422.265625 420.601562 Z M 422.265625 386.074219 C 334.359375 386.074219 263.722656 313.882812 263.722656 225.996094 C 263.722656 138.113281 334.359375 67.492188 422.265625 67.492188 C 510.175781 67.492188 580.8125 138.113281 580.8125 225.996094 C 580.8125 313.882812 510.175781 386.074219 422.265625 386.074219 Z M 422.265625 86.324219 C 345.347656 86.324219 282.558594 149.097656 282.558594 225.996094 C 282.558594 302.898438 345.347656 365.671875 422.265625 365.671875 C 499.1875 365.671875 561.976562 302.898438 561.976562 225.996094 C 561.976562 149.097656 499.1875 86.324219 422.265625 86.324219 Z M 412.847656 313.882812 C 387.734375 310.742188 367.324219 290.34375 367.324219 265.230469 C 367.324219 260.523438 372.035156 255.816406 376.746094 255.816406 C 383.023438 255.816406 387.734375 260.523438 387.734375 265.230469 C 387.734375 279.355469 397.152344 290.34375 412.847656 295.050781 L 412.847656 235.414062 C 387.734375 230.707031 367.324219 211.875 367.324219 186.761719 C 367.324219 163.222656 387.734375 142.820312 412.847656 138.113281 L 412.847656 127.128906 C 412.847656 120.851562 417.558594 116.140625 422.265625 116.140625 C 426.976562 116.140625 431.6875 120.851562 431.6875 127.128906 L 431.6875 138.113281 C 456.800781 142.820312 477.210938 163.222656 477.210938 186.761719 C 477.210938 193.042969 472.5 196.179688 466.222656 196.179688 C 461.511719 196.179688 456.800781 193.042969 456.800781 186.761719 C 456.800781 172.640625 445.8125 161.652344 431.6875 158.515625 L 431.6875 218.152344 C 456.800781 221.289062 477.210938 241.691406 477.210938 265.230469 C 477.210938 290.34375 456.800781 310.742188 431.6875 313.882812 L 431.6875 326.4375 C 431.6875 331.144531 426.976562 335.855469 422.265625 335.855469 C 417.558594 335.855469 412.847656 331.144531 412.847656 326.4375 Z M 431.6875 295.050781 C 445.8125 290.34375 456.800781 279.355469 456.800781 265.230469 C 456.800781 252.675781 445.8125 240.121094 431.6875 236.984375 Z M 412.847656 158.515625 C 397.152344 161.652344 387.734375 172.640625 387.734375 186.761719 C 387.734375 200.886719 397.152344 211.875 412.847656 215.011719 Z M 412.847656 158.515625 " fill-opacity="1" fill-rule="evenodd"/></g><path fill="#000000" d="M 178.953125 765.863281 L 25.117188 765.863281 C 10.988281 765.863281 0 754.875 0 740.75 L 0 428.445312 C 0 414.324219 10.988281 403.335938 25.117188 403.335938 L 178.953125 403.335938 C 193.082031 403.335938 204.070312 414.324219 204.070312 428.445312 L 204.070312 740.75 C 204.070312 754.875 193.082031 765.863281 178.953125 765.863281 Z M 102.035156 623.050781 C 80.058594 623.050781 62.789062 605.785156 62.789062 585.382812 C 62.789062 563.414062 80.058594 546.148438 102.035156 546.148438 C 122.441406 546.148438 139.710938 563.414062 139.710938 585.382812 C 139.710938 605.785156 122.441406 623.050781 102.035156 623.050781 Z M 102.035156 564.980469 C 91.046875 564.980469 83.199219 574.398438 83.199219 585.382812 C 83.199219 594.800781 91.046875 604.214844 102.035156 604.214844 C 113.023438 604.214844 120.871094 594.800781 120.871094 585.382812 C 120.871094 574.398438 113.023438 564.980469 102.035156 564.980469 Z M 102.035156 564.980469 " fill-opacity="1" fill-rule="evenodd"/><g clip-path="url(#86735b81af)"><path fill="#000000" d="M 401.859375 776.847656 C 375.175781 776.847656 348.488281 765.863281 323.371094 756.445312 L 321.800781 754.875 C 301.394531 747.03125 282.558594 737.613281 263.722656 728.195312 C 255.871094 725.058594 248.023438 720.351562 240.175781 717.210938 L 222.90625 717.210938 L 222.90625 458.265625 C 233.894531 456.695312 248.023438 456.695312 262.152344 458.265625 C 309.246094 459.835938 348.488281 475.527344 373.605469 503.777344 L 516.453125 503.777344 C 541.570312 503.777344 563.546875 524.179688 563.546875 549.289062 C 563.546875 550.859375 563.546875 552.425781 561.976562 553.996094 L 709.535156 469.25 C 748.777344 447.277344 780.175781 461.402344 794.300781 486.511719 C 810 514.761719 806.859375 557.136719 772.324219 577.539062 L 447.382812 765.863281 C 431.6875 773.707031 415.988281 776.847656 401.859375 776.847656 Z M 401.859375 776.847656 " fill-opacity="1" fill-rule="evenodd"/></g></svg>