<svg xmlns="http://www.w3.org/2000/svg" xmlns:xlink="http://www.w3.org/1999/xlink" width="1080" zoomAndPan="magnify" viewBox="0 0 810 809.999993" height="1080" preserveAspectRatio="xMidYMid meet" version="1.0"><rect x="-81" width="972" fill="#ffffff" y="-80.999999" height="971.999992" fill-opacity="1"/><rect x="-81" width="972" fill="#ffffff" y="-80.999999" height="971.999992" fill-opacity="1"/><path fill="#000000" d="M 806.742188 83.882812 L 683.234375 1.542969 C 681.175781 0.171875 678.429688 0 676.199219 1.199219 C 673.972656 2.402344 672.597656 4.804688 672.597656 7.203125 L 672.597656 55.234375 L 408.429688 55.234375 C 310.3125 55.234375 218.195312 93.488281 148.894531 162.789062 C 79.59375 232.089844 41.339844 324.207031 41.339844 422.324219 L 41.339844 597.292969 L 55.0625 597.292969 L 55.0625 422.324219 C 55.0625 227.457031 213.5625 68.957031 408.429688 68.957031 L 679.460938 68.957031 C 683.234375 68.957031 686.320312 65.871094 686.320312 62.097656 L 686.320312 20.070312 L 790.617188 89.542969 L 686.320312 159.015625 L 686.320312 116.988281 C 686.320312 113.214844 683.234375 110.128906 679.460938 110.128906 L 411.863281 110.128906 C 237.75 110.128906 96.234375 251.644531 96.234375 425.757812 L 96.234375 597.292969 L 109.957031 597.292969 L 109.957031 425.757812 C 109.957031 259.363281 245.46875 123.851562 411.863281 123.851562 L 672.597656 123.851562 L 672.597656 171.878906 C 672.597656 174.453125 673.96875 176.683594 676.199219 177.882812 C 678.429688 179.085938 681.175781 178.914062 683.234375 177.542969 L 806.742188 95.203125 C 808.628906 94.003906 809.828125 91.773438 809.828125 89.542969 C 809.828125 87.3125 808.628906 85.082031 806.742188 83.882812 Z M 806.742188 83.882812 " fill-opacity="1" fill-rule="nonzero"/><path fill="#000000" d="M 432.445312 631.601562 C 557.324219 631.601562 658.875 530.050781 658.875 405.171875 C 658.875 280.292969 557.324219 178.742188 432.445312 178.742188 L 377.554688 178.742188 C 252.675781 178.742188 151.125 280.292969 151.125 405.171875 C 151.125 530.050781 252.675781 631.601562 377.554688 631.601562 Z M 459.890625 616.164062 C 496.085938 601.925781 527.820312 578.765625 552.179688 549.261719 L 588.886719 549.261719 C 555.78125 585.113281 510.496094 609.644531 459.890625 616.164062 Z M 600.382812 535.539062 L 562.644531 535.539062 C 574.480469 518.730469 584.085938 500.375 591.117188 480.648438 L 631.429688 480.648438 C 623.710938 500.546875 613.246094 519.074219 600.382812 535.539062 Z M 636.0625 466.925781 L 595.40625 466.925781 C 600.382812 449.429688 603.296875 431.074219 603.8125 412.03125 L 644.980469 412.03125 C 644.464844 431.074219 641.378906 449.429688 636.0625 466.925781 Z M 644.980469 398.308594 L 603.8125 398.308594 C 603.296875 379.269531 600.382812 360.914062 595.40625 343.417969 L 636.0625 343.417969 C 641.378906 360.914062 644.464844 379.269531 644.980469 398.308594 Z M 600.382812 274.804688 C 613.246094 291.269531 623.710938 309.796875 631.257812 329.695312 L 590.945312 329.695312 C 583.914062 309.96875 574.308594 291.613281 562.472656 274.804688 Z M 588.714844 261.078125 L 552.007812 261.078125 C 527.648438 231.574219 495.914062 208.417969 459.71875 194.179688 C 510.496094 200.699219 555.78125 225.230469 588.714844 261.078125 Z M 164.847656 405.171875 C 164.847656 287.839844 260.222656 192.464844 377.554688 192.464844 C 494.886719 192.464844 590.261719 287.839844 590.261719 405.171875 C 590.261719 522.503906 494.886719 617.878906 377.554688 617.878906 C 260.222656 617.878906 164.847656 522.503906 164.847656 405.171875 Z M 164.847656 405.171875 " fill-opacity="1" fill-rule="nonzero"/><path fill="#000000" d="M 754.9375 388.019531 C 754.9375 582.882812 596.4375 741.386719 401.570312 741.386719 L 130.539062 741.386719 C 126.765625 741.386719 123.679688 744.472656 123.679688 748.246094 L 123.679688 790.273438 L 19.382812 720.800781 L 123.679688 651.328125 L 123.679688 693.355469 C 123.679688 697.128906 126.765625 700.214844 130.539062 700.214844 L 398.136719 700.214844 C 572.25 700.214844 713.765625 558.699219 713.765625 384.585938 L 713.765625 213.050781 L 700.042969 213.050781 L 700.042969 384.585938 C 700.042969 550.976562 564.53125 686.492188 398.136719 686.492188 L 137.402344 686.492188 L 137.402344 638.460938 C 137.402344 635.890625 136.027344 633.660156 133.800781 632.457031 C 131.570312 631.257812 128.824219 631.429688 126.765625 632.800781 L 3.257812 715.140625 C 1.371094 716.339844 0.171875 718.570312 0.171875 720.800781 C 0.171875 723.03125 1.371094 725.261719 3.257812 726.460938 L 126.765625 808.800781 C 127.96875 809.484375 129.167969 810 130.539062 810 C 131.570312 810 132.769531 809.65625 133.800781 809.140625 C 136.027344 807.941406 137.402344 805.539062 137.402344 803.136719 L 137.402344 755.109375 L 401.570312 755.109375 C 499.6875 755.109375 591.804688 716.855469 661.105469 647.554688 C 730.40625 578.253906 768.660156 486.136719 768.660156 388.019531 L 768.660156 213.050781 L 754.9375 213.050781 Z M 754.9375 388.019531 " fill-opacity="1" fill-rule="nonzero"/><path fill="#000000" d="M 425.585938 418.894531 C 425.585938 366.574219 390.933594 322.148438 343.246094 307.394531 L 343.246094 287.324219 C 351.308594 284.410156 356.96875 276.863281 356.96875 267.941406 C 356.96875 256.621094 347.707031 247.355469 336.386719 247.355469 L 281.492188 247.355469 C 270.171875 247.355469 260.910156 256.621094 260.910156 267.941406 C 260.910156 276.863281 266.570312 284.410156 274.632812 287.324219 L 274.632812 307.394531 C 226.945312 322.148438 192.292969 366.574219 192.292969 418.894531 C 192.292969 483.222656 244.613281 535.539062 308.9375 535.539062 C 373.265625 535.539062 425.585938 483.222656 425.585938 418.894531 Z M 281.492188 261.078125 L 336.386719 261.078125 C 340.160156 261.078125 343.246094 264.167969 343.246094 267.941406 C 343.246094 271.714844 340.160156 274.804688 336.386719 274.804688 L 281.492188 274.804688 C 277.71875 274.804688 274.632812 271.714844 274.632812 267.941406 C 274.632812 264.167969 277.71875 261.078125 281.492188 261.078125 Z M 329.523438 288.527344 L 329.523438 304.136719 C 322.832031 302.933594 315.972656 302.25 308.9375 302.25 C 301.90625 302.25 295.042969 302.933594 288.355469 304.136719 L 288.355469 288.527344 Z M 376.695312 496.257812 C 360.230469 510.667969 339.128906 519.929688 315.800781 521.472656 L 315.800781 487.507812 L 302.078125 487.507812 L 302.078125 521.644531 C 278.921875 520.101562 257.648438 510.839844 241.183594 496.429688 L 258.851562 478.761719 L 249.074219 468.984375 L 231.402344 486.652344 C 216.996094 470.183594 207.730469 449.085938 206.1875 425.757812 L 240.324219 425.757812 L 240.324219 412.03125 L 206.1875 412.03125 C 207.730469 388.875 216.996094 367.605469 231.402344 351.136719 L 249.074219 368.804688 L 258.851562 359.027344 L 241.183594 341.359375 C 259.363281 325.578125 283.035156 315.800781 308.9375 315.800781 C 334.839844 315.800781 358.511719 325.40625 376.695312 341.359375 L 359.027344 359.027344 L 368.804688 368.804688 L 386.472656 351.136719 C 400.882812 367.605469 410.144531 388.703125 411.691406 412.03125 L 377.554688 412.03125 L 377.554688 425.757812 L 411.691406 425.757812 C 410.144531 448.914062 400.882812 470.183594 386.472656 486.652344 L 368.804688 468.984375 L 359.027344 478.761719 Z M 376.695312 496.257812 " fill-opacity="1" fill-rule="nonzero"/><path fill="#000000" d="M 302.078125 415.976562 L 262.96875 455.089844 L 272.746094 464.867188 L 313.914062 423.699219 C 315.285156 422.324219 315.972656 420.609375 315.972656 418.894531 L 315.972656 336.554688 L 302.25 336.554688 L 302.25 415.976562 Z M 302.078125 415.976562 " fill-opacity="1" fill-rule="nonzero"/><path fill="#000000" d="M 453.03125 418.894531 C 453.03125 459.035156 436.90625 496.257812 407.917969 523.703125 L 417.351562 533.652344 C 425.585938 525.761719 432.960938 517.183594 439.308594 508.09375 L 501.0625 508.09375 L 501.0625 494.371094 L 447.710938 494.371094 C 452.515625 485.621094 456.460938 476.359375 459.378906 466.925781 L 514.785156 466.925781 L 514.785156 453.203125 L 462.980469 453.203125 C 464.867188 444.28125 466.066406 435.019531 466.582031 425.757812 L 528.507812 425.757812 L 528.507812 412.03125 L 466.582031 412.03125 C 466.066406 397.796875 463.496094 384.074219 459.378906 370.863281 L 542.230469 370.863281 L 542.230469 357.140625 L 454.230469 357.140625 C 450.113281 347.535156 445.140625 338.273438 439.136719 329.695312 L 528.507812 329.695312 L 528.507812 315.972656 L 428.671875 315.972656 C 425.070312 311.855469 421.296875 307.910156 417.351562 304.136719 L 407.917969 314.085938 C 436.90625 341.53125 453.03125 378.753906 453.03125 418.894531 Z M 453.03125 418.894531 " fill-opacity="1" fill-rule="nonzero"/><path fill="#000000" d="M 542.230469 412.03125 L 569.675781 412.03125 L 569.675781 425.757812 L 542.230469 425.757812 Z M 542.230469 412.03125 " fill-opacity="1" fill-rule="nonzero"/><path fill="#000000" d="M 514.785156 494.371094 L 542.230469 494.371094 L 542.230469 508.09375 L 514.785156 508.09375 Z M 514.785156 494.371094 " fill-opacity="1" fill-rule="nonzero"/></svg>